M48
;Layer_Color=9474304
;FILE_FORMAT=2:5
INCH,LZ
;TYPE=PLATED
T1F00S00C0.01200
T3F00S00C0.02800
T4F00S00C0.04000
%
T01
X0239547Y00275
X024624
X025289Y0027457
X0256236Y0026
X0264Y00266
X0263504Y0029921
Y0033268
Y0036614
Y0039961
Y0043307
Y0046654
Y005
Y0053347
Y0056693
Y0060039
Y0063386
Y0066732
Y0070079
Y0073425
X0259583Y0074
X02595Y00815
X0255Y00894
X02497
X02455Y0089
X0242807Y00725
X0236114
X0239504Y0067504
Y0061
X02428Y00533
Y00467
X02363
Y00532
X0250504Y005
Y0056496
Y0043504
X0249543Y0032496
X024285
X0236157
X0239504Y0039
X0246197Y0067504
X02495Y00725
X02671Y00187
X0232854Y00275
X0226161
X0219468
X0222772Y0032496
X0216193Y0032555
X0204732Y0033268
X01994Y00386
X01967Y00413
X0201902Y00445
X02054Y00447
Y00515
X0201502Y00514
X01991Y00608
X02003Y00648
X01924Y00672
X01902Y00701
X0193079Y00736
X02018Y00769
X0216035Y00725
X0222728
X0229421
X0226118Y0067504
X0232811
X0219425
X02285Y00565
X0228504Y005
Y0043504
X0229465Y0032496
X02059Y00222
X0192179Y0029921
X0185159Y00376
X01817Y00363
X01846Y00446
X0187901Y0046
X01879Y00495
X01848Y00511
X01837Y00571
X01797Y00568
X01758
X01721Y00552
X01781Y00533
X01888Y00592
X01827Y00775
X01666Y00801
X01626Y00833
X01545Y00591
X0150699Y0048899
X01553Y00376
X0169Y00209
X01682Y00164
X0116Y0031
X0112
X0108
X0104
X01Y00308
Y0038
X0104Y00382
X0108
X0112
X0116
Y00447
X0112
X0108
X0104
X01Y00445
X00932Y00565
X0092925Y0061525
X00951Y00684
X00971Y00793
X0097Y00886
X00836Y00836
X0079225Y0086125
X00787Y0059
X00807Y00555
X00793Y00505
X00798Y00196
X01238Y00402
X01316Y00878
X00729Y00788
Y0075
X0069
Y00789
X00654Y00895
X00491Y0085
X00497Y00783
Y00732
X00483Y00699
X00449Y00727
X00446Y0067
X00457Y008
X00351Y00784
X00368Y00753
X00309Y00778
X00361Y00856
X00294Y00906
X00288Y00617
X00299Y00573
X00315Y00425
X00285Y00395
X00505Y0037
Y0029
X0055
X00595
X00585Y00155
X0055
X0051
X00455
X00472Y00187
Y00223
X00465Y00255
X00365Y0023
Y0016
X0029Y0009
X00709Y00236
X00739Y00211
X00762Y00188
X00648Y00499
X00685Y0055
X00617Y00643
X0074677Y0065623
T03
X01375Y005
X01425
X00375
Y0055
Y0045
T04
X0235Y0005
X0245
X0255
X0265
Y0095
X0255
X0245
X0235
X0225
X0215
X0205
X0195
X0185
X0175
X0165
X0155
X0145
X0135
X0125
X0115
X0105
X0095
X0085
Y0005
X0095
X0105
X0115
X0125
X0135
X0145
X0155
X0165
X0175
X0185
X0195
X0205
X0215
X0225
X0075
X0065
X0055
X0045
X0035
Y0095
X0045
X0055
X0065
X0075
M30
