G04*
G04 #@! TF.GenerationSoftware,Altium Limited,Altium Designer,20.2.8 (258)*
G04*
G04 Layer_Physical_Order=3*
G04 Layer_Color=32768*
%FSLAX25Y25*%
%MOIN*%
G70*
G04*
G04 #@! TF.SameCoordinates,B9B06CBA-7B7C-4559-A748-5793C5333A8F*
G04*
G04*
G04 #@! TF.FilePolarity,Negative*
G04*
G01*
G75*
%ADD51C,0.06800*%
%ADD73C,0.00010*%
%ADD74C,0.08000*%
G04:AMPARAMS|DCode=75|XSize=100mil|YSize=100mil|CornerRadius=0mil|HoleSize=0mil|Usage=FLASHONLY|Rotation=0.000|XOffset=0mil|YOffset=0mil|HoleType=Round|Shape=Relief|Width=10mil|Gap=10mil|Entries=4|*
%AMTHD75*
7,0,0,0.10000,0.08000,0.01000,45*
%
%ADD75THD75*%
%AMTHOVALD76*
21,1,0.03150,0.08362,0,0,360.0*
1,1,0.08362,-0.01575,0.00000*
1,1,0.08362,0.01575,0.00000*
21,0,0.03150,0.06362,0,0,360.0*
1,0,0.06362,-0.01575,0.00000*
1,0,0.06362,0.01575,0.00000*
4,0,4,-0.01221,-0.00354,-0.04178,-0.03310,-0.04885,-0.02603,-0.01928,0.00354,-0.01221,-0.00354,0.0*
4,0,4,0.01928,-0.00354,0.04885,0.02603,0.04178,0.03310,0.01221,0.00354,0.01928,-0.00354,0.0*
4,0,4,-0.01928,-0.00354,-0.04885,0.02603,-0.04178,0.03310,-0.01221,0.00354,-0.01928,-0.00354,0.0*
4,0,4,0.01221,-0.00354,0.04178,-0.03310,0.04885,-0.02603,0.01928,0.00354,0.01221,-0.00354,0.0*
%
%ADD76THOVALD76*%

%AMTHOVALD77*
21,1,0.04724,0.08362,0,0,360.0*
1,1,0.08362,-0.02362,0.00000*
1,1,0.08362,0.02362,0.00000*
21,0,0.04724,0.06362,0,0,360.0*
1,0,0.06362,-0.02362,0.00000*
1,0,0.06362,0.02362,0.00000*
4,0,4,-0.02009,-0.00354,-0.04965,-0.03310,-0.05672,-0.02603,-0.02716,0.00354,-0.02009,-0.00354,0.0*
4,0,4,0.02716,-0.00354,0.05672,0.02603,0.04965,0.03310,0.02009,0.00354,0.02716,-0.00354,0.0*
4,0,4,-0.02716,-0.00354,-0.05672,0.02603,-0.04965,0.03310,-0.02009,0.00354,-0.02716,-0.00354,0.0*
4,0,4,0.02009,-0.00354,0.04965,-0.03310,0.05672,-0.02603,0.02716,0.00354,0.02009,-0.00354,0.0*
%
%ADD77THOVALD77*%

%ADD78C,0.05200*%
D51*
X37500Y50000D02*
D03*
Y55000D02*
D03*
Y45000D02*
D03*
X137500Y50000D02*
D03*
X142500D02*
D03*
D73*
X0Y0D02*
Y100000D01*
X270000D01*
Y0D02*
Y100000D01*
X0Y0D02*
X270000D01*
D74*
X35000Y95000D02*
D03*
X55000D02*
D03*
X65000D02*
D03*
X75000D02*
D03*
X85000D02*
D03*
X95000D02*
D03*
X105000D02*
D03*
X115000D02*
D03*
X125000D02*
D03*
X135000D02*
D03*
X145000D02*
D03*
X155000D02*
D03*
X165000D02*
D03*
X175000D02*
D03*
X185000D02*
D03*
X195000D02*
D03*
X205000D02*
D03*
X215000D02*
D03*
X225000D02*
D03*
X235000D02*
D03*
X245000D02*
D03*
X255000D02*
D03*
X75000Y5000D02*
D03*
X265000D02*
D03*
X245000D02*
D03*
X235000D02*
D03*
X225000D02*
D03*
X215000D02*
D03*
X205000D02*
D03*
X195000D02*
D03*
X185000D02*
D03*
X175000D02*
D03*
X165000D02*
D03*
X155000D02*
D03*
X145000D02*
D03*
X135000D02*
D03*
X125000D02*
D03*
X115000D02*
D03*
X105000D02*
D03*
X95000D02*
D03*
X85000D02*
D03*
X65000D02*
D03*
X55000D02*
D03*
X45000D02*
D03*
D75*
Y95000D02*
D03*
X265000D02*
D03*
X255000Y5000D02*
D03*
X35000D02*
D03*
D76*
X22220Y95008D02*
D03*
Y60992D02*
D03*
X22248Y39000D02*
D03*
Y4984D02*
D03*
D77*
X6472Y95008D02*
D03*
Y60992D02*
D03*
X6500Y39000D02*
D03*
Y4984D02*
D03*
D78*
X83600Y83600D02*
D03*
X199100Y60800D02*
D03*
X200300Y64800D02*
D03*
X79225Y86125D02*
D03*
X249700Y89400D02*
D03*
X185159Y37600D02*
D03*
X150699Y48899D02*
D03*
X97000Y88600D02*
D03*
X95100Y68400D02*
D03*
X178100Y53300D02*
D03*
X61700Y64300D02*
D03*
X64800Y49900D02*
D03*
X35100Y78400D02*
D03*
X49700Y78300D02*
D03*
Y73200D02*
D03*
X30900Y77800D02*
D03*
X181700Y36300D02*
D03*
X196700Y41300D02*
D03*
X187900Y49500D02*
D03*
X187901Y46000D02*
D03*
X172100Y55200D02*
D03*
X183700Y57100D02*
D03*
X47200Y22300D02*
D03*
Y18700D02*
D03*
X73900Y21100D02*
D03*
X76200Y18800D02*
D03*
X201502Y51400D02*
D03*
X204732Y33268D02*
D03*
X199400Y38600D02*
D03*
X192400Y67200D02*
D03*
X193079Y73600D02*
D03*
X188800Y59200D02*
D03*
X201902Y44500D02*
D03*
X51000Y15500D02*
D03*
X58500D02*
D03*
X55000D02*
D03*
X79300Y50500D02*
D03*
X182700Y77500D02*
D03*
X190200Y70100D02*
D03*
X166600Y80100D02*
D03*
X192179Y29921D02*
D03*
X255000Y89400D02*
D03*
X246197Y67504D02*
D03*
X216035Y72500D02*
D03*
X216193Y32555D02*
D03*
X246240Y27500D02*
D03*
X249543Y32496D02*
D03*
X239547Y27500D02*
D03*
X242850Y32496D02*
D03*
X232854Y27500D02*
D03*
X236157Y32496D02*
D03*
X226161Y27500D02*
D03*
X229465Y32496D02*
D03*
X219468Y27500D02*
D03*
X222772Y32496D02*
D03*
X222728Y72500D02*
D03*
X219425Y67504D02*
D03*
X229421Y72500D02*
D03*
X226118Y67504D02*
D03*
X236114Y72500D02*
D03*
X232811Y67504D02*
D03*
X239504D02*
D03*
X242807Y72500D02*
D03*
X249500D02*
D03*
M02*
