G04*
G04 #@! TF.GenerationSoftware,Altium Limited,Altium Designer,20.2.8 (258)*
G04*
G04 Layer_Physical_Order=4*
G04 Layer_Color=16711680*
%FSLAX25Y25*%
%MOIN*%
G70*
G04*
G04 #@! TF.SameCoordinates,B9B06CBA-7B7C-4559-A748-5793C5333A8F*
G04*
G04*
G04 #@! TF.FilePolarity,Positive*
G04*
G01*
G75*
%ADD13C,0.00600*%
G04:AMPARAMS|DCode=53|XSize=39.37mil|YSize=70.87mil|CornerRadius=19.68mil|HoleSize=0mil|Usage=FLASHONLY|Rotation=270.000|XOffset=0mil|YOffset=0mil|HoleType=Round|Shape=RoundedRectangle|*
%AMROUNDEDRECTD53*
21,1,0.03937,0.03150,0,0,270.0*
21,1,0.00000,0.07087,0,0,270.0*
1,1,0.03937,-0.01575,0.00000*
1,1,0.03937,-0.01575,0.00000*
1,1,0.03937,0.01575,0.00000*
1,1,0.03937,0.01575,0.00000*
%
%ADD53ROUNDEDRECTD53*%
G04:AMPARAMS|DCode=54|XSize=39.37mil|YSize=86.61mil|CornerRadius=19.68mil|HoleSize=0mil|Usage=FLASHONLY|Rotation=270.000|XOffset=0mil|YOffset=0mil|HoleType=Round|Shape=RoundedRectangle|*
%AMROUNDEDRECTD54*
21,1,0.03937,0.04724,0,0,270.0*
21,1,0.00000,0.08661,0,0,270.0*
1,1,0.03937,-0.02362,0.00000*
1,1,0.03937,-0.02362,0.00000*
1,1,0.03937,0.02362,0.00000*
1,1,0.03937,0.02362,0.00000*
%
%ADD54ROUNDEDRECTD54*%
%ADD63C,0.00623*%
%ADD64C,0.00603*%
%ADD65C,0.06400*%
%ADD66R,0.06400X0.06400*%
%ADD67C,0.04000*%
%ADD68R,0.04000X0.04000*%
%ADD69R,0.04000X0.04000*%
%ADD70C,0.02400*%
%ADD71C,0.04000*%
D13*
X83800Y83600D02*
X90800Y76600D01*
X83600Y83600D02*
X83800D01*
X70975Y89225D02*
X81428D01*
X65200Y95000D02*
X70975Y89225D01*
X86500Y84153D02*
X88653Y82000D01*
X81953Y88700D02*
X86500Y84153D01*
Y86853D02*
X89453Y83900D01*
X84653Y88700D02*
X86500Y86853D01*
X82528Y90825D02*
X84653Y88700D01*
X81428Y89225D02*
X81953Y88700D01*
X89453Y83900D02*
X101800D01*
X88653Y82000D02*
X100700D01*
X90800Y76600D02*
X95000D01*
X109900Y61700D01*
X157172D01*
X101800Y83900D02*
X118100Y67600D01*
X100700Y82000D02*
X104400Y78300D01*
X152600Y57100D02*
X158600Y51100D01*
X172100D02*
X174300Y53300D01*
X158600Y51100D02*
X172100D01*
X106400Y57100D02*
X152600D01*
X174300Y53300D02*
X178100D01*
X199115Y17600D02*
X207947D01*
X196115Y14600D02*
X199115Y17600D01*
X207947D02*
X211947Y21600D01*
X178600Y19600D02*
X207118D01*
X170700Y11700D02*
X178600Y19600D01*
X207118D02*
X211018Y23500D01*
X161700Y11700D02*
X170700D01*
X177300Y14600D02*
X196115D01*
X165949Y5949D02*
X168649D01*
X165000Y5000D02*
X165949Y5949D01*
X168649D02*
X177300Y14600D01*
X175000Y5500D02*
X181400Y11900D01*
X196243D02*
X199843Y15500D01*
X181400Y11900D02*
X196243D01*
X169800Y13700D02*
X177600Y21500D01*
X197272D02*
X200972Y25200D01*
X177600Y21500D02*
X197272D01*
X189738Y9738D02*
X198938D01*
X202700Y13500D02*
X209504D01*
X198938Y9738D02*
X202700Y13500D01*
X203200Y10700D02*
X210700D01*
X215900Y15900D02*
X230800D01*
X210700Y10700D02*
X215900Y15900D01*
X198533Y6033D02*
X203200Y10700D01*
X216800Y13100D02*
X233200D01*
X205000Y5000D02*
X205048Y5049D01*
X208749D01*
X216800Y13100D01*
X239279Y24379D02*
Y27232D01*
X230800Y15900D02*
X239279Y24379D01*
X220500Y11200D02*
X236100D01*
X246072Y21172D01*
Y27331D01*
X215000Y5700D02*
X220500Y11200D01*
X233200Y13100D02*
X242850Y22750D01*
X215000Y5000D02*
Y5700D01*
X242850Y22750D02*
Y32496D01*
X213704Y17700D02*
X227900D01*
X236157Y25958D02*
Y32496D01*
X227900Y17700D02*
X236157Y25958D01*
X209504Y13500D02*
X213704Y17700D01*
X225000Y5000D02*
X226500D01*
X230900Y9400D02*
X240600D01*
X249543Y18343D01*
X226500Y5000D02*
X230900Y9400D01*
X208675Y15500D02*
X212875Y19700D01*
X226300D02*
X232587Y25986D01*
X212875Y19700D02*
X226300D01*
X211947Y21600D02*
X224700D01*
X229465Y26365D01*
X223400Y23500D02*
X225894Y25994D01*
X211018Y23500D02*
X223400D01*
X220987Y25200D02*
X222772Y26985D01*
X200972Y25200D02*
X220987D01*
X222728Y72500D02*
Y75272D01*
X220000Y78000D02*
X222728Y75272D01*
X203500Y82300D02*
X207800Y78000D01*
X220000D01*
X95100Y68400D02*
X106400Y57100D01*
X249543Y18343D02*
Y32496D01*
X239279Y27232D02*
X239547Y27500D01*
X232587Y27232D02*
X232854Y27500D01*
X232587Y25986D02*
Y27232D01*
X229465Y26365D02*
Y32496D01*
X225894Y25994D02*
Y27232D01*
X226161Y27500D01*
X196000Y23600D02*
X200700Y28300D01*
X219090Y27500D02*
X219468D01*
X218290Y28300D02*
X219090Y27500D01*
X200700Y28300D02*
X218290D01*
X195172Y25600D02*
X200172Y30600D01*
X214238D02*
X216193Y32555D01*
X200172Y30600D02*
X214238D01*
X195000Y5000D02*
X196033Y6033D01*
X198533D01*
X175000Y5000D02*
Y5500D01*
X153700Y13700D02*
X169800D01*
X55000Y5000D02*
X62900Y12900D01*
X86200D02*
X93500Y20200D01*
X62900Y12900D02*
X86200D01*
X52300Y12300D02*
X58836D01*
X45000Y5000D02*
X52300Y12300D01*
X58836D02*
X61735Y15200D01*
X81200D01*
X89000Y23000D01*
X118100Y67600D02*
X158458D01*
X104400Y72700D02*
Y78300D01*
Y72700D02*
X112200Y64900D01*
Y64900D02*
X156800D01*
X191018Y60800D02*
X199100D01*
X188618Y63200D02*
X191018Y60800D01*
X198900Y63400D02*
X200300Y64800D01*
X188581Y65500D02*
X190681Y63400D01*
X198900D01*
X156800Y64900D02*
X162300Y59400D01*
X181400D02*
X183700Y57100D01*
X162300Y59400D02*
X181400D01*
X158458Y67600D02*
X164758Y61300D01*
X186700D02*
X188800Y59200D01*
X164758Y61300D02*
X186700D01*
X166215Y65500D02*
X188581D01*
X157915Y73800D02*
X166215Y65500D01*
X158186Y70700D02*
X164386Y64500D01*
X164952D01*
X166252Y63200D01*
X188618D01*
X157543Y77000D02*
X167043Y67500D01*
X192132Y67468D02*
X192400Y67200D01*
X191146Y67468D02*
X192132D01*
X191114Y67500D02*
X191146Y67468D01*
X167043Y67500D02*
X191114D01*
X135300Y21800D02*
X159600D01*
X165400Y27600D02*
X189857D01*
X159600Y21800D02*
X165400Y27600D01*
X139500Y19500D02*
X160163D01*
X166263Y25600D02*
X195172D01*
X160163Y19500D02*
X166263Y25600D01*
X132500Y24200D02*
X159000D01*
X164400Y29600D02*
X187500D01*
X159000Y24200D02*
X164400Y29600D01*
X158400Y27000D02*
X163000Y31600D01*
X131400Y27000D02*
X158400D01*
X163000Y31600D02*
X186672D01*
X130400Y29900D02*
X157400D01*
X161100Y33600D02*
X184978D01*
X157400Y29900D02*
X161100Y33600D01*
X156800Y32500D02*
X160600Y36300D01*
X129100Y32500D02*
X156800D01*
X160600Y36300D02*
X181700D01*
X128400Y35000D02*
X156200D01*
X160198Y38998D02*
X178580D01*
X156200Y35000D02*
X156300Y35100D01*
X157800Y36600D02*
X160198Y38998D01*
X156335Y35100D02*
X157800Y36564D01*
X156300Y35100D02*
X156335D01*
X157800Y36564D02*
Y36600D01*
X145186Y16300D02*
X160000D01*
X167300Y23600D02*
X196000D01*
X160000Y16300D02*
X167300Y23600D01*
X135000Y6114D02*
X145186Y16300D01*
X132100Y12100D02*
X139500Y19500D01*
X119073Y5573D02*
X135300Y21800D01*
X111700Y11700D02*
X120000D01*
X132500Y24200D01*
X119300Y14900D02*
X131400Y27000D01*
X104900Y14900D02*
X119300D01*
X97700Y17700D02*
X118200D01*
X130400Y29900D01*
X116800Y20200D02*
X129100Y32500D01*
X93500Y20200D02*
X116800D01*
X89000Y23000D02*
X116400D01*
X128400Y35000D01*
X85000Y5000D02*
X97700Y17700D01*
X95000Y5000D02*
X104900Y14900D01*
X105000Y5000D02*
X111700Y11700D01*
X115000Y5000D02*
X115573Y5573D01*
X119073D01*
X105200Y85900D02*
X120400Y70700D01*
X94100Y85900D02*
X105200D01*
X85000Y95000D02*
X94100Y85900D01*
X106400Y89100D02*
X121700Y73800D01*
X103800Y89100D02*
X106400D01*
X121700Y73800D02*
X157915D01*
X105400Y95000D02*
X123400Y77000D01*
X105000Y95000D02*
X105400D01*
X123400Y77000D02*
X157543D01*
X120400Y70700D02*
X158186D01*
X158000Y83300D02*
X168500Y72800D01*
X125000Y88200D02*
X129900Y83300D01*
X158000D01*
X115000Y89704D02*
X124604Y80100D01*
X157272D02*
X167272Y70100D01*
X124604Y80100D02*
X157272D01*
X157172Y61700D02*
X163672Y55200D01*
X79175Y90825D02*
X82528D01*
X75000Y95000D02*
X79175Y90825D01*
X184891Y37868D02*
X185159Y37600D01*
X184978Y33600D02*
X192678Y41300D01*
X196700D01*
X183950Y37868D02*
X184891D01*
X182818Y39000D02*
X183950Y37868D01*
X178118Y48899D02*
X183418Y54200D01*
X150699Y48899D02*
X178118D01*
X250872Y35700D02*
X260400Y26172D01*
Y20400D02*
Y26172D01*
X245000Y5000D02*
X260400Y20400D01*
X227200Y35700D02*
X250872D01*
X95000Y95000D02*
X95873Y94127D01*
X98773D02*
X103800Y89100D01*
X95873Y94127D02*
X98773D01*
X195518Y76300D02*
X208118Y63700D01*
X239518D02*
X243322Y67504D01*
X208118Y63700D02*
X239518D01*
X190000Y88300D02*
X192000Y86300D01*
X205215D01*
X180700Y88300D02*
X190000D01*
X166600Y80100D02*
X171900Y74800D01*
X185001D01*
X115000Y89704D02*
Y95000D01*
X65000D02*
X65200D01*
X178580Y38998D02*
X178582Y39000D01*
X182818D01*
X193672Y38600D02*
X199400D01*
X186672Y31600D02*
X193672Y38600D01*
X183418Y54200D02*
X208700D01*
X163672Y55200D02*
X172100D01*
X208700Y54200D02*
X227200Y35700D01*
X191168Y33268D02*
X204732D01*
X187500Y29600D02*
X191168Y33268D01*
X199843Y15500D02*
X208675D01*
X192289Y73600D02*
X193079D01*
X191489Y72800D02*
X192289Y73600D01*
X168500Y72800D02*
X191489D01*
X186501Y76300D02*
X195518D01*
X185001Y74800D02*
X186501Y76300D01*
X196582Y78300D02*
X202382Y72500D01*
X187558Y78300D02*
X196582D01*
X185558Y80300D02*
X187558Y78300D01*
X202518Y80300D02*
X206818Y76000D01*
X188386Y80300D02*
X202518D01*
X186386Y82300D02*
X188386Y80300D01*
X189215Y82300D02*
X203500D01*
X204386Y84300D02*
X208686Y80000D01*
X190043Y84300D02*
X204386D01*
X188043Y86300D02*
X190043Y84300D01*
X187215D02*
X189215Y82300D01*
X202382Y72500D02*
X216035D01*
X208686Y80000D02*
X222800D01*
X209515Y82000D02*
X225900D01*
X205215Y86300D02*
X209515Y82000D01*
X210343Y84000D02*
X230200D01*
X206043Y88300D02*
X210343Y84000D01*
X211172Y86000D02*
X232700D01*
X206872Y90300D02*
X211172Y86000D01*
X212000Y88000D02*
X235800D01*
X205000Y95000D02*
X212000Y88000D01*
X200000Y90300D02*
X206872D01*
X194800Y88300D02*
X206043D01*
X206818Y76000D02*
X217000D01*
X188873Y94227D02*
X194800Y88300D01*
X195300Y95000D02*
X200000Y90300D01*
X195000Y95000D02*
X195300D01*
X125000Y88200D02*
Y95000D01*
X167272Y70100D02*
X190200D01*
X171928Y82300D02*
X186386D01*
X165928Y88300D02*
X171928Y82300D01*
X171100Y80300D02*
X185558D01*
X165100Y86300D02*
X171100Y80300D01*
X172872Y84300D02*
X187215D01*
X166872Y90300D02*
X172872Y84300D01*
X173700Y86300D02*
X188043D01*
X165000Y95000D02*
X173700Y86300D01*
X175000Y94000D02*
X180700Y88300D01*
X217000Y76000D02*
X219500Y73500D01*
Y67579D02*
Y73500D01*
X226000Y67622D02*
Y76800D01*
X222800Y80000D02*
X226000Y76800D01*
X229500Y72579D02*
Y78400D01*
X225900Y82000D02*
X229500Y78400D01*
X232940Y67633D02*
Y81260D01*
X230200Y84000D02*
X232940Y81260D01*
X232700Y86000D02*
X236114Y82586D01*
Y72500D02*
Y82586D01*
X239504Y67504D02*
Y84296D01*
X235800Y88000D02*
X239504Y84296D01*
X237172Y90000D02*
X242807Y84364D01*
X220000Y90000D02*
X237172D01*
X242807Y72500D02*
Y84364D01*
X243322Y67504D02*
X246197D01*
X232811D02*
X232940Y67633D01*
X185000Y95000D02*
X185773Y94227D01*
X188873D01*
X175000Y94000D02*
Y95000D01*
X145000D02*
X151700Y88300D01*
X165928D01*
X143700Y86300D02*
X165100D01*
X135000Y95000D02*
X143700Y86300D01*
X189857Y27600D02*
X192179Y29921D01*
X132100Y12100D02*
X132100D01*
X125000Y5000D02*
X132100Y12100D01*
X155000Y5000D02*
X161700Y11700D01*
X155000Y5000D02*
X155000D01*
X145000D02*
X153700Y13700D01*
X135000Y5000D02*
Y6114D01*
X222772Y26985D02*
Y32496D01*
X185000Y5000D02*
X189738Y9738D01*
X246072Y27331D02*
X246240Y27500D01*
X219425Y67504D02*
X219500Y67579D01*
X155000Y95000D02*
X159700Y90300D01*
X166872D01*
X226000Y67622D02*
X226118Y67504D01*
X229421Y72500D02*
X229500Y72579D01*
X215000Y95000D02*
X220000Y90000D01*
X249500Y72500D02*
Y80500D01*
X235000Y95000D02*
X249500Y80500D01*
D53*
X22220Y95008D02*
D03*
Y60992D02*
D03*
X22248Y39000D02*
D03*
Y4984D02*
D03*
D54*
X6472Y95008D02*
D03*
Y60992D02*
D03*
X6500Y39000D02*
D03*
Y4984D02*
D03*
D63*
X32289Y78914D02*
X34598Y81223D01*
X39822D02*
X44584Y76461D01*
X34598Y81223D02*
X39822D01*
X35100Y78635D02*
X36266Y79800D01*
X39233D02*
X43994Y75038D01*
X36266Y79800D02*
X39233D01*
X35100Y78400D02*
Y78635D01*
X32289Y78914D02*
Y78914D01*
X31174Y77800D02*
X32289Y78914D01*
X30900Y77800D02*
X31174D01*
X44584Y76461D02*
X47861D01*
X43994Y75038D02*
X47861D01*
Y76461D02*
X49700Y78300D01*
X47861Y75038D02*
X49700Y73200D01*
D64*
X177886Y46403D02*
X179935Y48452D01*
X120958Y46403D02*
X177886D01*
X116753Y42199D02*
X120958Y46403D01*
X164789Y44989D02*
X164800Y45000D01*
X178467D02*
X180516Y47049D01*
X164800Y45000D02*
X178467D01*
X116077Y25692D02*
X130986Y40602D01*
X183482D01*
X81785Y25692D02*
X116077D01*
X115496Y27095D02*
X130404Y42004D01*
X91159Y27095D02*
X115496D01*
X130404Y42004D02*
X184063D01*
X187740Y40600D02*
X194388Y47249D01*
X183483Y40600D02*
X187740D01*
X187159Y42003D02*
X193807Y48651D01*
X184064Y42003D02*
X187159D01*
X184063Y42004D02*
X184064Y42003D01*
X180516Y47049D02*
X186649D01*
X179935Y48452D02*
X186648D01*
X193807Y48651D02*
X200151D01*
X201316Y51214D02*
X201502Y51400D01*
X201316Y49816D02*
Y51214D01*
X200151Y48651D02*
X201316Y49816D01*
X194388Y47249D02*
X200152D01*
X201558Y45842D01*
Y44844D02*
X201902Y44500D01*
X201558Y44844D02*
Y45842D01*
X183482Y40602D02*
X183483Y40600D01*
X187697Y49500D02*
X187900D01*
X186648Y48452D02*
X187697Y49500D01*
X187698Y46000D02*
X187901D01*
X48452Y19798D02*
X63183D01*
X47353Y18700D02*
X48452Y19798D01*
X47200Y18700D02*
X47353D01*
X48452Y21202D02*
X62602D01*
X47353Y22300D02*
X48452Y21202D01*
X47200Y22300D02*
X47353D01*
X73996Y32596D02*
X87596D01*
X74577Y31193D02*
X88177D01*
X62602Y21202D02*
X73996Y32596D01*
X63183Y19798D02*
X74577Y31193D01*
X88177D02*
X97780Y40795D01*
X87596Y32596D02*
X97198Y42199D01*
X116753D01*
X121528Y44989D02*
X164789D01*
X97780Y40795D02*
X117334D01*
X121528Y44989D01*
X186649Y47049D02*
X187698Y46000D01*
X91153Y27101D02*
X91159Y27095D01*
X89247Y27101D02*
X91153D01*
X89241Y27095D02*
X89247Y27101D01*
X81203Y27095D02*
X89241D01*
X75439Y21331D02*
X81203Y27095D01*
X74131Y21331D02*
X75439D01*
X73900Y21100D02*
X74131Y21331D01*
X76200Y18800D02*
X76431Y19031D01*
Y20339D01*
X81785Y25692D01*
D65*
X35000Y95000D02*
D03*
X45000D02*
D03*
X55000D02*
D03*
X65000D02*
D03*
X75000D02*
D03*
X85000D02*
D03*
X95000D02*
D03*
X105000D02*
D03*
X115000D02*
D03*
X125000D02*
D03*
X135000D02*
D03*
X145000D02*
D03*
X155000D02*
D03*
X165000D02*
D03*
X175000D02*
D03*
X185000D02*
D03*
X195000D02*
D03*
X205000D02*
D03*
X215000D02*
D03*
X225000D02*
D03*
X235000D02*
D03*
X245000D02*
D03*
X255000D02*
D03*
X75000Y5000D02*
D03*
X255000D02*
D03*
X245000D02*
D03*
X235000D02*
D03*
X225000D02*
D03*
X215000D02*
D03*
X205000D02*
D03*
X195000D02*
D03*
X185000D02*
D03*
X175000D02*
D03*
X165000D02*
D03*
X155000D02*
D03*
X145000D02*
D03*
X135000D02*
D03*
X125000D02*
D03*
X115000D02*
D03*
X105000D02*
D03*
X95000D02*
D03*
X85000D02*
D03*
X65000D02*
D03*
X55000D02*
D03*
X45000D02*
D03*
X35000D02*
D03*
D66*
X265000Y95000D02*
D03*
Y5000D02*
D03*
D67*
X37500Y50000D02*
D03*
Y45000D02*
D03*
X142500Y50000D02*
D03*
D68*
X37500Y55000D02*
D03*
D69*
X137500Y50000D02*
D03*
D70*
X83600Y83600D02*
D03*
X74677Y65623D02*
D03*
X199100Y60800D02*
D03*
X200300Y64800D02*
D03*
X175800Y56800D02*
D03*
X179700D02*
D03*
X29900Y57300D02*
D03*
X79225Y86125D02*
D03*
X249700Y89400D02*
D03*
X185159Y37600D02*
D03*
X150699Y48899D02*
D03*
X264000Y26600D02*
D03*
X252890Y27457D02*
D03*
X259500Y81500D02*
D03*
X97000Y88600D02*
D03*
X80700Y55500D02*
D03*
X95100Y68400D02*
D03*
X178100Y53300D02*
D03*
X61700Y64300D02*
D03*
X68500Y55000D02*
D03*
X64800Y49900D02*
D03*
X44600Y67000D02*
D03*
X93200Y56500D02*
D03*
X92925Y61525D02*
D03*
X48300Y69900D02*
D03*
X36800Y75300D02*
D03*
X35100Y78400D02*
D03*
X49700Y78300D02*
D03*
Y73200D02*
D03*
X45700Y80000D02*
D03*
X44900Y72700D02*
D03*
X30900Y77800D02*
D03*
X181700Y36300D02*
D03*
X155300Y37600D02*
D03*
X196700Y41300D02*
D03*
X187900Y49500D02*
D03*
X187901Y46000D02*
D03*
X184800Y51100D02*
D03*
X184600Y44600D02*
D03*
X28800Y61700D02*
D03*
X36100Y85600D02*
D03*
X29400Y90600D02*
D03*
X172100Y55200D02*
D03*
X183700Y57100D02*
D03*
X47200Y22300D02*
D03*
Y18700D02*
D03*
X205400Y44700D02*
D03*
Y51500D02*
D03*
X73900Y21100D02*
D03*
X76200Y18800D02*
D03*
X201502Y51400D02*
D03*
X205900Y22200D02*
D03*
X204732Y33268D02*
D03*
X199400Y38600D02*
D03*
X192400Y67200D02*
D03*
X193079Y73600D02*
D03*
X201800Y76900D02*
D03*
X188800Y59200D02*
D03*
X201902Y44500D02*
D03*
X70900Y23600D02*
D03*
X79800Y19600D02*
D03*
X31500Y42500D02*
D03*
X28500Y39500D02*
D03*
X50500Y37000D02*
D03*
X46500Y25500D02*
D03*
X45500Y15500D02*
D03*
X36500Y23000D02*
D03*
Y16000D02*
D03*
X29000Y9000D02*
D03*
X51000Y15500D02*
D03*
X58500D02*
D03*
X55000D02*
D03*
X50500Y29000D02*
D03*
X55000D02*
D03*
X59500D02*
D03*
X100000Y44500D02*
D03*
X108000Y44700D02*
D03*
X112000D02*
D03*
X116000D02*
D03*
X104000D02*
D03*
X100000Y38000D02*
D03*
X108000Y38200D02*
D03*
X112000D02*
D03*
X116000D02*
D03*
X104000D02*
D03*
Y31000D02*
D03*
X116000D02*
D03*
X112000D02*
D03*
X108000D02*
D03*
X100000Y30800D02*
D03*
X123800Y40200D02*
D03*
X69000Y75000D02*
D03*
X72900D02*
D03*
Y78800D02*
D03*
X69000Y78900D02*
D03*
X65400Y89500D02*
D03*
X49100Y85000D02*
D03*
X79300Y50500D02*
D03*
X78700Y59000D02*
D03*
X154500Y59100D02*
D03*
X97100Y79300D02*
D03*
X131600Y87800D02*
D03*
X162600Y83300D02*
D03*
X182700Y77500D02*
D03*
X190200Y70100D02*
D03*
X166600Y80100D02*
D03*
X192179Y29921D02*
D03*
X168200Y16400D02*
D03*
X169000Y20900D02*
D03*
X267100Y18700D02*
D03*
X255000Y89400D02*
D03*
X245500Y89000D02*
D03*
X242800Y53300D02*
D03*
Y46700D02*
D03*
X236300D02*
D03*
Y53200D02*
D03*
X239504Y61000D02*
D03*
X250504Y56496D02*
D03*
Y50000D02*
D03*
Y43504D02*
D03*
X239504Y39000D02*
D03*
X228504Y43504D02*
D03*
Y50000D02*
D03*
X228500Y56500D02*
D03*
X259583Y74000D02*
D03*
X263504Y73425D02*
D03*
Y70079D02*
D03*
Y66732D02*
D03*
Y63386D02*
D03*
Y60039D02*
D03*
Y56693D02*
D03*
Y53347D02*
D03*
Y50000D02*
D03*
Y46654D02*
D03*
Y43307D02*
D03*
Y39961D02*
D03*
Y36614D02*
D03*
Y33268D02*
D03*
Y29921D02*
D03*
X256236Y26000D02*
D03*
X246197Y67504D02*
D03*
X216035Y72500D02*
D03*
X216193Y32555D02*
D03*
X246240Y27500D02*
D03*
X249543Y32496D02*
D03*
X239547Y27500D02*
D03*
X242850Y32496D02*
D03*
X232854Y27500D02*
D03*
X236157Y32496D02*
D03*
X226161Y27500D02*
D03*
X229465Y32496D02*
D03*
X219468Y27500D02*
D03*
X222772Y32496D02*
D03*
X222728Y72500D02*
D03*
X219425Y67504D02*
D03*
X229421Y72500D02*
D03*
X226118Y67504D02*
D03*
X236114Y72500D02*
D03*
X232811Y67504D02*
D03*
X239504D02*
D03*
X242807Y72500D02*
D03*
X249500D02*
D03*
D71*
X78800Y75243D02*
Y85700D01*
X73179Y69623D02*
X78800Y75243D01*
Y85700D02*
X79225Y86125D01*
X67698Y64300D02*
X73021Y69623D01*
X61700Y64300D02*
X67698D01*
X73021Y69623D02*
X73179D01*
X50300Y50000D02*
X64800D01*
X51200Y50900D02*
Y66600D01*
X55000Y70400D02*
Y95000D01*
X51200Y66600D02*
X55000Y70400D01*
X50300Y50000D02*
X51200Y50900D01*
X37500Y50000D02*
X50300D01*
M02*
