G04*
G04 #@! TF.GenerationSoftware,Altium Limited,Altium Designer,20.2.8 (258)*
G04*
G04 Layer_Physical_Order=2*
G04 Layer_Color=36540*
%FSLAX25Y25*%
%MOIN*%
G70*
G04*
G04 #@! TF.SameCoordinates,B9B06CBA-7B7C-4559-A748-5793C5333A8F*
G04*
G04*
G04 #@! TF.FilePolarity,Positive*
G04*
G01*
G75*
G04:AMPARAMS|DCode=53|XSize=39.37mil|YSize=70.87mil|CornerRadius=19.68mil|HoleSize=0mil|Usage=FLASHONLY|Rotation=270.000|XOffset=0mil|YOffset=0mil|HoleType=Round|Shape=RoundedRectangle|*
%AMROUNDEDRECTD53*
21,1,0.03937,0.03150,0,0,270.0*
21,1,0.00000,0.07087,0,0,270.0*
1,1,0.03937,-0.01575,0.00000*
1,1,0.03937,-0.01575,0.00000*
1,1,0.03937,0.01575,0.00000*
1,1,0.03937,0.01575,0.00000*
%
%ADD53ROUNDEDRECTD53*%
G04:AMPARAMS|DCode=54|XSize=39.37mil|YSize=86.61mil|CornerRadius=19.68mil|HoleSize=0mil|Usage=FLASHONLY|Rotation=270.000|XOffset=0mil|YOffset=0mil|HoleType=Round|Shape=RoundedRectangle|*
%AMROUNDEDRECTD54*
21,1,0.03937,0.04724,0,0,270.0*
21,1,0.00000,0.08661,0,0,270.0*
1,1,0.03937,-0.02362,0.00000*
1,1,0.03937,-0.02362,0.00000*
1,1,0.03937,0.02362,0.00000*
1,1,0.03937,0.02362,0.00000*
%
%ADD54ROUNDEDRECTD54*%
%ADD60C,0.01500*%
%ADD61C,0.02000*%
%ADD65C,0.06400*%
%ADD66R,0.06400X0.06400*%
%ADD67C,0.04000*%
%ADD69R,0.04000X0.04000*%
%ADD70C,0.02400*%
%ADD71C,0.04000*%
%ADD72C,0.06000*%
G36*
X268200Y91816D02*
X261816D01*
Y98200D01*
X268200D01*
Y91816D01*
D02*
G37*
G36*
X92030Y97700D02*
X91506Y97017D01*
X91103Y96044D01*
X90965Y95000D01*
X91103Y93956D01*
X91344Y93373D01*
X91188Y92923D01*
X91077Y92849D01*
X90962Y92782D01*
X90946Y92761D01*
X90923Y92746D01*
X90849Y92635D01*
X90768Y92530D01*
X90761Y92504D01*
X90746Y92481D01*
X90720Y92351D01*
X90686Y92223D01*
X90690Y92196D01*
X90684Y92169D01*
Y91343D01*
X90569Y91328D01*
X89888Y91046D01*
X89303Y90597D01*
X85803Y87097D01*
X85354Y86512D01*
X85072Y85831D01*
X85047Y85640D01*
X84511Y85397D01*
X84380Y85484D01*
X83600Y85639D01*
X82820Y85484D01*
X82158Y85042D01*
X81716Y84380D01*
X81561Y83600D01*
X81716Y82820D01*
X82158Y82158D01*
X82820Y81716D01*
X83600Y81561D01*
X84380Y81716D01*
X84535Y81819D01*
X84976Y81584D01*
Y55970D01*
X82330Y53324D01*
X79300D01*
X78569Y53228D01*
X77888Y52946D01*
X77303Y52497D01*
X76854Y51912D01*
X76572Y51231D01*
X76476Y50500D01*
X76572Y49769D01*
X76854Y49088D01*
X77303Y48503D01*
X77888Y48054D01*
X78569Y47772D01*
X79300Y47676D01*
X83500D01*
X84231Y47772D01*
X84912Y48054D01*
X85497Y48503D01*
X89797Y52803D01*
X90246Y53388D01*
X90528Y54069D01*
X90624Y54800D01*
Y82039D01*
X91124Y82289D01*
X91188Y82246D01*
X91500Y82184D01*
X98162D01*
X119923Y60423D01*
X120188Y60246D01*
X120500Y60184D01*
X120500Y60184D01*
X132162Y60184D01*
X139047Y53300D01*
X138839Y52800D01*
X137683D01*
X137500Y52824D01*
X137317Y52800D01*
X134700D01*
Y50183D01*
X134676Y50000D01*
Y45696D01*
X106612Y17633D01*
X78381D01*
X78106Y18133D01*
X78239Y18800D01*
X78084Y19580D01*
X77642Y20242D01*
X76980Y20684D01*
X76390Y20801D01*
X76096Y20996D01*
X75902Y21290D01*
X75784Y21880D01*
X75342Y22542D01*
X74680Y22984D01*
X73900Y23139D01*
X73120Y22984D01*
X72458Y22542D01*
X72016Y21880D01*
X71861Y21100D01*
X72016Y20320D01*
X72458Y19658D01*
X73120Y19216D01*
X73710Y19098D01*
X74004Y18904D01*
X74199Y18610D01*
X74294Y18133D01*
X74019Y17633D01*
X71316D01*
Y21640D01*
X71300Y21719D01*
Y21800D01*
X71269Y21874D01*
X71254Y21952D01*
X71209Y22019D01*
X71178Y22094D01*
X71121Y22150D01*
X71077Y22217D01*
X71010Y22262D01*
X70953Y22319D01*
X70879Y22349D01*
X70812Y22394D01*
X70733Y22410D01*
X70659Y22440D01*
X70438Y22484D01*
X70297Y22578D01*
X70223Y22609D01*
X70157Y22654D01*
X70078Y22669D01*
X70003Y22700D01*
X69923D01*
X69844Y22716D01*
X49600D01*
X49085Y23074D01*
X49084Y23080D01*
X48642Y23742D01*
X47980Y24184D01*
X47200Y24339D01*
X46420Y24184D01*
X45758Y23742D01*
X45316Y23080D01*
X45161Y22300D01*
X45316Y21520D01*
X45758Y20858D01*
X45920Y20750D01*
Y20250D01*
X45758Y20142D01*
X45316Y19480D01*
X45161Y18700D01*
X45316Y17920D01*
X45758Y17258D01*
X46420Y16816D01*
X47200Y16661D01*
X47980Y16816D01*
X48284Y17019D01*
X48784Y16752D01*
Y10700D01*
X48846Y10388D01*
X49023Y10123D01*
X49288Y9946D01*
X49600Y9884D01*
X70500D01*
X70812Y9946D01*
X70843Y9967D01*
X108200D01*
X109192Y10098D01*
X110116Y10481D01*
X110910Y11090D01*
X140110Y40290D01*
X140719Y41084D01*
X141102Y42008D01*
X141233Y43000D01*
X141102Y43992D01*
X140719Y44916D01*
X140324Y45431D01*
Y46784D01*
X144800Y46784D01*
X145112Y46846D01*
X145377Y47023D01*
X145554Y47288D01*
X145616Y47600D01*
X145616Y61462D01*
X152838Y68684D01*
X171500D01*
X171812Y68746D01*
X172077Y68923D01*
X172077Y68923D01*
X175838Y72684D01*
X186000D01*
X186312Y72746D01*
X186577Y72923D01*
X186577Y72923D01*
X191838Y78184D01*
X250662D01*
X252684Y76162D01*
X252684Y59000D01*
Y55000D01*
Y29375D01*
X252700Y29296D01*
Y29215D01*
X252731Y29141D01*
X252746Y29062D01*
X252791Y28996D01*
X252822Y28921D01*
X252879Y28864D01*
X252923Y28798D01*
X252990Y28753D01*
X253047Y28696D01*
X253121Y28666D01*
X253188Y28621D01*
X253267Y28605D01*
X253341Y28574D01*
X253352Y28572D01*
X253744Y28310D01*
X254005Y27919D01*
X254028Y27805D01*
X254059Y27731D01*
X254074Y27652D01*
X254119Y27585D01*
X254150Y27511D01*
X254207Y27455D01*
X254251Y27388D01*
X254318Y27343D01*
X254375Y27286D01*
X254449Y27255D01*
X254516Y27211D01*
X254978Y27020D01*
X255057Y27004D01*
X255131Y26973D01*
X255211D01*
X255290Y26957D01*
X255369Y26973D01*
X255449D01*
X255523Y27004D01*
X255602Y27020D01*
X255669Y27064D01*
X255743Y27095D01*
X255774Y27116D01*
X256236Y27207D01*
X256698Y27116D01*
X257090Y26854D01*
X257352Y26462D01*
X257444Y26000D01*
X257352Y25538D01*
X257090Y25146D01*
X256698Y24884D01*
X256236Y24792D01*
X255774Y24884D01*
X255382Y25146D01*
X255103Y25563D01*
X255099Y25574D01*
X255087Y25644D01*
X255039Y25719D01*
X255005Y25802D01*
X254954Y25852D01*
X254916Y25912D01*
X254843Y25964D01*
X254780Y26027D01*
X254714Y26054D01*
X254655Y26095D01*
X254170Y26309D01*
X254109Y26322D01*
X254054Y26350D01*
X253955Y26357D01*
X253859Y26378D01*
X253798Y26367D01*
X253736Y26371D01*
X253643Y26340D01*
X253545Y26323D01*
X253493Y26289D01*
X253435Y26270D01*
X253094Y26074D01*
X253013Y26003D01*
X252923Y25943D01*
X252894Y25899D01*
X252854Y25864D01*
X252806Y25768D01*
X252746Y25679D01*
X252736Y25627D01*
X252713Y25579D01*
X252705Y25472D01*
X252684Y25366D01*
Y19316D01*
X238333Y19316D01*
X238297Y19308D01*
X238260Y19312D01*
X238142Y19277D01*
X238021Y19254D01*
X237990Y19233D01*
X237954Y19222D01*
X237859Y19145D01*
X237757Y19077D01*
X237736Y19046D01*
X237707Y19022D01*
X230373Y10222D01*
X230315Y10114D01*
X230246Y10012D01*
X230239Y9975D01*
X230221Y9943D01*
X230208Y9821D01*
X230184Y9700D01*
Y7102D01*
X230200Y7023D01*
Y6943D01*
X230231Y6869D01*
X230246Y6790D01*
X230291Y6723D01*
X230322Y6649D01*
X230379Y6592D01*
X230423Y6525D01*
X230490Y6481D01*
X230547Y6424D01*
X230621Y6393D01*
X230688Y6349D01*
X231103Y6044D01*
X230965Y5000D01*
X231103Y3956D01*
X231506Y2983D01*
X232092Y2219D01*
X231966Y1718D01*
X228019Y1709D01*
X227900Y2209D01*
X228494Y2983D01*
X228897Y3956D01*
X229034Y5000D01*
X228897Y6044D01*
X228494Y7017D01*
X227853Y7853D01*
X227017Y8494D01*
X226044Y8897D01*
X225000Y9035D01*
X223956Y8897D01*
X222983Y8494D01*
X222147Y7853D01*
X221506Y7017D01*
X221103Y6044D01*
X220966Y5000D01*
X221103Y3956D01*
X221506Y2983D01*
X222110Y2196D01*
X222022Y1777D01*
X221994Y1696D01*
X218010Y1687D01*
X217940Y1892D01*
X217883Y2187D01*
X218494Y2983D01*
X218897Y3956D01*
X219035Y5000D01*
X218897Y6044D01*
X218494Y7017D01*
X217853Y7853D01*
X217017Y8494D01*
X216044Y8897D01*
X215000Y9035D01*
X213956Y8897D01*
X212983Y8494D01*
X212147Y7853D01*
X211506Y7017D01*
X211103Y6044D01*
X210965Y5000D01*
X211103Y3956D01*
X211506Y2983D01*
X212127Y2174D01*
X212098Y2002D01*
X211987Y1673D01*
X208002Y1664D01*
X207892Y1985D01*
X207866Y2164D01*
X208494Y2983D01*
X208897Y3956D01*
X209034Y5000D01*
X208897Y6044D01*
X208494Y7017D01*
X207853Y7853D01*
X207017Y8494D01*
X206044Y8897D01*
X205000Y9035D01*
X203956Y8897D01*
X202983Y8494D01*
X202147Y7853D01*
X201506Y7017D01*
X201103Y6044D01*
X200965Y5000D01*
X201103Y3956D01*
X201506Y2983D01*
X202147Y2147D01*
X202177Y2125D01*
X202017Y1651D01*
X197972Y1642D01*
X197811Y2115D01*
X197853Y2147D01*
X198494Y2983D01*
X198897Y3956D01*
X199035Y5000D01*
X198897Y6044D01*
X198494Y7017D01*
X197853Y7853D01*
X197017Y8494D01*
X196044Y8897D01*
X195000Y9035D01*
X193956Y8897D01*
X192983Y8494D01*
X192147Y7853D01*
X191506Y7017D01*
X191103Y6044D01*
X190965Y5000D01*
X191103Y3956D01*
X191506Y2983D01*
X192147Y2147D01*
X192206Y2102D01*
X192046Y1628D01*
X187943Y1619D01*
X187782Y2092D01*
X187853Y2147D01*
X188494Y2983D01*
X188897Y3956D01*
X189034Y5000D01*
X188897Y6044D01*
X188494Y7017D01*
X187853Y7853D01*
X187017Y8494D01*
X186044Y8897D01*
X185000Y9035D01*
X183956Y8897D01*
X182983Y8494D01*
X182147Y7853D01*
X181506Y7017D01*
X181103Y6044D01*
X180965Y5000D01*
X181103Y3956D01*
X181506Y2983D01*
X182147Y2147D01*
X182235Y2080D01*
X182075Y1606D01*
X177913Y1596D01*
X177752Y2070D01*
X177853Y2147D01*
X178494Y2983D01*
X178897Y3956D01*
X179034Y5000D01*
X178897Y6044D01*
X178494Y7017D01*
X177853Y7853D01*
X177017Y8494D01*
X176044Y8897D01*
X175000Y9035D01*
X173956Y8897D01*
X172983Y8494D01*
X172147Y7853D01*
X171506Y7017D01*
X171103Y6044D01*
X170966Y5000D01*
X171103Y3956D01*
X171506Y2983D01*
X172147Y2147D01*
X172265Y2057D01*
X172104Y1583D01*
X167884Y1574D01*
X167722Y2047D01*
X167853Y2147D01*
X168494Y2983D01*
X168897Y3956D01*
X169035Y5000D01*
X168897Y6044D01*
X168494Y7017D01*
X167853Y7853D01*
X167017Y8494D01*
X166044Y8897D01*
X165000Y9035D01*
X163956Y8897D01*
X162983Y8494D01*
X162147Y7853D01*
X161506Y7017D01*
X161103Y6044D01*
X160966Y5000D01*
X161103Y3956D01*
X161506Y2983D01*
X162147Y2147D01*
X162294Y2035D01*
X162134Y1561D01*
X157854Y1551D01*
X157693Y2025D01*
X157853Y2147D01*
X158494Y2983D01*
X158897Y3956D01*
X159035Y5000D01*
X158897Y6044D01*
X158494Y7017D01*
X157853Y7853D01*
X157017Y8494D01*
X156044Y8897D01*
X155000Y9035D01*
X153956Y8897D01*
X152983Y8494D01*
X152147Y7853D01*
X151506Y7017D01*
X151103Y6044D01*
X150965Y5000D01*
X151103Y3956D01*
X151506Y2983D01*
X152147Y2147D01*
X152323Y2012D01*
X152163Y1538D01*
X147825Y1529D01*
X147664Y2002D01*
X147853Y2147D01*
X148494Y2983D01*
X148897Y3956D01*
X149035Y5000D01*
X148897Y6044D01*
X148494Y7017D01*
X147853Y7853D01*
X147017Y8494D01*
X146044Y8897D01*
X145000Y9035D01*
X143956Y8897D01*
X142983Y8494D01*
X142147Y7853D01*
X141506Y7017D01*
X141103Y6044D01*
X140965Y5000D01*
X141103Y3956D01*
X141506Y2983D01*
X142147Y2147D01*
X142352Y1990D01*
X142192Y1516D01*
X137839Y1506D01*
X137669Y2006D01*
X137853Y2147D01*
X138494Y2983D01*
X138897Y3956D01*
X139034Y5000D01*
X138897Y6044D01*
X138494Y7017D01*
X137853Y7853D01*
X137017Y8494D01*
X136044Y8897D01*
X135000Y9035D01*
X133956Y8897D01*
X132983Y8494D01*
X132147Y7853D01*
X131506Y7017D01*
X131103Y6044D01*
X130965Y5000D01*
X131103Y3956D01*
X131506Y2983D01*
X132147Y2147D01*
X132347Y1994D01*
X132178Y1493D01*
X127809Y1484D01*
X127639Y1983D01*
X127853Y2147D01*
X128494Y2983D01*
X128897Y3956D01*
X129034Y5000D01*
X128897Y6044D01*
X128494Y7017D01*
X127853Y7853D01*
X127017Y8494D01*
X126044Y8897D01*
X125000Y9035D01*
X123956Y8897D01*
X122983Y8494D01*
X122147Y7853D01*
X121506Y7017D01*
X121103Y6044D01*
X120966Y5000D01*
X121103Y3956D01*
X121506Y2983D01*
X122147Y2147D01*
X122376Y1971D01*
X122207Y1471D01*
X117780Y1461D01*
X117610Y1961D01*
X117853Y2147D01*
X118494Y2983D01*
X118897Y3956D01*
X119035Y5000D01*
X118897Y6044D01*
X118494Y7017D01*
X117853Y7853D01*
X117017Y8494D01*
X116044Y8897D01*
X115000Y9035D01*
X113956Y8897D01*
X112983Y8494D01*
X112147Y7853D01*
X111506Y7017D01*
X111103Y6044D01*
X110966Y5000D01*
X111103Y3956D01*
X111506Y2983D01*
X112147Y2147D01*
X112406Y1949D01*
X112236Y1448D01*
X107750Y1438D01*
X107580Y1938D01*
X107853Y2147D01*
X108494Y2983D01*
X108897Y3956D01*
X109035Y5000D01*
X108897Y6044D01*
X108494Y7017D01*
X107853Y7853D01*
X107017Y8494D01*
X106044Y8897D01*
X105000Y9035D01*
X103956Y8897D01*
X102983Y8494D01*
X102147Y7853D01*
X101506Y7017D01*
X101103Y6044D01*
X100965Y5000D01*
X101103Y3956D01*
X101506Y2983D01*
X102147Y2147D01*
X102435Y1926D01*
X102266Y1426D01*
X97721Y1416D01*
X97551Y1915D01*
X97853Y2147D01*
X98494Y2983D01*
X98897Y3956D01*
X99035Y5000D01*
X98897Y6044D01*
X98494Y7017D01*
X97853Y7853D01*
X97017Y8494D01*
X96044Y8897D01*
X95000Y9035D01*
X93956Y8897D01*
X92983Y8494D01*
X92147Y7853D01*
X91506Y7017D01*
X91103Y6044D01*
X90965Y5000D01*
X91103Y3956D01*
X91506Y2983D01*
X92147Y2147D01*
X92464Y1904D01*
X92295Y1403D01*
X87691Y1393D01*
X87521Y1893D01*
X87853Y2147D01*
X88494Y2983D01*
X88897Y3956D01*
X89034Y5000D01*
X88897Y6044D01*
X88494Y7017D01*
X87853Y7853D01*
X87017Y8494D01*
X86044Y8897D01*
X85000Y9035D01*
X83956Y8897D01*
X82983Y8494D01*
X82147Y7853D01*
X81506Y7017D01*
X81103Y6044D01*
X80966Y5000D01*
X81103Y3956D01*
X81506Y2983D01*
X82147Y2147D01*
X82494Y1881D01*
X82324Y1381D01*
X77662Y1371D01*
X77492Y1870D01*
X77853Y2147D01*
X78494Y2983D01*
X78897Y3956D01*
X79035Y5000D01*
X78897Y6044D01*
X78494Y7017D01*
X77853Y7853D01*
X77017Y8494D01*
X76044Y8897D01*
X75000Y9035D01*
X73956Y8897D01*
X72983Y8494D01*
X72147Y7853D01*
X71506Y7017D01*
X71103Y6044D01*
X70965Y5000D01*
X71103Y3956D01*
X71506Y2983D01*
X72147Y2147D01*
X72523Y1859D01*
X72354Y1359D01*
X67633Y1348D01*
X67462Y1848D01*
X67853Y2147D01*
X68494Y2983D01*
X68897Y3956D01*
X69034Y5000D01*
X68897Y6044D01*
X68494Y7017D01*
X67853Y7853D01*
X67017Y8494D01*
X66044Y8897D01*
X65000Y9035D01*
X63956Y8897D01*
X62983Y8494D01*
X62147Y7853D01*
X61506Y7017D01*
X61103Y6044D01*
X60966Y5000D01*
X61103Y3956D01*
X61506Y2983D01*
X62147Y2147D01*
X62552Y1836D01*
X62383Y1336D01*
X57603Y1325D01*
X57433Y1825D01*
X57853Y2147D01*
X58494Y2983D01*
X58897Y3956D01*
X59035Y5000D01*
X58897Y6044D01*
X58494Y7017D01*
X57853Y7853D01*
X57017Y8494D01*
X56044Y8897D01*
X55000Y9035D01*
X53956Y8897D01*
X52983Y8494D01*
X52147Y7853D01*
X51506Y7017D01*
X51103Y6044D01*
X50965Y5000D01*
X51103Y3956D01*
X51506Y2983D01*
X52147Y2147D01*
X52581Y1814D01*
X52412Y1314D01*
X47574Y1303D01*
X47403Y1802D01*
X47853Y2147D01*
X48494Y2983D01*
X48897Y3956D01*
X49035Y5000D01*
X48897Y6044D01*
X48494Y7017D01*
X47853Y7853D01*
X47017Y8494D01*
X46044Y8897D01*
X45000Y9035D01*
X43956Y8897D01*
X42983Y8494D01*
X42147Y7853D01*
X41506Y7017D01*
X41103Y6044D01*
X40966Y5000D01*
X41103Y3956D01*
X41506Y2983D01*
X42147Y2147D01*
X42611Y1791D01*
X42441Y1291D01*
X2354Y1201D01*
X2000Y1554D01*
Y98159D01*
X2100Y98200D01*
X31825D01*
X32030Y97700D01*
X31506Y97017D01*
X31103Y96044D01*
X30966Y95000D01*
X31103Y93956D01*
X31506Y92983D01*
X32147Y92147D01*
X32983Y91506D01*
X33956Y91103D01*
X35000Y90965D01*
X36044Y91103D01*
X37017Y91506D01*
X37853Y92147D01*
X38494Y92983D01*
X38897Y93956D01*
X39035Y95000D01*
X38897Y96044D01*
X38494Y97017D01*
X37970Y97700D01*
X38175Y98200D01*
X51825D01*
X52030Y97700D01*
X51506Y97017D01*
X51103Y96044D01*
X50965Y95000D01*
X51103Y93956D01*
X51506Y92983D01*
X52147Y92147D01*
X52983Y91506D01*
X53956Y91103D01*
X55000Y90965D01*
X56044Y91103D01*
X57017Y91506D01*
X57853Y92147D01*
X58494Y92983D01*
X58897Y93956D01*
X59035Y95000D01*
X58897Y96044D01*
X58494Y97017D01*
X57970Y97700D01*
X58175Y98200D01*
X61825D01*
X62030Y97700D01*
X61506Y97017D01*
X61103Y96044D01*
X60966Y95000D01*
X61103Y93956D01*
X61506Y92983D01*
X62147Y92147D01*
X62983Y91506D01*
X63956Y91103D01*
X65000Y90965D01*
X66044Y91103D01*
X67017Y91506D01*
X67853Y92147D01*
X68494Y92983D01*
X68897Y93956D01*
X69034Y95000D01*
X68897Y96044D01*
X68494Y97017D01*
X67970Y97700D01*
X68175Y98200D01*
X71825D01*
X72030Y97700D01*
X71506Y97017D01*
X71103Y96044D01*
X70965Y95000D01*
X71103Y93956D01*
X71506Y92983D01*
X72147Y92147D01*
X72983Y91506D01*
X73956Y91103D01*
X75000Y90965D01*
X76044Y91103D01*
X77017Y91506D01*
X77853Y92147D01*
X78494Y92983D01*
X78897Y93956D01*
X79035Y95000D01*
X78897Y96044D01*
X78494Y97017D01*
X77970Y97700D01*
X78175Y98200D01*
X81825D01*
X82030Y97700D01*
X81506Y97017D01*
X81103Y96044D01*
X80966Y95000D01*
X81103Y93956D01*
X81506Y92983D01*
X82147Y92147D01*
X82983Y91506D01*
X83956Y91103D01*
X85000Y90965D01*
X86044Y91103D01*
X87017Y91506D01*
X87853Y92147D01*
X88494Y92983D01*
X88897Y93956D01*
X89034Y95000D01*
X88897Y96044D01*
X88494Y97017D01*
X87970Y97700D01*
X88175Y98200D01*
X91825D01*
X92030Y97700D01*
D02*
G37*
G36*
X261000Y91000D02*
X268200D01*
X268200Y20926D01*
X267700Y20620D01*
X267100Y20739D01*
X266320Y20584D01*
X265658Y20142D01*
X265216Y19480D01*
X265061Y18700D01*
X265216Y17920D01*
X265658Y17258D01*
X266320Y16816D01*
X267100Y16661D01*
X267700Y16780D01*
X268200Y16474D01*
X268200Y1800D01*
X258175D01*
X257970Y2300D01*
X258494Y2983D01*
X258897Y3956D01*
X259034Y5000D01*
X258897Y6044D01*
X258494Y7017D01*
X257853Y7853D01*
X257017Y8494D01*
X256044Y8897D01*
X255000Y9035D01*
X253956Y8897D01*
X252983Y8494D01*
X252147Y7853D01*
X251506Y7017D01*
X251103Y6044D01*
X250965Y5000D01*
X251103Y3956D01*
X251506Y2983D01*
X252030Y2300D01*
X251825Y1800D01*
X248175Y1800D01*
X247970Y2300D01*
X248494Y2983D01*
X248897Y3956D01*
X249035Y5000D01*
X248897Y6044D01*
X248494Y7017D01*
X247853Y7853D01*
X247017Y8494D01*
X246044Y8897D01*
X245000Y9035D01*
X243956Y8897D01*
X242983Y8494D01*
X242147Y7853D01*
X241506Y7017D01*
X241103Y6044D01*
X240966Y5000D01*
X241103Y3956D01*
X241506Y2983D01*
X242030Y2300D01*
X241825Y1800D01*
X238175D01*
X237970Y2300D01*
X238494Y2983D01*
X238897Y3956D01*
X239035Y5000D01*
X238897Y6044D01*
X238494Y7017D01*
X237853Y7853D01*
X237017Y8494D01*
X236044Y8897D01*
X235000Y9035D01*
X233956Y8897D01*
X232983Y8494D01*
X232147Y7853D01*
X231506Y7017D01*
X231500Y7003D01*
X231000Y7102D01*
Y9700D01*
X238333Y18500D01*
X253500Y18500D01*
Y25366D01*
X253841Y25562D01*
X254327Y25349D01*
X254352Y25220D01*
X254794Y24558D01*
X255456Y24116D01*
X256236Y23961D01*
X257017Y24116D01*
X257678Y24558D01*
X258120Y25220D01*
X258275Y26000D01*
X258120Y26780D01*
X257678Y27442D01*
X257017Y27884D01*
X256236Y28039D01*
X255456Y27884D01*
X255290Y27773D01*
X254828Y27964D01*
X254774Y28237D01*
X254332Y28899D01*
X253670Y29341D01*
X253500Y29375D01*
Y55000D01*
Y59000D01*
X253500Y76500D01*
X251000Y79000D01*
X191500D01*
X186000Y73500D01*
X175500D01*
X171500Y69500D01*
X152500D01*
X144800Y61800D01*
X144800Y47600D01*
X140324Y47600D01*
Y50000D01*
X140300Y50183D01*
X140300Y53200D01*
X132500Y61000D01*
X120500Y61000D01*
X98500Y83000D01*
X91500D01*
X91500Y92169D01*
X92000Y92339D01*
X92147Y92147D01*
X92983Y91506D01*
X93956Y91103D01*
X95000Y90965D01*
X96044Y91103D01*
X97017Y91506D01*
X97853Y92147D01*
X98494Y92983D01*
X98897Y93956D01*
X99035Y95000D01*
X98897Y96044D01*
X98494Y97017D01*
X97970Y97700D01*
X98175Y98200D01*
X101825D01*
X102030Y97700D01*
X101506Y97017D01*
X101103Y96044D01*
X100965Y95000D01*
X101103Y93956D01*
X101506Y92983D01*
X102147Y92147D01*
X102983Y91506D01*
X103956Y91103D01*
X105000Y90965D01*
X106044Y91103D01*
X107017Y91506D01*
X107853Y92147D01*
X108494Y92983D01*
X108897Y93956D01*
X109035Y95000D01*
X108897Y96044D01*
X108494Y97017D01*
X107970Y97700D01*
X108175Y98200D01*
X111825D01*
X112030Y97700D01*
X111506Y97017D01*
X111103Y96044D01*
X110966Y95000D01*
X111103Y93956D01*
X111506Y92983D01*
X112147Y92147D01*
X112983Y91506D01*
X113956Y91103D01*
X115000Y90965D01*
X116044Y91103D01*
X117017Y91506D01*
X117853Y92147D01*
X118494Y92983D01*
X118897Y93956D01*
X119035Y95000D01*
X118897Y96044D01*
X118494Y97017D01*
X117970Y97700D01*
X118175Y98200D01*
X121825Y98200D01*
X122030Y97700D01*
X121506Y97017D01*
X121103Y96044D01*
X120966Y95000D01*
X121103Y93956D01*
X121506Y92983D01*
X122147Y92147D01*
X122983Y91506D01*
X123956Y91103D01*
X125000Y90965D01*
X126044Y91103D01*
X127017Y91506D01*
X127853Y92147D01*
X128494Y92983D01*
X128897Y93956D01*
X129034Y95000D01*
X128897Y96044D01*
X128494Y97017D01*
X127970Y97700D01*
X128175Y98200D01*
X131825D01*
X132030Y97700D01*
X131506Y97017D01*
X131103Y96044D01*
X130965Y95000D01*
X131103Y93956D01*
X131506Y92983D01*
X132147Y92147D01*
X132983Y91506D01*
X133956Y91103D01*
X135000Y90965D01*
X136044Y91103D01*
X137017Y91506D01*
X137853Y92147D01*
X138494Y92983D01*
X138897Y93956D01*
X139034Y95000D01*
X138897Y96044D01*
X138494Y97017D01*
X137970Y97700D01*
X138175Y98200D01*
X141825D01*
X142030Y97700D01*
X141506Y97017D01*
X141103Y96044D01*
X140965Y95000D01*
X141103Y93956D01*
X141506Y92983D01*
X142147Y92147D01*
X142983Y91506D01*
X143956Y91103D01*
X145000Y90965D01*
X146044Y91103D01*
X147017Y91506D01*
X147853Y92147D01*
X148494Y92983D01*
X148897Y93956D01*
X149035Y95000D01*
X148897Y96044D01*
X148494Y97017D01*
X147970Y97700D01*
X148175Y98200D01*
X151825D01*
X152030Y97700D01*
X151506Y97017D01*
X151103Y96044D01*
X150965Y95000D01*
X151103Y93956D01*
X151506Y92983D01*
X152147Y92147D01*
X152983Y91506D01*
X153956Y91103D01*
X155000Y90965D01*
X156044Y91103D01*
X157017Y91506D01*
X157853Y92147D01*
X158494Y92983D01*
X158897Y93956D01*
X159035Y95000D01*
X158897Y96044D01*
X158494Y97017D01*
X157970Y97700D01*
X158175Y98200D01*
X161825D01*
X162030Y97700D01*
X161506Y97017D01*
X161103Y96044D01*
X160966Y95000D01*
X161103Y93956D01*
X161506Y92983D01*
X162147Y92147D01*
X162983Y91506D01*
X163956Y91103D01*
X165000Y90965D01*
X166044Y91103D01*
X167017Y91506D01*
X167853Y92147D01*
X168494Y92983D01*
X168897Y93956D01*
X169035Y95000D01*
X168897Y96044D01*
X168494Y97017D01*
X167970Y97700D01*
X168175Y98200D01*
X171825D01*
X172030Y97700D01*
X171506Y97017D01*
X171103Y96044D01*
X170966Y95000D01*
X171103Y93956D01*
X171506Y92983D01*
X172147Y92147D01*
X172983Y91506D01*
X173956Y91103D01*
X175000Y90965D01*
X176044Y91103D01*
X177017Y91506D01*
X177853Y92147D01*
X178494Y92983D01*
X178897Y93956D01*
X179034Y95000D01*
X178897Y96044D01*
X178494Y97017D01*
X177970Y97700D01*
X178175Y98200D01*
X181825Y98200D01*
X182030Y97700D01*
X181506Y97017D01*
X181103Y96044D01*
X180965Y95000D01*
X181103Y93956D01*
X181506Y92983D01*
X182147Y92147D01*
X182983Y91506D01*
X183956Y91103D01*
X185000Y90965D01*
X186044Y91103D01*
X187017Y91506D01*
X187853Y92147D01*
X188494Y92983D01*
X188897Y93956D01*
X189034Y95000D01*
X188897Y96044D01*
X188494Y97017D01*
X187970Y97700D01*
X188175Y98200D01*
X191825D01*
X192030Y97700D01*
X191506Y97017D01*
X191103Y96044D01*
X190965Y95000D01*
X191103Y93956D01*
X191506Y92983D01*
X192147Y92147D01*
X192983Y91506D01*
X193956Y91103D01*
X195000Y90965D01*
X196044Y91103D01*
X197017Y91506D01*
X197853Y92147D01*
X198494Y92983D01*
X198897Y93956D01*
X199035Y95000D01*
X198897Y96044D01*
X198494Y97017D01*
X197970Y97700D01*
X198175Y98200D01*
X201825D01*
X202030Y97700D01*
X201506Y97017D01*
X201103Y96044D01*
X200965Y95000D01*
X201103Y93956D01*
X201506Y92983D01*
X202147Y92147D01*
X202983Y91506D01*
X203956Y91103D01*
X205000Y90965D01*
X206044Y91103D01*
X207017Y91506D01*
X207853Y92147D01*
X208494Y92983D01*
X208897Y93956D01*
X209034Y95000D01*
X208897Y96044D01*
X208494Y97017D01*
X207970Y97700D01*
X208175Y98200D01*
X211825D01*
X212030Y97700D01*
X211506Y97017D01*
X211103Y96044D01*
X210965Y95000D01*
X211103Y93956D01*
X211506Y92983D01*
X212147Y92147D01*
X212983Y91506D01*
X213956Y91103D01*
X215000Y90965D01*
X216044Y91103D01*
X217017Y91506D01*
X217853Y92147D01*
X218494Y92983D01*
X218897Y93956D01*
X219035Y95000D01*
X218897Y96044D01*
X218494Y97017D01*
X217970Y97700D01*
X218175Y98200D01*
X221825D01*
X222030Y97700D01*
X221506Y97017D01*
X221103Y96044D01*
X220966Y95000D01*
X221103Y93956D01*
X221506Y92983D01*
X222147Y92147D01*
X222983Y91506D01*
X223956Y91103D01*
X225000Y90965D01*
X226044Y91103D01*
X227017Y91506D01*
X227853Y92147D01*
X228494Y92983D01*
X228897Y93956D01*
X229034Y95000D01*
X228897Y96044D01*
X228494Y97017D01*
X227970Y97700D01*
X228175Y98200D01*
X231825D01*
X232030Y97700D01*
X231506Y97017D01*
X231103Y96044D01*
X230965Y95000D01*
X231103Y93956D01*
X231506Y92983D01*
X232147Y92147D01*
X232983Y91506D01*
X233956Y91103D01*
X235000Y90965D01*
X236044Y91103D01*
X237017Y91506D01*
X237853Y92147D01*
X238494Y92983D01*
X238897Y93956D01*
X239035Y95000D01*
X238897Y96044D01*
X238494Y97017D01*
X237970Y97700D01*
X238175Y98200D01*
X241825Y98200D01*
X242030Y97700D01*
X241506Y97017D01*
X241103Y96044D01*
X240966Y95000D01*
X241103Y93956D01*
X241506Y92983D01*
X242147Y92147D01*
X242983Y91506D01*
X243956Y91103D01*
X244116Y91082D01*
X244237Y90562D01*
X244058Y90442D01*
X243616Y89780D01*
X243461Y89000D01*
X243616Y88220D01*
X244058Y87558D01*
X244720Y87116D01*
X245500Y86961D01*
X246280Y87116D01*
X246942Y87558D01*
X247384Y88220D01*
X247539Y89000D01*
X247384Y89780D01*
X246942Y90442D01*
X246488Y90745D01*
X246532Y91305D01*
X247017Y91506D01*
X247853Y92147D01*
X248494Y92983D01*
X248897Y93956D01*
X249035Y95000D01*
X248897Y96044D01*
X248494Y97017D01*
X247970Y97700D01*
X248175Y98200D01*
X261000D01*
Y91000D01*
D02*
G37*
G36*
X70120Y21716D02*
X70500Y21640D01*
Y10700D01*
X49600D01*
Y21900D01*
X69844D01*
X70120Y21716D01*
D02*
G37*
G36*
X255831Y8102D02*
X256606Y7782D01*
X257271Y7271D01*
X257782Y6606D01*
X258102Y5831D01*
X258212Y5000D01*
X258102Y4169D01*
X257782Y3394D01*
X257323Y2796D01*
X257276Y2702D01*
X257218Y2615D01*
X257207Y2561D01*
X257182Y2511D01*
X257175Y2406D01*
X257154Y2303D01*
X257160Y2275D01*
X257162Y2203D01*
X257161Y2193D01*
X256941Y1885D01*
X256804Y1774D01*
X253190Y1766D01*
X253050Y1885D01*
X252839Y2193D01*
X252835Y2242D01*
X252838Y2265D01*
X252846Y2303D01*
X252825Y2406D01*
X252818Y2511D01*
X252793Y2561D01*
X252783Y2615D01*
X252724Y2702D01*
X252677Y2796D01*
X252219Y3394D01*
X251898Y4169D01*
X251788Y5000D01*
X251898Y5831D01*
X252219Y6606D01*
X252729Y7271D01*
X253394Y7782D01*
X254169Y8102D01*
X255000Y8212D01*
X255831Y8102D01*
D02*
G37*
%LPC*%
G36*
X79225Y88164D02*
X78445Y88009D01*
X77783Y87567D01*
X77341Y86905D01*
X77186Y86125D01*
X77341Y85345D01*
X77783Y84683D01*
X78445Y84241D01*
X79225Y84086D01*
X80005Y84241D01*
X80667Y84683D01*
X81109Y85345D01*
X81264Y86125D01*
X81109Y86905D01*
X80667Y87567D01*
X80005Y88009D01*
X79225Y88164D01*
D02*
G37*
G36*
X35100Y80439D02*
X34320Y80284D01*
X33658Y79842D01*
X33216Y79180D01*
X33163Y78913D01*
X32632Y78808D01*
X32342Y79242D01*
X31680Y79684D01*
X30900Y79839D01*
X30120Y79684D01*
X29458Y79242D01*
X29016Y78580D01*
X28861Y77800D01*
X29016Y77020D01*
X29458Y76358D01*
X30120Y75916D01*
X30900Y75761D01*
X31680Y75916D01*
X32342Y76358D01*
X32784Y77020D01*
X32837Y77287D01*
X33368Y77392D01*
X33658Y76958D01*
X34320Y76516D01*
X35100Y76361D01*
X35880Y76516D01*
X36542Y76958D01*
X36984Y77620D01*
X37139Y78400D01*
X36984Y79180D01*
X36542Y79842D01*
X35880Y80284D01*
X35100Y80439D01*
D02*
G37*
G36*
X49700Y80339D02*
X48920Y80184D01*
X48258Y79742D01*
X47816Y79080D01*
X47661Y78300D01*
X47816Y77520D01*
X48258Y76858D01*
X48920Y76416D01*
X49700Y76261D01*
X50480Y76416D01*
X51142Y76858D01*
X51584Y77520D01*
X51739Y78300D01*
X51584Y79080D01*
X51142Y79742D01*
X50480Y80184D01*
X49700Y80339D01*
D02*
G37*
G36*
X193079Y75639D02*
X192298Y75484D01*
X191637Y75042D01*
X191195Y74380D01*
X191040Y73600D01*
X191195Y72820D01*
X191637Y72158D01*
X192298Y71716D01*
X193079Y71561D01*
X193859Y71716D01*
X194521Y72158D01*
X194963Y72820D01*
X195118Y73600D01*
X194963Y74380D01*
X194521Y75042D01*
X193859Y75484D01*
X193079Y75639D01*
D02*
G37*
G36*
X49700Y75239D02*
X48920Y75084D01*
X48258Y74642D01*
X47816Y73980D01*
X47661Y73200D01*
X47816Y72420D01*
X48258Y71758D01*
X48920Y71316D01*
X49700Y71161D01*
X50480Y71316D01*
X51142Y71758D01*
X51584Y72420D01*
X51739Y73200D01*
X51584Y73980D01*
X51142Y74642D01*
X50480Y75084D01*
X49700Y75239D01*
D02*
G37*
G36*
X249500Y74539D02*
X248720Y74384D01*
X248058Y73942D01*
X247616Y73280D01*
X247461Y72500D01*
X247616Y71720D01*
X248058Y71058D01*
X248720Y70616D01*
X249500Y70461D01*
X250280Y70616D01*
X250942Y71058D01*
X251384Y71720D01*
X251539Y72500D01*
X251384Y73280D01*
X250942Y73942D01*
X250280Y74384D01*
X249500Y74539D01*
D02*
G37*
G36*
X242807D02*
X242027Y74384D01*
X241365Y73942D01*
X240923Y73280D01*
X240768Y72500D01*
X240923Y71720D01*
X241365Y71058D01*
X242027Y70616D01*
X242807Y70461D01*
X243587Y70616D01*
X244249Y71058D01*
X244691Y71720D01*
X244846Y72500D01*
X244691Y73280D01*
X244249Y73942D01*
X243587Y74384D01*
X242807Y74539D01*
D02*
G37*
G36*
X236114D02*
X235334Y74384D01*
X234672Y73942D01*
X234230Y73280D01*
X234075Y72500D01*
X234230Y71720D01*
X234672Y71058D01*
X235334Y70616D01*
X236114Y70461D01*
X236894Y70616D01*
X237556Y71058D01*
X237998Y71720D01*
X238153Y72500D01*
X237998Y73280D01*
X237556Y73942D01*
X236894Y74384D01*
X236114Y74539D01*
D02*
G37*
G36*
X229421D02*
X228641Y74384D01*
X227979Y73942D01*
X227537Y73280D01*
X227382Y72500D01*
X227537Y71720D01*
X227979Y71058D01*
X228641Y70616D01*
X229421Y70461D01*
X230202Y70616D01*
X230863Y71058D01*
X231305Y71720D01*
X231460Y72500D01*
X231305Y73280D01*
X230863Y73942D01*
X230202Y74384D01*
X229421Y74539D01*
D02*
G37*
G36*
X222728D02*
X221948Y74384D01*
X221286Y73942D01*
X220844Y73280D01*
X220689Y72500D01*
X220844Y71720D01*
X221286Y71058D01*
X221948Y70616D01*
X222728Y70461D01*
X223509Y70616D01*
X224170Y71058D01*
X224612Y71720D01*
X224767Y72500D01*
X224612Y73280D01*
X224170Y73942D01*
X223509Y74384D01*
X222728Y74539D01*
D02*
G37*
G36*
X216035D02*
X215255Y74384D01*
X214594Y73942D01*
X214152Y73280D01*
X213996Y72500D01*
X214152Y71720D01*
X214594Y71058D01*
X215255Y70616D01*
X216035Y70461D01*
X216816Y70616D01*
X217477Y71058D01*
X217919Y71720D01*
X218075Y72500D01*
X217919Y73280D01*
X217477Y73942D01*
X216816Y74384D01*
X216035Y74539D01*
D02*
G37*
G36*
X95100Y70439D02*
X94320Y70284D01*
X93658Y69842D01*
X93216Y69180D01*
X93061Y68400D01*
X93216Y67620D01*
X93658Y66958D01*
X94320Y66516D01*
X95100Y66361D01*
X95880Y66516D01*
X96542Y66958D01*
X96984Y67620D01*
X97139Y68400D01*
X96984Y69180D01*
X96542Y69842D01*
X95880Y70284D01*
X95100Y70439D01*
D02*
G37*
G36*
X246197Y69543D02*
X245416Y69388D01*
X244755Y68946D01*
X244313Y68284D01*
X244158Y67504D01*
X244313Y66724D01*
X244755Y66062D01*
X245416Y65620D01*
X246197Y65465D01*
X246977Y65620D01*
X247639Y66062D01*
X248081Y66724D01*
X248236Y67504D01*
X248081Y68284D01*
X247639Y68946D01*
X246977Y69388D01*
X246197Y69543D01*
D02*
G37*
G36*
X239504D02*
X238724Y69388D01*
X238062Y68946D01*
X237620Y68284D01*
X237465Y67504D01*
X237620Y66724D01*
X238062Y66062D01*
X238724Y65620D01*
X239504Y65465D01*
X240284Y65620D01*
X240946Y66062D01*
X241388Y66724D01*
X241543Y67504D01*
X241388Y68284D01*
X240946Y68946D01*
X240284Y69388D01*
X239504Y69543D01*
D02*
G37*
G36*
X232811D02*
X232031Y69388D01*
X231369Y68946D01*
X230927Y68284D01*
X230772Y67504D01*
X230927Y66724D01*
X231369Y66062D01*
X232031Y65620D01*
X232811Y65465D01*
X233591Y65620D01*
X234253Y66062D01*
X234695Y66724D01*
X234850Y67504D01*
X234695Y68284D01*
X234253Y68946D01*
X233591Y69388D01*
X232811Y69543D01*
D02*
G37*
G36*
X226118D02*
X225338Y69388D01*
X224676Y68946D01*
X224234Y68284D01*
X224079Y67504D01*
X224234Y66724D01*
X224676Y66062D01*
X225338Y65620D01*
X226118Y65465D01*
X226899Y65620D01*
X227560Y66062D01*
X228002Y66724D01*
X228157Y67504D01*
X228002Y68284D01*
X227560Y68946D01*
X226899Y69388D01*
X226118Y69543D01*
D02*
G37*
G36*
X219425D02*
X218645Y69388D01*
X217983Y68946D01*
X217541Y68284D01*
X217386Y67504D01*
X217541Y66724D01*
X217983Y66062D01*
X218645Y65620D01*
X219425Y65465D01*
X220206Y65620D01*
X220867Y66062D01*
X221309Y66724D01*
X221464Y67504D01*
X221309Y68284D01*
X220867Y68946D01*
X220206Y69388D01*
X219425Y69543D01*
D02*
G37*
G36*
X190200Y72139D02*
X189420Y71984D01*
X188758Y71542D01*
X188316Y70880D01*
X188161Y70100D01*
X188316Y69320D01*
X188758Y68658D01*
X189420Y68216D01*
X190066Y68087D01*
X190203Y68055D01*
X190440Y67599D01*
X190361Y67200D01*
X190516Y66420D01*
X190958Y65758D01*
X191620Y65316D01*
X192400Y65161D01*
X193180Y65316D01*
X193842Y65758D01*
X194284Y66420D01*
X194439Y67200D01*
X194284Y67980D01*
X193842Y68642D01*
X193180Y69084D01*
X192534Y69213D01*
X192397Y69245D01*
X192160Y69701D01*
X192239Y70100D01*
X192084Y70880D01*
X191642Y71542D01*
X190980Y71984D01*
X190200Y72139D01*
D02*
G37*
G36*
X61700Y66339D02*
X60920Y66184D01*
X60258Y65742D01*
X59816Y65080D01*
X59661Y64300D01*
X59816Y63520D01*
X60258Y62858D01*
X60920Y62416D01*
X61700Y62261D01*
X62480Y62416D01*
X63142Y62858D01*
X63584Y63520D01*
X63739Y64300D01*
X63584Y65080D01*
X63142Y65742D01*
X62480Y66184D01*
X61700Y66339D01*
D02*
G37*
G36*
X200300Y66839D02*
X199520Y66684D01*
X198858Y66242D01*
X198416Y65580D01*
X198261Y64800D01*
X198416Y64020D01*
X198858Y63358D01*
X198924Y63314D01*
X198819Y62783D01*
X198320Y62684D01*
X197658Y62242D01*
X197216Y61580D01*
X197061Y60800D01*
X197216Y60020D01*
X197658Y59358D01*
X198320Y58916D01*
X199100Y58761D01*
X199880Y58916D01*
X200542Y59358D01*
X200984Y60020D01*
X201139Y60800D01*
X200984Y61580D01*
X200542Y62242D01*
X200476Y62286D01*
X200582Y62817D01*
X201080Y62916D01*
X201742Y63358D01*
X202184Y64020D01*
X202339Y64800D01*
X202184Y65580D01*
X201742Y66242D01*
X201080Y66684D01*
X200300Y66839D01*
D02*
G37*
G36*
X188800Y61239D02*
X188020Y61084D01*
X187358Y60642D01*
X186916Y59980D01*
X186761Y59200D01*
X186916Y58420D01*
X187358Y57758D01*
X188020Y57316D01*
X188800Y57161D01*
X189580Y57316D01*
X190242Y57758D01*
X190684Y58420D01*
X190839Y59200D01*
X190684Y59980D01*
X190242Y60642D01*
X189580Y61084D01*
X188800Y61239D01*
D02*
G37*
G36*
X183700Y59139D02*
X182920Y58984D01*
X182258Y58542D01*
X181816Y57880D01*
X181661Y57100D01*
X181816Y56320D01*
X182258Y55658D01*
X182920Y55216D01*
X183700Y55061D01*
X184480Y55216D01*
X185142Y55658D01*
X185584Y56320D01*
X185739Y57100D01*
X185584Y57880D01*
X185142Y58542D01*
X184480Y58984D01*
X183700Y59139D01*
D02*
G37*
G36*
X172100Y57239D02*
X171320Y57084D01*
X170658Y56642D01*
X170216Y55980D01*
X170061Y55200D01*
X170216Y54420D01*
X170658Y53758D01*
X171320Y53316D01*
X172100Y53161D01*
X172880Y53316D01*
X173542Y53758D01*
X173984Y54420D01*
X174139Y55200D01*
X173984Y55980D01*
X173542Y56642D01*
X172880Y57084D01*
X172100Y57239D01*
D02*
G37*
G36*
X178100Y55339D02*
X177320Y55184D01*
X176658Y54742D01*
X176216Y54080D01*
X176061Y53300D01*
X176216Y52520D01*
X176658Y51858D01*
X177320Y51416D01*
X178100Y51261D01*
X178880Y51416D01*
X179542Y51858D01*
X179984Y52520D01*
X180139Y53300D01*
X179984Y54080D01*
X179542Y54742D01*
X178880Y55184D01*
X178100Y55339D01*
D02*
G37*
G36*
X201502Y53439D02*
X200721Y53284D01*
X200060Y52842D01*
X199618Y52180D01*
X199462Y51400D01*
X199618Y50620D01*
X200060Y49958D01*
X200721Y49516D01*
X201502Y49361D01*
X202282Y49516D01*
X202943Y49958D01*
X203385Y50620D01*
X203541Y51400D01*
X203385Y52180D01*
X202943Y52842D01*
X202282Y53284D01*
X201502Y53439D01*
D02*
G37*
G36*
X64800Y51939D02*
X64020Y51784D01*
X63358Y51342D01*
X62916Y50680D01*
X62761Y49900D01*
X62916Y49120D01*
X63358Y48458D01*
X64020Y48016D01*
X64800Y47861D01*
X65580Y48016D01*
X66242Y48458D01*
X66684Y49120D01*
X66839Y49900D01*
X66684Y50680D01*
X66242Y51342D01*
X65580Y51784D01*
X64800Y51939D01*
D02*
G37*
G36*
X150699Y50938D02*
X149919Y50783D01*
X149257Y50341D01*
X148815Y49680D01*
X148660Y48899D01*
X148815Y48119D01*
X149257Y47457D01*
X149919Y47015D01*
X150699Y46860D01*
X151480Y47015D01*
X152141Y47457D01*
X152583Y48119D01*
X152738Y48899D01*
X152583Y49680D01*
X152141Y50341D01*
X151480Y50783D01*
X150699Y50938D01*
D02*
G37*
G36*
X187900Y51539D02*
X187120Y51384D01*
X186458Y50942D01*
X186016Y50280D01*
X185861Y49500D01*
X186016Y48720D01*
X186458Y48058D01*
X186545Y48000D01*
Y47500D01*
X186459Y47442D01*
X186017Y46780D01*
X185862Y46000D01*
X186017Y45220D01*
X186459Y44558D01*
X187120Y44116D01*
X187901Y43961D01*
X188681Y44116D01*
X189343Y44558D01*
X189785Y45220D01*
X189940Y46000D01*
X189785Y46780D01*
X189343Y47442D01*
X189255Y47500D01*
Y48000D01*
X189342Y48058D01*
X189784Y48720D01*
X189939Y49500D01*
X189784Y50280D01*
X189342Y50942D01*
X188680Y51384D01*
X187900Y51539D01*
D02*
G37*
G36*
X201902Y46539D02*
X201122Y46384D01*
X200460Y45942D01*
X200018Y45280D01*
X199863Y44500D01*
X200018Y43720D01*
X200460Y43058D01*
X201122Y42616D01*
X201902Y42461D01*
X202683Y42616D01*
X203344Y43058D01*
X203786Y43720D01*
X203942Y44500D01*
X203786Y45280D01*
X203344Y45942D01*
X202683Y46384D01*
X201902Y46539D01*
D02*
G37*
G36*
X40300Y57800D02*
X34700D01*
Y52200D01*
X35029D01*
X35275Y51700D01*
X35054Y51412D01*
X34772Y50731D01*
X34676Y50000D01*
X34772Y49269D01*
X35054Y48588D01*
X35503Y48003D01*
X35748Y47815D01*
Y47185D01*
X35503Y46997D01*
X35054Y46412D01*
X34772Y45731D01*
X34676Y45000D01*
X34772Y44269D01*
X35054Y43588D01*
X35503Y43003D01*
X36088Y42554D01*
X36769Y42272D01*
X37500Y42176D01*
X38231Y42272D01*
X38912Y42554D01*
X39497Y43003D01*
X39946Y43588D01*
X40228Y44269D01*
X40324Y45000D01*
X40228Y45731D01*
X39946Y46412D01*
X39497Y46997D01*
X39252Y47185D01*
Y47815D01*
X39497Y48003D01*
X39946Y48588D01*
X40228Y49269D01*
X40324Y50000D01*
X40228Y50731D01*
X39946Y51412D01*
X39725Y51700D01*
X39971Y52200D01*
X40300D01*
Y57800D01*
D02*
G37*
G36*
X185159Y39639D02*
X184379Y39484D01*
X183717Y39042D01*
X183275Y38380D01*
X183253Y38269D01*
X182697Y38039D01*
X182480Y38184D01*
X181700Y38339D01*
X180920Y38184D01*
X180258Y37742D01*
X179816Y37080D01*
X179661Y36300D01*
X179816Y35520D01*
X180258Y34858D01*
X180920Y34416D01*
X181700Y34261D01*
X182480Y34416D01*
X183142Y34858D01*
X183584Y35520D01*
X183606Y35631D01*
X184162Y35861D01*
X184379Y35716D01*
X185159Y35561D01*
X185940Y35716D01*
X186601Y36158D01*
X187043Y36820D01*
X187198Y37600D01*
X187043Y38380D01*
X186601Y39042D01*
X185940Y39484D01*
X185159Y39639D01*
D02*
G37*
G36*
X196700Y43339D02*
X195920Y43184D01*
X195258Y42742D01*
X194816Y42080D01*
X194661Y41300D01*
X194816Y40520D01*
X195258Y39858D01*
X195920Y39416D01*
X196700Y39261D01*
X196994Y39319D01*
X197419Y38894D01*
X197361Y38600D01*
X197516Y37820D01*
X197958Y37158D01*
X198620Y36716D01*
X199400Y36561D01*
X200180Y36716D01*
X200842Y37158D01*
X201284Y37820D01*
X201439Y38600D01*
X201284Y39380D01*
X200842Y40042D01*
X200180Y40484D01*
X199400Y40639D01*
X199106Y40581D01*
X198681Y41006D01*
X198739Y41300D01*
X198584Y42080D01*
X198142Y42742D01*
X197480Y43184D01*
X196700Y43339D01*
D02*
G37*
G36*
X204732Y35307D02*
X203952Y35152D01*
X203290Y34710D01*
X202848Y34048D01*
X202693Y33268D01*
X202848Y32487D01*
X203290Y31826D01*
X203952Y31384D01*
X204732Y31229D01*
X205513Y31384D01*
X206174Y31826D01*
X206616Y32487D01*
X206771Y33268D01*
X206616Y34048D01*
X206174Y34710D01*
X205513Y35152D01*
X204732Y35307D01*
D02*
G37*
G36*
X216193Y34594D02*
X215413Y34439D01*
X214751Y33997D01*
X214309Y33336D01*
X214154Y32555D01*
X214309Y31775D01*
X214751Y31113D01*
X215413Y30671D01*
X216193Y30516D01*
X216973Y30671D01*
X217635Y31113D01*
X218077Y31775D01*
X218232Y32555D01*
X218077Y33336D01*
X217635Y33997D01*
X216973Y34439D01*
X216193Y34594D01*
D02*
G37*
G36*
X249543Y34535D02*
X248763Y34380D01*
X248101Y33938D01*
X247659Y33276D01*
X247504Y32496D01*
X247659Y31716D01*
X248101Y31054D01*
X248763Y30612D01*
X249543Y30457D01*
X250324Y30612D01*
X250985Y31054D01*
X251427Y31716D01*
X251583Y32496D01*
X251427Y33276D01*
X250985Y33938D01*
X250324Y34380D01*
X249543Y34535D01*
D02*
G37*
G36*
X242850D02*
X242070Y34380D01*
X241408Y33938D01*
X240966Y33276D01*
X240811Y32496D01*
X240966Y31716D01*
X241408Y31054D01*
X242070Y30612D01*
X242850Y30457D01*
X243631Y30612D01*
X244292Y31054D01*
X244734Y31716D01*
X244890Y32496D01*
X244734Y33276D01*
X244292Y33938D01*
X243631Y34380D01*
X242850Y34535D01*
D02*
G37*
G36*
X236157D02*
X235377Y34380D01*
X234716Y33938D01*
X234274Y33276D01*
X234118Y32496D01*
X234274Y31716D01*
X234716Y31054D01*
X235377Y30612D01*
X236157Y30457D01*
X236938Y30612D01*
X237599Y31054D01*
X238041Y31716D01*
X238197Y32496D01*
X238041Y33276D01*
X237599Y33938D01*
X236938Y34380D01*
X236157Y34535D01*
D02*
G37*
G36*
X229465D02*
X228684Y34380D01*
X228023Y33938D01*
X227581Y33276D01*
X227425Y32496D01*
X227581Y31716D01*
X228023Y31054D01*
X228684Y30612D01*
X229465Y30457D01*
X230245Y30612D01*
X230907Y31054D01*
X231348Y31716D01*
X231504Y32496D01*
X231348Y33276D01*
X230907Y33938D01*
X230245Y34380D01*
X229465Y34535D01*
D02*
G37*
G36*
X222772D02*
X221991Y34380D01*
X221330Y33938D01*
X220888Y33276D01*
X220732Y32496D01*
X220888Y31716D01*
X221330Y31054D01*
X221991Y30612D01*
X222772Y30457D01*
X223552Y30612D01*
X224214Y31054D01*
X224656Y31716D01*
X224811Y32496D01*
X224656Y33276D01*
X224214Y33938D01*
X223552Y34380D01*
X222772Y34535D01*
D02*
G37*
G36*
X192179Y31960D02*
X191398Y31805D01*
X190737Y31363D01*
X190295Y30702D01*
X190140Y29921D01*
X190295Y29141D01*
X190737Y28479D01*
X191398Y28037D01*
X192179Y27882D01*
X192959Y28037D01*
X193621Y28479D01*
X194063Y29141D01*
X194218Y29921D01*
X194063Y30702D01*
X193621Y31363D01*
X192959Y31805D01*
X192179Y31960D01*
D02*
G37*
G36*
X246240Y29539D02*
X245460Y29384D01*
X244798Y28942D01*
X244356Y28280D01*
X244201Y27500D01*
X244356Y26720D01*
X244798Y26058D01*
X245460Y25616D01*
X246240Y25461D01*
X247021Y25616D01*
X247682Y26058D01*
X248124Y26720D01*
X248279Y27500D01*
X248124Y28280D01*
X247682Y28942D01*
X247021Y29384D01*
X246240Y29539D01*
D02*
G37*
G36*
X239547D02*
X238767Y29384D01*
X238105Y28942D01*
X237663Y28280D01*
X237508Y27500D01*
X237663Y26720D01*
X238105Y26058D01*
X238767Y25616D01*
X239547Y25461D01*
X240328Y25616D01*
X240989Y26058D01*
X241431Y26720D01*
X241586Y27500D01*
X241431Y28280D01*
X240989Y28942D01*
X240328Y29384D01*
X239547Y29539D01*
D02*
G37*
G36*
X232854D02*
X232074Y29384D01*
X231412Y28942D01*
X230970Y28280D01*
X230815Y27500D01*
X230970Y26720D01*
X231412Y26058D01*
X232074Y25616D01*
X232854Y25461D01*
X233635Y25616D01*
X234296Y26058D01*
X234738Y26720D01*
X234893Y27500D01*
X234738Y28280D01*
X234296Y28942D01*
X233635Y29384D01*
X232854Y29539D01*
D02*
G37*
G36*
X226161D02*
X225381Y29384D01*
X224720Y28942D01*
X224277Y28280D01*
X224122Y27500D01*
X224277Y26720D01*
X224720Y26058D01*
X225381Y25616D01*
X226161Y25461D01*
X226942Y25616D01*
X227603Y26058D01*
X228045Y26720D01*
X228201Y27500D01*
X228045Y28280D01*
X227603Y28942D01*
X226942Y29384D01*
X226161Y29539D01*
D02*
G37*
G36*
X219468D02*
X218688Y29384D01*
X218027Y28942D01*
X217584Y28280D01*
X217429Y27500D01*
X217584Y26720D01*
X218027Y26058D01*
X218688Y25616D01*
X219468Y25461D01*
X220249Y25616D01*
X220910Y26058D01*
X221353Y26720D01*
X221508Y27500D01*
X221353Y28280D01*
X220910Y28942D01*
X220249Y29384D01*
X219468Y29539D01*
D02*
G37*
G36*
X131600Y89839D02*
X130820Y89684D01*
X130158Y89242D01*
X129716Y88580D01*
X129561Y87800D01*
X129716Y87020D01*
X130158Y86358D01*
X130820Y85916D01*
X131600Y85761D01*
X132380Y85916D01*
X133042Y86358D01*
X133484Y87020D01*
X133639Y87800D01*
X133484Y88580D01*
X133042Y89242D01*
X132380Y89684D01*
X131600Y89839D01*
D02*
G37*
G36*
X162600Y85339D02*
X161820Y85184D01*
X161158Y84742D01*
X160716Y84080D01*
X160561Y83300D01*
X160716Y82520D01*
X161158Y81858D01*
X161820Y81416D01*
X162600Y81261D01*
X163380Y81416D01*
X164042Y81858D01*
X164484Y82520D01*
X164639Y83300D01*
X164484Y84080D01*
X164042Y84742D01*
X163380Y85184D01*
X162600Y85339D01*
D02*
G37*
G36*
X259500Y83539D02*
X258720Y83384D01*
X258058Y82942D01*
X257616Y82280D01*
X257461Y81500D01*
X257616Y80720D01*
X258058Y80058D01*
X258720Y79616D01*
X259500Y79461D01*
X260280Y79616D01*
X260942Y80058D01*
X261384Y80720D01*
X261539Y81500D01*
X261384Y82280D01*
X260942Y82942D01*
X260280Y83384D01*
X259500Y83539D01*
D02*
G37*
G36*
X166600Y82139D02*
X165820Y81984D01*
X165158Y81542D01*
X164716Y80880D01*
X164561Y80100D01*
X164716Y79320D01*
X165158Y78658D01*
X165820Y78216D01*
X166600Y78061D01*
X167380Y78216D01*
X168042Y78658D01*
X168484Y79320D01*
X168639Y80100D01*
X168484Y80880D01*
X168042Y81542D01*
X167380Y81984D01*
X166600Y82139D01*
D02*
G37*
G36*
X259583Y76039D02*
X258802Y75884D01*
X258141Y75442D01*
X257699Y74780D01*
X257543Y74000D01*
X257699Y73220D01*
X258141Y72558D01*
X258802Y72116D01*
X259583Y71961D01*
X260363Y72116D01*
X261025Y72558D01*
X261104Y72677D01*
X261395Y72659D01*
X261652Y72597D01*
X262062Y71983D01*
Y71521D01*
X261620Y70859D01*
X261465Y70079D01*
X261620Y69298D01*
X262062Y68637D01*
Y68174D01*
X261620Y67513D01*
X261465Y66732D01*
X261620Y65952D01*
X261998Y65386D01*
X262035Y65059D01*
X261998Y64732D01*
X261620Y64166D01*
X261465Y63386D01*
X261620Y62606D01*
X262062Y61944D01*
Y61481D01*
X261620Y60820D01*
X261465Y60039D01*
X261620Y59259D01*
X262062Y58597D01*
Y58135D01*
X261620Y57473D01*
X261465Y56693D01*
X261620Y55913D01*
X261998Y55347D01*
X262035Y55020D01*
X261998Y54693D01*
X261620Y54127D01*
X261465Y53347D01*
X261620Y52566D01*
X262062Y51905D01*
Y51442D01*
X261620Y50780D01*
X261465Y50000D01*
X261620Y49220D01*
X262062Y48558D01*
Y48096D01*
X261620Y47434D01*
X261465Y46654D01*
X261620Y45873D01*
X261998Y45307D01*
X262035Y44980D01*
X261998Y44653D01*
X261620Y44087D01*
X261465Y43307D01*
X261620Y42527D01*
X262062Y41865D01*
Y41403D01*
X261620Y40741D01*
X261465Y39961D01*
X261620Y39180D01*
X262062Y38519D01*
Y38056D01*
X261620Y37394D01*
X261465Y36614D01*
X261620Y35834D01*
X261998Y35268D01*
X262035Y34941D01*
X261998Y34614D01*
X261620Y34048D01*
X261465Y33268D01*
X261620Y32487D01*
X262062Y31826D01*
Y31363D01*
X261620Y30702D01*
X261465Y29921D01*
X261620Y29141D01*
X262062Y28479D01*
X262222Y28373D01*
X262329Y27699D01*
X262116Y27380D01*
X261961Y26600D01*
X262116Y25820D01*
X262558Y25158D01*
X263220Y24716D01*
X264000Y24561D01*
X264780Y24716D01*
X265442Y25158D01*
X265884Y25820D01*
X266039Y26600D01*
X265884Y27380D01*
X265442Y28042D01*
X265282Y28149D01*
X265175Y28822D01*
X265388Y29141D01*
X265543Y29921D01*
X265388Y30702D01*
X264946Y31363D01*
Y31826D01*
X265388Y32487D01*
X265543Y33268D01*
X265388Y34048D01*
X265010Y34614D01*
X264972Y34941D01*
X265010Y35268D01*
X265388Y35834D01*
X265543Y36614D01*
X265388Y37394D01*
X264946Y38056D01*
Y38519D01*
X265388Y39180D01*
X265543Y39961D01*
X265388Y40741D01*
X264946Y41403D01*
Y41865D01*
X265388Y42527D01*
X265543Y43307D01*
X265388Y44087D01*
X265010Y44653D01*
X264972Y44980D01*
X265010Y45307D01*
X265388Y45873D01*
X265543Y46654D01*
X265388Y47434D01*
X264946Y48096D01*
Y48558D01*
X265388Y49220D01*
X265543Y50000D01*
X265388Y50780D01*
X264946Y51442D01*
Y51905D01*
X265388Y52566D01*
X265543Y53347D01*
X265388Y54127D01*
X265010Y54693D01*
X264972Y55020D01*
X265010Y55347D01*
X265388Y55913D01*
X265543Y56693D01*
X265388Y57473D01*
X264946Y58135D01*
Y58597D01*
X265388Y59259D01*
X265543Y60039D01*
X265388Y60820D01*
X264946Y61481D01*
Y61944D01*
X265388Y62606D01*
X265543Y63386D01*
X265388Y64166D01*
X265010Y64732D01*
X264972Y65059D01*
X265010Y65386D01*
X265388Y65952D01*
X265543Y66732D01*
X265388Y67513D01*
X264946Y68174D01*
Y68637D01*
X265388Y69298D01*
X265543Y70079D01*
X265388Y70859D01*
X264946Y71521D01*
Y71983D01*
X265388Y72645D01*
X265543Y73425D01*
X265388Y74206D01*
X264946Y74867D01*
X264284Y75309D01*
X263504Y75464D01*
X262724Y75309D01*
X262062Y74867D01*
X261983Y74748D01*
X261692Y74766D01*
X261435Y74828D01*
X261025Y75442D01*
X260363Y75884D01*
X259583Y76039D01*
D02*
G37*
%LPD*%
G36*
X260045Y75116D02*
X260437Y74854D01*
X260756Y74375D01*
X260858Y74274D01*
X260955Y74168D01*
X260970Y74161D01*
X260981Y74150D01*
X261114Y74095D01*
X261244Y74035D01*
X261501Y73973D01*
X261573Y73971D01*
X261641Y73952D01*
X261932Y73934D01*
X262037Y73949D01*
X262142D01*
X262193Y73970D01*
X262248Y73977D01*
X262339Y74030D01*
X262436Y74070D01*
X262475Y74109D01*
X262523Y74137D01*
X262587Y74221D01*
X262634Y74268D01*
X263042Y74541D01*
X263504Y74633D01*
X263966Y74541D01*
X264358Y74279D01*
X264619Y73887D01*
X264711Y73425D01*
X264619Y72963D01*
X264268Y72436D01*
X264237Y72362D01*
X264192Y72295D01*
X264177Y72217D01*
X264146Y72142D01*
Y72062D01*
X264130Y71983D01*
Y71521D01*
X264146Y71442D01*
Y71362D01*
X264177Y71287D01*
X264192Y71209D01*
X264237Y71142D01*
X264268Y71068D01*
X264619Y70541D01*
X264711Y70079D01*
X264619Y69617D01*
X264268Y69090D01*
X264237Y69016D01*
X264192Y68949D01*
X264177Y68870D01*
X264146Y68796D01*
Y68716D01*
X264130Y68637D01*
Y68174D01*
X264146Y68095D01*
Y68015D01*
X264177Y67941D01*
X264192Y67862D01*
X264237Y67795D01*
X264268Y67721D01*
X264619Y67194D01*
X264711Y66732D01*
X264619Y66270D01*
X264332Y65839D01*
X264319Y65808D01*
X264297Y65782D01*
X264258Y65662D01*
X264210Y65545D01*
Y65512D01*
X264200Y65479D01*
X264162Y65152D01*
X264170Y65059D01*
X264162Y64966D01*
X264200Y64639D01*
X264210Y64607D01*
Y64573D01*
X264258Y64456D01*
X264297Y64336D01*
X264319Y64310D01*
X264332Y64279D01*
X264619Y63848D01*
X264711Y63386D01*
X264619Y62924D01*
X264268Y62397D01*
X264237Y62323D01*
X264192Y62256D01*
X264177Y62177D01*
X264146Y62103D01*
Y62023D01*
X264130Y61944D01*
Y61481D01*
X264146Y61402D01*
Y61322D01*
X264177Y61248D01*
X264192Y61169D01*
X264237Y61102D01*
X264268Y61028D01*
X264619Y60501D01*
X264711Y60039D01*
X264619Y59577D01*
X264268Y59051D01*
X264237Y58976D01*
X264192Y58910D01*
X264177Y58831D01*
X264146Y58757D01*
Y58676D01*
X264130Y58597D01*
Y58135D01*
X264146Y58056D01*
Y57976D01*
X264177Y57902D01*
X264192Y57823D01*
X264237Y57756D01*
X264268Y57682D01*
X264619Y57155D01*
X264711Y56693D01*
X264619Y56231D01*
X264332Y55800D01*
X264319Y55769D01*
X264297Y55743D01*
X264258Y55623D01*
X264210Y55506D01*
Y55472D01*
X264200Y55440D01*
X264162Y55113D01*
X264170Y55020D01*
X264162Y54927D01*
X264200Y54599D01*
X264210Y54567D01*
Y54533D01*
X264258Y54417D01*
X264297Y54296D01*
X264319Y54271D01*
X264332Y54239D01*
X264619Y53809D01*
X264711Y53347D01*
X264619Y52884D01*
X264268Y52358D01*
X264237Y52284D01*
X264192Y52217D01*
X264177Y52138D01*
X264146Y52064D01*
Y51983D01*
X264130Y51905D01*
Y51442D01*
X264146Y51363D01*
Y51283D01*
X264177Y51209D01*
X264192Y51130D01*
X264237Y51063D01*
X264268Y50989D01*
X264619Y50462D01*
X264711Y50000D01*
X264619Y49538D01*
X264268Y49011D01*
X264237Y48937D01*
X264192Y48870D01*
X264177Y48791D01*
X264146Y48717D01*
Y48637D01*
X264130Y48558D01*
Y48096D01*
X264146Y48017D01*
Y47936D01*
X264177Y47862D01*
X264192Y47783D01*
X264237Y47717D01*
X264268Y47642D01*
X264619Y47116D01*
X264711Y46654D01*
X264619Y46191D01*
X264332Y45761D01*
X264319Y45729D01*
X264297Y45704D01*
X264258Y45583D01*
X264210Y45467D01*
Y45433D01*
X264200Y45401D01*
X264162Y45073D01*
X264170Y44980D01*
X264162Y44887D01*
X264200Y44560D01*
X264210Y44528D01*
Y44494D01*
X264258Y44377D01*
X264297Y44257D01*
X264319Y44231D01*
X264332Y44200D01*
X264619Y43769D01*
X264711Y43307D01*
X264619Y42845D01*
X264268Y42318D01*
X264237Y42244D01*
X264192Y42177D01*
X264177Y42099D01*
X264146Y42024D01*
Y41944D01*
X264130Y41865D01*
Y41403D01*
X264146Y41324D01*
Y41243D01*
X264177Y41169D01*
X264192Y41090D01*
X264237Y41024D01*
X264268Y40949D01*
X264619Y40423D01*
X264711Y39961D01*
X264619Y39498D01*
X264268Y38972D01*
X264237Y38898D01*
X264192Y38831D01*
X264177Y38752D01*
X264146Y38678D01*
Y38598D01*
X264130Y38519D01*
Y38056D01*
X264146Y37977D01*
Y37897D01*
X264177Y37823D01*
X264192Y37744D01*
X264237Y37677D01*
X264268Y37603D01*
X264619Y37076D01*
X264711Y36614D01*
X264619Y36152D01*
X264332Y35721D01*
X264319Y35690D01*
X264297Y35664D01*
X264258Y35544D01*
X264210Y35427D01*
Y35393D01*
X264200Y35361D01*
X264162Y35034D01*
X264170Y34941D01*
X264162Y34848D01*
X264200Y34521D01*
X264210Y34488D01*
Y34455D01*
X264258Y34338D01*
X264297Y34218D01*
X264319Y34192D01*
X264332Y34161D01*
X264619Y33730D01*
X264711Y33268D01*
X264619Y32806D01*
X264268Y32279D01*
X264237Y32205D01*
X264192Y32138D01*
X264177Y32059D01*
X264146Y31985D01*
Y31905D01*
X264130Y31826D01*
Y31363D01*
X264146Y31284D01*
Y31204D01*
X264177Y31130D01*
X264192Y31051D01*
X264237Y30984D01*
X264268Y30910D01*
X264619Y30383D01*
X264711Y29921D01*
X264619Y29459D01*
X264496Y29275D01*
X264441Y29142D01*
X264381Y29011D01*
X264381Y28995D01*
X264375Y28981D01*
X264375Y28837D01*
X264369Y28693D01*
X264477Y28020D01*
X264482Y28005D01*
Y27990D01*
X264537Y27856D01*
X264587Y27721D01*
X264598Y27710D01*
X264604Y27695D01*
X264706Y27594D01*
X264804Y27488D01*
X264818Y27481D01*
X264829Y27470D01*
X264854Y27454D01*
X265116Y27062D01*
X265208Y26600D01*
X265116Y26138D01*
X264854Y25746D01*
X264462Y25484D01*
X264000Y25392D01*
X263538Y25484D01*
X263146Y25746D01*
X262884Y26138D01*
X262792Y26600D01*
X262884Y27062D01*
X263007Y27246D01*
X263063Y27379D01*
X263123Y27510D01*
X263123Y27526D01*
X263129Y27540D01*
X263129Y27684D01*
X263135Y27828D01*
X263027Y28501D01*
X263022Y28516D01*
Y28532D01*
X262966Y28665D01*
X262916Y28800D01*
X262906Y28811D01*
X262900Y28826D01*
X262798Y28928D01*
X262700Y29033D01*
X262686Y29040D01*
X262675Y29051D01*
X262650Y29067D01*
X262388Y29459D01*
X262296Y29921D01*
X262388Y30383D01*
X262740Y30910D01*
X262771Y30984D01*
X262816Y31051D01*
X262831Y31130D01*
X262862Y31204D01*
Y31284D01*
X262878Y31363D01*
Y31826D01*
X262862Y31905D01*
Y31985D01*
X262831Y32059D01*
X262816Y32138D01*
X262771Y32205D01*
X262740Y32279D01*
X262388Y32806D01*
X262296Y33268D01*
X262388Y33730D01*
X262676Y34161D01*
X262689Y34192D01*
X262711Y34218D01*
X262750Y34338D01*
X262798Y34455D01*
Y34488D01*
X262808Y34521D01*
X262846Y34848D01*
X262838Y34941D01*
X262846Y35034D01*
X262808Y35361D01*
X262798Y35393D01*
Y35427D01*
X262750Y35544D01*
X262711Y35664D01*
X262689Y35690D01*
X262676Y35721D01*
X262388Y36152D01*
X262296Y36614D01*
X262388Y37076D01*
X262740Y37603D01*
X262771Y37677D01*
X262816Y37744D01*
X262831Y37823D01*
X262862Y37897D01*
Y37977D01*
X262878Y38056D01*
Y38519D01*
X262862Y38598D01*
Y38678D01*
X262831Y38752D01*
X262816Y38831D01*
X262771Y38898D01*
X262740Y38972D01*
X262388Y39498D01*
X262296Y39961D01*
X262388Y40423D01*
X262740Y40949D01*
X262771Y41024D01*
X262816Y41090D01*
X262831Y41169D01*
X262862Y41243D01*
Y41324D01*
X262878Y41403D01*
Y41865D01*
X262862Y41944D01*
Y42024D01*
X262831Y42099D01*
X262816Y42177D01*
X262771Y42244D01*
X262740Y42318D01*
X262388Y42845D01*
X262296Y43307D01*
X262388Y43769D01*
X262676Y44200D01*
X262689Y44231D01*
X262711Y44257D01*
X262750Y44377D01*
X262798Y44494D01*
Y44528D01*
X262808Y44560D01*
X262846Y44887D01*
X262838Y44980D01*
X262846Y45073D01*
X262808Y45401D01*
X262798Y45433D01*
Y45467D01*
X262750Y45583D01*
X262711Y45704D01*
X262689Y45729D01*
X262676Y45761D01*
X262388Y46191D01*
X262296Y46654D01*
X262388Y47116D01*
X262740Y47642D01*
X262771Y47717D01*
X262816Y47783D01*
X262831Y47862D01*
X262862Y47936D01*
Y48017D01*
X262878Y48096D01*
Y48558D01*
X262862Y48637D01*
Y48717D01*
X262831Y48791D01*
X262816Y48870D01*
X262771Y48937D01*
X262740Y49011D01*
X262388Y49538D01*
X262296Y50000D01*
X262388Y50462D01*
X262740Y50989D01*
X262771Y51063D01*
X262816Y51130D01*
X262831Y51209D01*
X262862Y51283D01*
Y51363D01*
X262878Y51442D01*
Y51905D01*
X262862Y51983D01*
Y52064D01*
X262831Y52138D01*
X262816Y52217D01*
X262771Y52284D01*
X262740Y52358D01*
X262388Y52884D01*
X262296Y53347D01*
X262388Y53809D01*
X262676Y54239D01*
X262689Y54271D01*
X262711Y54296D01*
X262750Y54417D01*
X262798Y54533D01*
Y54567D01*
X262808Y54599D01*
X262846Y54927D01*
X262838Y55020D01*
X262846Y55113D01*
X262808Y55440D01*
X262798Y55472D01*
Y55506D01*
X262750Y55623D01*
X262711Y55743D01*
X262689Y55769D01*
X262676Y55800D01*
X262388Y56231D01*
X262296Y56693D01*
X262388Y57155D01*
X262740Y57682D01*
X262771Y57756D01*
X262816Y57823D01*
X262831Y57902D01*
X262862Y57976D01*
Y58056D01*
X262878Y58135D01*
Y58597D01*
X262862Y58676D01*
Y58757D01*
X262831Y58831D01*
X262816Y58910D01*
X262771Y58976D01*
X262740Y59051D01*
X262388Y59577D01*
X262296Y60039D01*
X262388Y60501D01*
X262740Y61028D01*
X262771Y61102D01*
X262816Y61169D01*
X262831Y61248D01*
X262862Y61322D01*
Y61402D01*
X262878Y61481D01*
Y61944D01*
X262862Y62023D01*
Y62103D01*
X262831Y62177D01*
X262816Y62256D01*
X262771Y62323D01*
X262740Y62397D01*
X262388Y62924D01*
X262296Y63386D01*
X262388Y63848D01*
X262676Y64279D01*
X262689Y64310D01*
X262711Y64336D01*
X262750Y64456D01*
X262798Y64573D01*
Y64607D01*
X262808Y64639D01*
X262846Y64966D01*
X262838Y65059D01*
X262846Y65152D01*
X262808Y65479D01*
X262798Y65512D01*
Y65545D01*
X262750Y65662D01*
X262711Y65782D01*
X262689Y65808D01*
X262676Y65839D01*
X262388Y66270D01*
X262296Y66732D01*
X262388Y67194D01*
X262740Y67721D01*
X262771Y67795D01*
X262816Y67862D01*
X262831Y67941D01*
X262862Y68015D01*
Y68095D01*
X262878Y68174D01*
Y68637D01*
X262862Y68716D01*
Y68796D01*
X262831Y68870D01*
X262816Y68949D01*
X262771Y69016D01*
X262740Y69090D01*
X262388Y69617D01*
X262296Y70079D01*
X262388Y70541D01*
X262740Y71068D01*
X262771Y71142D01*
X262816Y71209D01*
X262831Y71287D01*
X262862Y71362D01*
Y71442D01*
X262878Y71521D01*
Y71983D01*
X262862Y72062D01*
Y72142D01*
X262831Y72217D01*
X262816Y72295D01*
X262771Y72362D01*
X262740Y72436D01*
X262330Y73050D01*
X262229Y73152D01*
X262131Y73257D01*
X262117Y73264D01*
X262105Y73275D01*
X261973Y73330D01*
X261842Y73390D01*
X261585Y73452D01*
X261514Y73455D01*
X261445Y73473D01*
X261154Y73491D01*
X261050Y73477D01*
X260945D01*
X260894Y73456D01*
X260839Y73448D01*
X260748Y73395D01*
X260651Y73355D01*
X260612Y73316D01*
X260564Y73288D01*
X260500Y73204D01*
X260453Y73157D01*
X260045Y72884D01*
X259583Y72793D01*
X259121Y72884D01*
X258729Y73146D01*
X258467Y73538D01*
X258375Y74000D01*
X258467Y74462D01*
X258729Y74854D01*
X259121Y75116D01*
X259583Y75208D01*
X260045Y75116D01*
D02*
G37*
D53*
X22220Y95008D02*
D03*
Y60992D02*
D03*
X22248Y39000D02*
D03*
Y4984D02*
D03*
D54*
X6472Y95008D02*
D03*
Y60992D02*
D03*
X6500Y39000D02*
D03*
Y4984D02*
D03*
D60*
X249700Y89400D02*
X255000D01*
D61*
X255700Y59900D02*
Y81600D01*
X252150Y85150D02*
X255700Y81600D01*
Y59900D02*
X259900Y55700D01*
Y19700D02*
Y55700D01*
Y19700D02*
X265000Y14600D01*
Y5000D02*
Y14600D01*
D65*
X45000Y95000D02*
D03*
X255000D02*
D03*
Y5000D02*
D03*
X35000D02*
D03*
D66*
X265000Y95000D02*
D03*
Y5000D02*
D03*
D67*
X142500Y50000D02*
D03*
D69*
X137500D02*
D03*
D70*
X74677Y65623D02*
D03*
X175800Y56800D02*
D03*
X179700D02*
D03*
X29900Y57300D02*
D03*
X249700Y89400D02*
D03*
X264000Y26600D02*
D03*
X252890Y27457D02*
D03*
X97000Y88600D02*
D03*
X80700Y55500D02*
D03*
X68500Y55000D02*
D03*
X44600Y67000D02*
D03*
X93200Y56500D02*
D03*
X92925Y61525D02*
D03*
X48300Y69900D02*
D03*
X36800Y75300D02*
D03*
X45700Y80000D02*
D03*
X44900Y72700D02*
D03*
X155300Y37600D02*
D03*
X184800Y51100D02*
D03*
X184600Y44600D02*
D03*
X28800Y61700D02*
D03*
X36100Y85600D02*
D03*
X29400Y90600D02*
D03*
X205400Y44700D02*
D03*
Y51500D02*
D03*
X205900Y22200D02*
D03*
X201800Y76900D02*
D03*
X70900Y23600D02*
D03*
X79800Y19600D02*
D03*
X31500Y42500D02*
D03*
X28500Y39500D02*
D03*
X50500Y37000D02*
D03*
X46500Y25500D02*
D03*
X45500Y15500D02*
D03*
X36500Y23000D02*
D03*
Y16000D02*
D03*
X29000Y9000D02*
D03*
X51000Y15500D02*
D03*
X58500D02*
D03*
X55000D02*
D03*
X50500Y29000D02*
D03*
X55000D02*
D03*
X59500D02*
D03*
X100000Y44500D02*
D03*
X108000Y44700D02*
D03*
X112000D02*
D03*
X116000D02*
D03*
X104000D02*
D03*
X100000Y38000D02*
D03*
X108000Y38200D02*
D03*
X112000D02*
D03*
X116000D02*
D03*
X104000D02*
D03*
Y31000D02*
D03*
X116000D02*
D03*
X112000D02*
D03*
X108000D02*
D03*
X100000Y30800D02*
D03*
X123800Y40200D02*
D03*
X69000Y75000D02*
D03*
X72900D02*
D03*
Y78800D02*
D03*
X69000Y78900D02*
D03*
X65400Y89500D02*
D03*
X49100Y85000D02*
D03*
X79300Y50500D02*
D03*
X78700Y59000D02*
D03*
X154500Y59100D02*
D03*
X97100Y79300D02*
D03*
X182700Y77500D02*
D03*
X168200Y16400D02*
D03*
X169000Y20900D02*
D03*
X255000Y89400D02*
D03*
X242800Y53300D02*
D03*
Y46700D02*
D03*
X236300D02*
D03*
Y53200D02*
D03*
X239504Y61000D02*
D03*
X250504Y56496D02*
D03*
Y50000D02*
D03*
Y43504D02*
D03*
X239504Y39000D02*
D03*
X228504Y43504D02*
D03*
Y50000D02*
D03*
X228500Y56500D02*
D03*
X259583Y74000D02*
D03*
X263504Y73425D02*
D03*
Y70079D02*
D03*
Y66732D02*
D03*
Y63386D02*
D03*
Y60039D02*
D03*
Y56693D02*
D03*
Y53347D02*
D03*
Y50000D02*
D03*
Y46654D02*
D03*
Y43307D02*
D03*
Y39961D02*
D03*
Y36614D02*
D03*
Y33268D02*
D03*
Y29921D02*
D03*
X256236Y26000D02*
D03*
D71*
X87800Y85100D02*
X91300Y88600D01*
X87800Y54800D02*
Y85100D01*
X91300Y88600D02*
X97000D01*
X252150Y85150D02*
X255000Y88000D01*
X249500Y82500D02*
X252150Y85150D01*
X255000Y89400D02*
Y95000D01*
Y88000D02*
Y89400D01*
X182700Y77500D02*
X187700Y82500D01*
X249500D01*
X142500Y73300D02*
X169200D01*
X112300D02*
X142500D01*
Y50000D02*
Y73300D01*
X97000Y88600D02*
X112300Y73300D01*
X173400Y77500D02*
X182700D01*
X169200Y73300D02*
X173400Y77500D01*
X83500Y50500D02*
X87800Y54800D01*
X79300Y50500D02*
X83500D01*
X58500Y15500D02*
X60200Y13800D01*
X67000D01*
X137500Y43100D02*
Y50000D01*
X137400Y43000D02*
X137500Y43100D01*
D72*
X67000Y13800D02*
X108200D01*
X137400Y43000D01*
M02*
