G04*
G04 #@! TF.GenerationSoftware,Altium Limited,Altium Designer,20.2.8 (258)*
G04*
G04 Layer_Color=65535*
%FSLAX25Y25*%
%MOIN*%
G70*
G04*
G04 #@! TF.SameCoordinates,B9B06CBA-7B7C-4559-A748-5793C5333A8F*
G04*
G04*
G04 #@! TF.FilePolarity,Positive*
G04*
G01*
G75*
%ADD10C,0.00787*%
%ADD11C,0.00984*%
%ADD12C,0.00500*%
%ADD13C,0.00600*%
%ADD14R,0.06600X0.01800*%
D10*
X268494Y82600D02*
G03*
X268494Y82600I-394J0D01*
G01*
X12280Y95992D02*
X17201D01*
X-2189D02*
X665D01*
X-2189Y60008D02*
Y95992D01*
X12280Y60008D02*
X17201D01*
X-2189D02*
X665D01*
X-2161Y4000D02*
X693D01*
X12307D02*
X17228D01*
X-2161D02*
Y39984D01*
X693D01*
X12307D02*
X17228D01*
X76906Y84874D02*
X78874D01*
Y82906D02*
Y84874D01*
X63126D02*
X65095D01*
X63126Y82906D02*
Y84874D01*
X76906Y69126D02*
X78874D01*
Y71095D01*
X63126Y69126D02*
X65095D01*
X63126D02*
Y71095D01*
X70323Y15811D02*
X85677D01*
X70323Y42189D02*
X85677D01*
Y15811D02*
Y42189D01*
X70323Y15811D02*
Y42189D01*
X112000Y61291D02*
X114559D01*
Y64146D01*
X112000Y72709D02*
X114559D01*
Y69854D02*
Y72709D01*
X151311Y20677D02*
Y30323D01*
X128378Y37311D02*
X150622D01*
X127689Y20677D02*
Y30323D01*
X128378Y13689D02*
X150622D01*
X112000Y75291D02*
X114559D01*
Y78146D01*
X112000Y86709D02*
X114559D01*
Y83854D02*
Y86709D01*
X151811Y70177D02*
Y79823D01*
X128878Y86811D02*
X151122D01*
X128189Y70177D02*
Y79823D01*
X128878Y63189D02*
X151122D01*
D11*
X72192Y88200D02*
G03*
X72192Y88200I-492J0D01*
G01*
X29504Y90579D02*
G03*
X29504Y90579I-492J0D01*
G01*
X29531Y34571D02*
G03*
X29531Y34571I-492J0D01*
G01*
X66189Y41992D02*
G03*
X66189Y41992I-492J0D01*
G01*
X160858Y16642D02*
G03*
X160858Y16642I-492J0D01*
G01*
X161358Y66142D02*
G03*
X161358Y66142I-492J0D01*
G01*
D12*
X269917Y80315D02*
X289799D01*
X209090Y19685D02*
Y80315D01*
X269917Y19685D02*
X289799D01*
Y80315D01*
D13*
X75000Y10000D02*
Y12500D01*
X125000Y10000D02*
Y12500D01*
X175000Y10000D02*
Y12500D01*
X225000Y10000D02*
Y12500D01*
X75000Y87500D02*
Y90000D01*
X125000Y87500D02*
Y90000D01*
X175000Y87500D02*
Y90000D01*
X225000Y87500D02*
Y90000D01*
X170000Y26370D02*
X176000D01*
X170000Y16370D02*
X176000D01*
Y26370D01*
X170000Y16370D02*
Y26370D01*
X259800Y87600D02*
X267200D01*
Y83400D02*
Y87600D01*
X259800Y83400D02*
X267200D01*
X259800D02*
Y87600D01*
X189900Y48800D02*
Y53200D01*
Y48800D02*
X197500D01*
X189900Y53200D02*
X197500D01*
X193302Y48800D02*
X200902D01*
X193302Y53200D02*
X200902D01*
Y48800D02*
Y53200D01*
X181200Y76200D02*
Y83800D01*
X176800Y76200D02*
X181200D01*
X176800D02*
Y83800D01*
X181200D01*
X176000Y75500D02*
Y85500D01*
X170000Y75500D02*
Y85500D01*
X176000D01*
X170000Y75500D02*
X176000D01*
X193302Y42300D02*
X200902D01*
X193302Y46700D02*
X200902D01*
Y42300D02*
Y46700D01*
X189901D02*
X197501D01*
X189901Y42300D02*
X197501D01*
X189901D02*
Y46700D01*
X87300Y82100D02*
X94700D01*
Y77900D02*
Y82100D01*
X87300Y77900D02*
X94700D01*
X87300D02*
Y82100D01*
X87200Y82800D02*
X94800D01*
X87200D02*
Y87200D01*
X94800D01*
Y82800D02*
Y87200D01*
X50300Y65400D02*
X57700D01*
X50300D02*
Y69600D01*
X57700D01*
Y65400D02*
Y69600D01*
X70300Y63100D02*
X77700D01*
Y58900D02*
Y63100D01*
X70300Y58900D02*
X77700D01*
X70300D02*
Y63100D01*
Y58100D02*
X77700D01*
Y53900D02*
Y58100D01*
X70300Y53900D02*
X77700D01*
X70300D02*
Y58100D01*
X70200Y48800D02*
X77800D01*
X70200Y53200D02*
X77800D01*
Y48800D02*
Y53200D01*
X66798D02*
X74398D01*
X66798Y48800D02*
X74398D01*
X66798D02*
Y53200D01*
X30800Y13000D02*
X35200D01*
Y19100D01*
X30800D02*
X35200D01*
X30800Y13000D02*
Y19100D01*
X29900Y65200D02*
X36000D01*
Y60800D02*
Y65200D01*
X29900Y60800D02*
X36000D01*
X29900D02*
Y65200D01*
X35200Y79280D02*
Y85379D01*
X30800Y79280D02*
X35200D01*
X30800D02*
Y85379D01*
X35200D01*
X30800Y70900D02*
Y77000D01*
X35200D01*
Y70900D02*
Y77000D01*
X30800Y70900D02*
X35200D01*
X40300Y60900D02*
Y65100D01*
Y60900D02*
X47700D01*
Y65100D01*
X40300D02*
X47700D01*
X50400Y71000D02*
Y75400D01*
Y71000D02*
X58000D01*
Y75400D01*
X50400D02*
X58000D01*
X50400Y76100D02*
Y80500D01*
Y76100D02*
X58000D01*
Y80500D01*
X50400D02*
X58000D01*
X179000Y17400D02*
X183400D01*
Y25000D01*
X179000D02*
X183400D01*
X179000Y17400D02*
Y25000D01*
X57800Y55200D02*
X62200D01*
Y62800D01*
X57800D02*
X62200D01*
X57800Y55200D02*
Y62800D01*
X268200Y12400D02*
Y16600D01*
X260800D02*
X268200D01*
X260800Y12400D02*
Y16600D01*
Y12400D02*
X268200D01*
X84200Y63800D02*
Y68200D01*
Y63800D02*
X91800D01*
Y68200D01*
X84200D02*
X91800D01*
X84200Y53800D02*
Y58200D01*
Y53800D02*
X91800D01*
Y58200D01*
X84200D02*
X91800D01*
X57700Y82900D02*
Y87100D01*
X50300D02*
X57700D01*
X50300Y82900D02*
Y87100D01*
Y82900D02*
X57700D01*
X38800Y87001D02*
X43200D01*
X38800Y79401D02*
Y87001D01*
Y79401D02*
X43200D01*
Y87001D01*
X38800Y69400D02*
X43200D01*
Y77000D01*
X38800D02*
X43200D01*
X38800Y69400D02*
Y77000D01*
X62900Y62700D02*
X67100D01*
X62900Y55300D02*
Y62700D01*
Y55300D02*
X67100D01*
Y62700D01*
X91800Y58800D02*
Y63200D01*
X84200D02*
X91800D01*
X84200Y58800D02*
Y63200D01*
Y58800D02*
X91800D01*
X40300Y34900D02*
Y39100D01*
Y34900D02*
X47700D01*
Y39100D01*
X40300D02*
X47700D01*
X33250Y59000D02*
X41750D01*
Y41000D02*
Y59000D01*
X33250Y41000D02*
X41750D01*
X33250D02*
Y59000D01*
X133500Y45750D02*
X146500D01*
X133500D02*
Y54250D01*
X146500Y45750D02*
Y54250D01*
X133500D02*
X146500D01*
X51400Y25700D02*
X55600D01*
X51400Y18300D02*
Y25700D01*
Y18300D02*
X55600D01*
Y25700D01*
X56400D02*
X60600D01*
X56400Y18300D02*
Y25700D01*
Y18300D02*
X60600D01*
Y25700D01*
X56400Y39393D02*
X60600D01*
X56400Y31993D02*
Y39393D01*
Y31993D02*
X60600D01*
Y39393D01*
X35200Y19479D02*
Y25580D01*
X30800Y19479D02*
X35200D01*
X30800D02*
Y25580D01*
X35200D01*
X30700Y39300D02*
X36800D01*
Y34900D02*
Y39300D01*
X30700Y34900D02*
X36800D01*
X30700D02*
Y39300D01*
X38900Y29000D02*
X43300D01*
X38900Y21400D02*
Y29000D01*
Y21400D02*
X43300D01*
Y29000D01*
X38800Y11400D02*
X43200D01*
Y19000D01*
X38800D02*
X43200D01*
X38800Y11400D02*
Y19000D01*
X251300Y83400D02*
Y87600D01*
Y83400D02*
X258700D01*
Y87600D01*
X251300D02*
X258700D01*
X250200Y83400D02*
Y87600D01*
X242800D02*
X250200D01*
X242800Y83400D02*
Y87600D01*
Y83400D02*
X250200D01*
X162800Y25700D02*
X167200D01*
Y33300D01*
X162800D02*
X167200D01*
X162800Y25700D02*
Y33300D01*
X206300Y12300D02*
Y16700D01*
X198700D02*
X206300D01*
X198700Y12300D02*
Y16700D01*
Y12300D02*
X206300D01*
X98300Y61200D02*
X102700D01*
Y68800D01*
X98300D02*
X102700D01*
X98300Y61200D02*
Y68800D01*
X217300Y12300D02*
Y16700D01*
X209700D02*
X217300D01*
X209700Y12300D02*
Y16700D01*
Y12300D02*
X217300D01*
X191700Y82800D02*
Y87200D01*
Y82800D02*
X199300D01*
Y87200D01*
X191700D02*
X199300D01*
X162900Y24200D02*
X167100D01*
X162900Y16800D02*
Y24200D01*
Y16800D02*
X167100D01*
Y24200D01*
X191700Y77800D02*
Y82200D01*
Y77800D02*
X199300D01*
Y82200D01*
X191700D02*
X199300D01*
X98300Y86800D02*
X102700D01*
X98300Y79200D02*
Y86800D01*
Y79200D02*
X102700D01*
Y86800D01*
X162900Y71200D02*
X167100D01*
X162900Y63800D02*
Y71200D01*
Y63800D02*
X167100D01*
Y71200D01*
X170100Y73099D02*
Y69766D01*
X170766Y69100D01*
X172099D01*
X172766Y69766D01*
Y73099D01*
X176765Y72432D02*
X176098Y73099D01*
X174765D01*
X174099Y72432D01*
Y71766D01*
X174765Y71099D01*
X176098D01*
X176765Y70433D01*
Y69766D01*
X176098Y69100D01*
X174765D01*
X174099Y69766D01*
X180763Y73099D02*
X178097D01*
Y69100D01*
X180763D01*
X178097Y71099D02*
X179430D01*
X182096Y69100D02*
Y73099D01*
X184096D01*
X184762Y72432D01*
Y71099D01*
X184096Y70433D01*
X182096D01*
X183429D02*
X184762Y69100D01*
X170600Y30100D02*
Y34099D01*
X172599D01*
X173266Y33432D01*
Y32099D01*
X172599Y31433D01*
X170600D01*
X174599Y34099D02*
Y30100D01*
X175932Y31433D01*
X177264Y30100D01*
Y34099D01*
X178597Y30100D02*
Y34099D01*
X180597D01*
X181263Y33432D01*
Y32099D01*
X180597Y31433D01*
X178597D01*
X179930D02*
X181263Y30100D01*
X134336Y90599D02*
Y88600D01*
X135336D01*
X135669Y88933D01*
Y89266D01*
X135336Y89600D01*
X134336D01*
X135336D01*
X135669Y89933D01*
Y90266D01*
X135336Y90599D01*
X134336D01*
X137335D02*
X136668D01*
X136335Y90266D01*
Y88933D01*
X136668Y88600D01*
X137335D01*
X137668Y88933D01*
Y90266D01*
X137335Y90599D01*
X139334D02*
X138668D01*
X138335Y90266D01*
Y88933D01*
X138668Y88600D01*
X139334D01*
X139667Y88933D01*
Y90266D01*
X139334Y90599D01*
X140334D02*
X141667D01*
X141000D01*
Y88600D01*
X142333D02*
X143666Y89933D01*
X144333Y90599D02*
Y88933D01*
X144666Y88600D01*
X145332D01*
X145666Y88933D01*
Y90599D01*
X147665Y90266D02*
X147332Y90599D01*
X146665D01*
X146332Y90266D01*
Y89933D01*
X146665Y89600D01*
X147332D01*
X147665Y89266D01*
Y88933D01*
X147332Y88600D01*
X146665D01*
X146332Y88933D01*
X148331Y88600D02*
Y90599D01*
X149331D01*
X149664Y90266D01*
Y89600D01*
X149331Y89266D01*
X148331D01*
X148998D02*
X149664Y88600D01*
X137334Y10100D02*
Y12099D01*
X138334D01*
X138667Y11766D01*
Y11100D01*
X138334Y10767D01*
X137334D01*
X138001D02*
X138667Y10100D01*
X140666Y11766D02*
X140333Y12099D01*
X139667D01*
X139333Y11766D01*
Y11433D01*
X139667Y11100D01*
X140333D01*
X140666Y10767D01*
Y10433D01*
X140333Y10100D01*
X139667D01*
X139333Y10433D01*
X141333Y12099D02*
X142666D01*
X141999D01*
Y10100D01*
X148600Y50932D02*
X149267Y51599D01*
X150599D01*
X151266Y50932D01*
Y50266D01*
X150599Y49599D01*
X149933D01*
X150599D01*
X151266Y48933D01*
Y48266D01*
X150599Y47600D01*
X149267D01*
X148600Y48266D01*
X152599Y51599D02*
Y48933D01*
X153932Y47600D01*
X155264Y48933D01*
Y51599D01*
X156597Y50932D02*
X157264Y51599D01*
X158597D01*
X159263Y50932D01*
Y50266D01*
X158597Y49599D01*
X157930D01*
X158597D01*
X159263Y48933D01*
Y48266D01*
X158597Y47600D01*
X157264D01*
X156597Y48266D01*
X120100Y47600D02*
Y51599D01*
X122099D01*
X122766Y50932D01*
Y49599D01*
X122099Y48933D01*
X120100D01*
X121433D02*
X122766Y47600D01*
X126765Y51599D02*
X124099D01*
Y47600D01*
X126765D01*
X124099Y49599D02*
X125432D01*
X130763Y50932D02*
X130097Y51599D01*
X128764D01*
X128097Y50932D01*
Y48266D01*
X128764Y47600D01*
X130097D01*
X130763Y48266D01*
Y49599D01*
X129430D01*
X43100Y46099D02*
Y42766D01*
X43766Y42100D01*
X45099D01*
X45766Y42766D01*
Y46099D01*
X49764Y45432D02*
X49098Y46099D01*
X47765D01*
X47099Y45432D01*
Y44766D01*
X47765Y44099D01*
X49098D01*
X49764Y43433D01*
Y42766D01*
X49098Y42100D01*
X47765D01*
X47099Y42766D01*
X51097Y46099D02*
Y42100D01*
X53097D01*
X53763Y42766D01*
Y43433D01*
X53097Y44099D01*
X51097D01*
X53097D01*
X53763Y44766D01*
Y45432D01*
X53097Y46099D01*
X51097D01*
X57762Y42100D02*
X55096D01*
X57762Y44766D01*
Y45432D01*
X57095Y46099D01*
X55763D01*
X55096Y45432D01*
X43100Y50099D02*
X45766D01*
X44433Y51432D02*
Y48766D01*
X49764Y52099D02*
X47099D01*
Y50099D01*
X48432Y50766D01*
X49098D01*
X49764Y50099D01*
Y48766D01*
X49098Y48100D01*
X47765D01*
X47099Y48766D01*
X51097Y52099D02*
Y49433D01*
X52430Y48100D01*
X53763Y49433D01*
Y52099D01*
X43100Y58099D02*
Y54766D01*
X43766Y54100D01*
X45099D01*
X45766Y54766D01*
Y58099D01*
X49764Y57432D02*
X49098Y58099D01*
X47765D01*
X47099Y57432D01*
Y56766D01*
X47765Y56099D01*
X49098D01*
X49764Y55433D01*
Y54766D01*
X49098Y54100D01*
X47765D01*
X47099Y54766D01*
X51097Y58099D02*
Y54100D01*
X53097D01*
X53763Y54766D01*
Y55433D01*
X53097Y56099D01*
X51097D01*
X53097D01*
X53763Y56766D01*
Y57432D01*
X53097Y58099D01*
X51097D01*
X55096Y54100D02*
X56429D01*
X55763D01*
Y58099D01*
X55096Y57432D01*
X3100Y57099D02*
Y53766D01*
X3766Y53100D01*
X5099D01*
X5766Y53766D01*
Y57099D01*
X7099Y53100D02*
Y55766D01*
X8432Y57099D01*
X9764Y55766D01*
Y53100D01*
Y55099D01*
X7099D01*
X11097Y53100D02*
Y57099D01*
X13097D01*
X13763Y56432D01*
Y55099D01*
X13097Y54433D01*
X11097D01*
X12430D02*
X13763Y53100D01*
X15096Y57099D02*
X17762D01*
X16429D01*
Y53100D01*
X5766Y47599D02*
X3100D01*
Y43600D01*
X5766D01*
X3100Y45599D02*
X4433D01*
X9764Y46932D02*
X9098Y47599D01*
X7765D01*
X7099Y46932D01*
Y46266D01*
X7765Y45599D01*
X9098D01*
X9764Y44933D01*
Y44266D01*
X9098Y43600D01*
X7765D01*
X7099Y44266D01*
X11097Y43600D02*
Y47599D01*
X13097D01*
X13763Y46932D01*
Y45599D01*
X13097Y44933D01*
X11097D01*
X234766Y14099D02*
X233433D01*
X234099D01*
Y10767D01*
X233433Y10100D01*
X232766D01*
X232100Y10767D01*
X238765Y10100D02*
X236099D01*
X238765Y12766D01*
Y13432D01*
X238098Y14099D01*
X236765D01*
X236099Y13432D01*
X234766Y90099D02*
X233433D01*
X234099D01*
Y86766D01*
X233433Y86100D01*
X232766D01*
X232100Y86766D01*
X236099Y86100D02*
X237432D01*
X236765D01*
Y90099D01*
X236099Y89432D01*
X30300Y53400D02*
X31633D01*
X30966D01*
Y57399D01*
X30300Y56732D01*
X139100Y42800D02*
Y44133D01*
Y43466D01*
X135101D01*
X135768Y42800D01*
D14*
X173000Y16770D02*
D03*
Y85100D02*
D03*
M02*
