G04*
G04 #@! TF.GenerationSoftware,Altium Limited,Altium Designer,20.2.8 (258)*
G04*
G04 Layer_Color=8388736*
%FSLAX25Y25*%
%MOIN*%
G70*
G04*
G04 #@! TF.SameCoordinates,B9B06CBA-7B7C-4559-A748-5793C5333A8F*
G04*
G04*
G04 #@! TF.FilePolarity,Negative*
G04*
G01*
G75*
%ADD25R,0.04528X0.02362*%
%ADD26R,0.04528X0.01181*%
G04:AMPARAMS|DCode=28|XSize=9.55mil|YSize=33.06mil|CornerRadius=4.77mil|HoleSize=0mil|Usage=FLASHONLY|Rotation=270.000|XOffset=0mil|YOffset=0mil|HoleType=Round|Shape=RoundedRectangle|*
%AMROUNDEDRECTD28*
21,1,0.00955,0.02351,0,0,270.0*
21,1,0.00000,0.03306,0,0,270.0*
1,1,0.00955,-0.01176,0.00000*
1,1,0.00955,-0.01176,0.00000*
1,1,0.00955,0.01176,0.00000*
1,1,0.00955,0.01176,0.00000*
%
%ADD28ROUNDEDRECTD28*%
G04:AMPARAMS|DCode=29|XSize=33.06mil|YSize=9.55mil|CornerRadius=4.77mil|HoleSize=0mil|Usage=FLASHONLY|Rotation=270.000|XOffset=0mil|YOffset=0mil|HoleType=Round|Shape=RoundedRectangle|*
%AMROUNDEDRECTD29*
21,1,0.03306,0.00000,0,0,270.0*
21,1,0.02351,0.00955,0,0,270.0*
1,1,0.00955,0.00000,-0.01176*
1,1,0.00955,0.00000,0.01176*
1,1,0.00955,0.00000,0.01176*
1,1,0.00955,0.00000,-0.01176*
%
%ADD29ROUNDEDRECTD29*%
%ADD30R,0.00955X0.03306*%
%ADD34R,0.05343X0.02253*%
G04:AMPARAMS|DCode=35|XSize=53.43mil|YSize=22.53mil|CornerRadius=11.26mil|HoleSize=0mil|Usage=FLASHONLY|Rotation=0.000|XOffset=0mil|YOffset=0mil|HoleType=Round|Shape=RoundedRectangle|*
%AMROUNDEDRECTD35*
21,1,0.05343,0.00000,0,0,0.0*
21,1,0.03091,0.02253,0,0,0.0*
1,1,0.02253,0.01545,0.00000*
1,1,0.02253,-0.01545,0.00000*
1,1,0.02253,-0.01545,0.00000*
1,1,0.02253,0.01545,0.00000*
%
%ADD35ROUNDEDRECTD35*%
%ADD36R,0.06102X0.05118*%
%ADD37R,0.05124X0.05124*%
%ADD38R,0.03550X0.01975*%
%ADD39R,0.01975X0.03550*%
%ADD40R,0.03550X0.03550*%
%ADD41R,0.03156X0.02762*%
G04:AMPARAMS|DCode=42|XSize=27.62mil|YSize=25.26mil|CornerRadius=7.63mil|HoleSize=0mil|Usage=FLASHONLY|Rotation=270.000|XOffset=0mil|YOffset=0mil|HoleType=Round|Shape=RoundedRectangle|*
%AMROUNDEDRECTD42*
21,1,0.02762,0.00999,0,0,270.0*
21,1,0.01235,0.02526,0,0,270.0*
1,1,0.01527,-0.00500,-0.00618*
1,1,0.01527,-0.00500,0.00618*
1,1,0.01527,0.00500,0.00618*
1,1,0.01527,0.00500,-0.00618*
%
%ADD42ROUNDEDRECTD42*%
%ADD43R,0.02526X0.02762*%
%ADD44R,0.02762X0.02526*%
%ADD45R,0.02762X0.01778*%
%ADD46R,0.01778X0.02762*%
%ADD47R,0.08071X0.08071*%
G04:AMPARAMS|DCode=48|XSize=27.62mil|YSize=25.26mil|CornerRadius=7.63mil|HoleSize=0mil|Usage=FLASHONLY|Rotation=180.000|XOffset=0mil|YOffset=0mil|HoleType=Round|Shape=RoundedRectangle|*
%AMROUNDEDRECTD48*
21,1,0.02762,0.00999,0,0,180.0*
21,1,0.01235,0.02526,0,0,180.0*
1,1,0.01527,-0.00618,0.00500*
1,1,0.01527,0.00618,0.00500*
1,1,0.01527,0.00618,-0.00500*
1,1,0.01527,-0.00618,-0.00500*
%
%ADD48ROUNDEDRECTD48*%
G04:AMPARAMS|DCode=49|XSize=129.98mil|YSize=72.9mil|CornerRadius=4.07mil|HoleSize=0mil|Usage=FLASHONLY|Rotation=90.000|XOffset=0mil|YOffset=0mil|HoleType=Round|Shape=RoundedRectangle|*
%AMROUNDEDRECTD49*
21,1,0.12998,0.06476,0,0,90.0*
21,1,0.12185,0.07290,0,0,90.0*
1,1,0.00813,0.03238,0.06093*
1,1,0.00813,0.03238,-0.06093*
1,1,0.00813,-0.03238,-0.06093*
1,1,0.00813,-0.03238,0.06093*
%
%ADD49ROUNDEDRECTD49*%
G04:AMPARAMS|DCode=50|XSize=39.43mil|YSize=72.9mil|CornerRadius=3.95mil|HoleSize=0mil|Usage=FLASHONLY|Rotation=90.000|XOffset=0mil|YOffset=0mil|HoleType=Round|Shape=RoundedRectangle|*
%AMROUNDEDRECTD50*
21,1,0.03943,0.06500,0,0,90.0*
21,1,0.03154,0.07290,0,0,90.0*
1,1,0.00790,0.03250,0.01577*
1,1,0.00790,0.03250,-0.01577*
1,1,0.00790,-0.03250,-0.01577*
1,1,0.00790,-0.03250,0.01577*
%
%ADD50ROUNDEDRECTD50*%
%ADD51C,0.06800*%
%ADD52R,0.06800X0.06800*%
G04:AMPARAMS|DCode=53|XSize=39.37mil|YSize=70.87mil|CornerRadius=19.68mil|HoleSize=0mil|Usage=FLASHONLY|Rotation=270.000|XOffset=0mil|YOffset=0mil|HoleType=Round|Shape=RoundedRectangle|*
%AMROUNDEDRECTD53*
21,1,0.03937,0.03150,0,0,270.0*
21,1,0.00000,0.07087,0,0,270.0*
1,1,0.03937,-0.01575,0.00000*
1,1,0.03937,-0.01575,0.00000*
1,1,0.03937,0.01575,0.00000*
1,1,0.03937,0.01575,0.00000*
%
%ADD53ROUNDEDRECTD53*%
G04:AMPARAMS|DCode=54|XSize=39.37mil|YSize=86.61mil|CornerRadius=19.68mil|HoleSize=0mil|Usage=FLASHONLY|Rotation=270.000|XOffset=0mil|YOffset=0mil|HoleType=Round|Shape=RoundedRectangle|*
%AMROUNDEDRECTD54*
21,1,0.03937,0.04724,0,0,270.0*
21,1,0.00000,0.08661,0,0,270.0*
1,1,0.03937,-0.02362,0.00000*
1,1,0.03937,-0.02362,0.00000*
1,1,0.03937,0.02362,0.00000*
1,1,0.03937,0.02362,0.00000*
%
%ADD54ROUNDEDRECTD54*%
%ADD55C,0.04400*%
%ADD56R,0.04400X0.04400*%
%ADD57R,0.04400X0.04400*%
G36*
X243244Y53740D02*
Y59252D01*
X246197D01*
X248756Y56693D01*
Y53740D01*
X243244D01*
D02*
G37*
D25*
X24484Y90598D02*
D03*
Y87449D02*
D03*
Y65402D02*
D03*
Y68551D02*
D03*
X24512Y34591D02*
D03*
Y31441D02*
D03*
Y9394D02*
D03*
Y12543D02*
D03*
D26*
X24484Y84890D02*
D03*
Y82921D02*
D03*
Y80953D02*
D03*
Y78984D02*
D03*
Y77016D02*
D03*
Y75047D02*
D03*
Y73079D02*
D03*
Y71110D02*
D03*
X24512Y15102D02*
D03*
Y17071D02*
D03*
Y19039D02*
D03*
Y21008D02*
D03*
Y22976D02*
D03*
Y24945D02*
D03*
Y26913D02*
D03*
Y28882D02*
D03*
D28*
X78541Y80937D02*
D03*
Y78969D02*
D03*
Y77000D02*
D03*
Y75032D02*
D03*
Y73063D02*
D03*
X63459D02*
D03*
Y75032D02*
D03*
Y77000D02*
D03*
Y78969D02*
D03*
Y80937D02*
D03*
D29*
X74937Y69459D02*
D03*
X72969D02*
D03*
X71000D02*
D03*
X69032D02*
D03*
X67063D02*
D03*
Y84541D02*
D03*
X69032D02*
D03*
X71000D02*
D03*
X72969D02*
D03*
D30*
X74937D02*
D03*
D34*
X108258Y70740D02*
D03*
Y84740D02*
D03*
D35*
Y63260D02*
D03*
X115742Y67000D02*
D03*
X108258Y77260D02*
D03*
X115742Y81000D02*
D03*
D36*
X123850Y34358D02*
D03*
X155150D02*
D03*
X123850Y16642D02*
D03*
X155150D02*
D03*
X124350Y83858D02*
D03*
X155650D02*
D03*
X124350Y66142D02*
D03*
X155650D02*
D03*
D37*
X239504Y56496D02*
D03*
X233008D02*
D03*
Y50000D02*
D03*
Y43504D02*
D03*
X239504D02*
D03*
X246000D02*
D03*
Y50000D02*
D03*
X239504D02*
D03*
D38*
X267063Y73425D02*
D03*
Y70079D02*
D03*
Y66732D02*
D03*
Y63386D02*
D03*
Y60039D02*
D03*
Y56693D02*
D03*
Y53347D02*
D03*
Y50000D02*
D03*
Y46654D02*
D03*
Y43307D02*
D03*
Y39961D02*
D03*
Y36614D02*
D03*
Y33268D02*
D03*
Y29921D02*
D03*
Y26575D02*
D03*
X211945D02*
D03*
Y29921D02*
D03*
Y33268D02*
D03*
Y36614D02*
D03*
Y39961D02*
D03*
Y43307D02*
D03*
Y46654D02*
D03*
Y50000D02*
D03*
Y53347D02*
D03*
Y56693D02*
D03*
Y60039D02*
D03*
Y63386D02*
D03*
Y66732D02*
D03*
Y70079D02*
D03*
Y73425D02*
D03*
D39*
X262929Y22441D02*
D03*
X259583D02*
D03*
X256236D02*
D03*
X252890D02*
D03*
X249543D02*
D03*
X246197D02*
D03*
X242850D02*
D03*
X239504D02*
D03*
X236157D02*
D03*
X232811D02*
D03*
X229465D02*
D03*
X226118D02*
D03*
X222772D02*
D03*
X219425D02*
D03*
X216079D02*
D03*
Y77559D02*
D03*
X219425D02*
D03*
X222772D02*
D03*
X226118D02*
D03*
X229465D02*
D03*
X232811D02*
D03*
X236157D02*
D03*
X239504D02*
D03*
X242850D02*
D03*
X246197D02*
D03*
X249543D02*
D03*
X252890D02*
D03*
X256236D02*
D03*
X259583D02*
D03*
X262929D02*
D03*
D40*
X211945Y22441D02*
D03*
X267063D02*
D03*
X211945Y77559D02*
D03*
X267063D02*
D03*
D41*
X173000Y23740D02*
D03*
Y20000D02*
D03*
Y78130D02*
D03*
Y81870D02*
D03*
D42*
X261807Y85500D02*
D03*
X265193D02*
D03*
X89307Y80000D02*
D03*
X92693D02*
D03*
X55693Y67500D02*
D03*
X52307D02*
D03*
X72307Y61000D02*
D03*
X75693D02*
D03*
X72307Y56000D02*
D03*
X75693D02*
D03*
X45693Y63000D02*
D03*
X42307D02*
D03*
X262807Y14500D02*
D03*
X266193D02*
D03*
X52307Y85000D02*
D03*
X55693D02*
D03*
X45693Y37000D02*
D03*
X42307D02*
D03*
X256693Y85500D02*
D03*
X253307D02*
D03*
X244807D02*
D03*
X248193D02*
D03*
D43*
X191999Y51000D02*
D03*
X195401D02*
D03*
D03*
X198802D02*
D03*
X195402Y44500D02*
D03*
X198803D02*
D03*
X195402D02*
D03*
X192000D02*
D03*
X89299Y85000D02*
D03*
X92701D02*
D03*
X72299Y51000D02*
D03*
X75701D02*
D03*
X72299D02*
D03*
X68898D02*
D03*
X52499Y73200D02*
D03*
X55901D02*
D03*
X52499Y78300D02*
D03*
X55901D02*
D03*
X86299Y66000D02*
D03*
X89701D02*
D03*
X86299Y56000D02*
D03*
X89701D02*
D03*
Y61000D02*
D03*
X86299D02*
D03*
X204201Y14500D02*
D03*
X200799D02*
D03*
X215201D02*
D03*
X211799D02*
D03*
X193799Y85000D02*
D03*
X197201D02*
D03*
X193799Y80000D02*
D03*
X197201D02*
D03*
D44*
X179000Y78299D02*
D03*
Y81701D02*
D03*
X181200Y19499D02*
D03*
Y22901D02*
D03*
X60000Y57299D02*
D03*
Y60701D02*
D03*
X41000Y84902D02*
D03*
Y81500D02*
D03*
Y71499D02*
D03*
Y74901D02*
D03*
X41100Y26901D02*
D03*
Y23499D02*
D03*
X41000Y13499D02*
D03*
Y16901D02*
D03*
X165000Y27799D02*
D03*
Y31201D02*
D03*
X100500Y63299D02*
D03*
Y66701D02*
D03*
Y84701D02*
D03*
Y81299D02*
D03*
D45*
X33000Y17379D02*
D03*
Y14820D02*
D03*
Y83559D02*
D03*
Y81000D02*
D03*
Y72720D02*
D03*
Y75279D02*
D03*
Y23759D02*
D03*
Y21200D02*
D03*
D46*
X31721Y63000D02*
D03*
X34280D02*
D03*
X32520Y37100D02*
D03*
X35080D02*
D03*
D47*
X71000Y77000D02*
D03*
D48*
X65000Y57307D02*
D03*
Y60693D02*
D03*
X53500Y20307D02*
D03*
Y23693D02*
D03*
X58500Y20307D02*
D03*
Y23693D02*
D03*
Y34000D02*
D03*
Y37386D02*
D03*
X165000Y18807D02*
D03*
Y22193D02*
D03*
Y65807D02*
D03*
Y69193D02*
D03*
D49*
X90303Y29000D02*
D03*
D50*
X65697Y19945D02*
D03*
Y29000D02*
D03*
Y38055D02*
D03*
D51*
X35000Y95000D02*
D03*
X45000D02*
D03*
X55000D02*
D03*
X65000D02*
D03*
X75000D02*
D03*
X85000D02*
D03*
X95000D02*
D03*
X105000D02*
D03*
X115000D02*
D03*
X125000D02*
D03*
X135000D02*
D03*
X145000D02*
D03*
X155000D02*
D03*
X165000D02*
D03*
X175000D02*
D03*
X185000D02*
D03*
X195000D02*
D03*
X205000D02*
D03*
X215000D02*
D03*
X225000D02*
D03*
X235000D02*
D03*
X245000D02*
D03*
X255000D02*
D03*
X75000Y5000D02*
D03*
X255000D02*
D03*
X245000D02*
D03*
X235000D02*
D03*
X225000D02*
D03*
X215000D02*
D03*
X205000D02*
D03*
X195000D02*
D03*
X185000D02*
D03*
X175000D02*
D03*
X165000D02*
D03*
X155000D02*
D03*
X145000D02*
D03*
X135000D02*
D03*
X125000D02*
D03*
X115000D02*
D03*
X105000D02*
D03*
X95000D02*
D03*
X85000D02*
D03*
X65000D02*
D03*
X55000D02*
D03*
X45000D02*
D03*
X35000D02*
D03*
D52*
X265000Y95000D02*
D03*
Y5000D02*
D03*
D53*
X22220Y95008D02*
D03*
Y60992D02*
D03*
X22248Y39000D02*
D03*
Y4984D02*
D03*
D54*
X6472Y95008D02*
D03*
Y60992D02*
D03*
X6500Y39000D02*
D03*
Y4984D02*
D03*
D55*
X37500Y50000D02*
D03*
Y45000D02*
D03*
X142500Y50000D02*
D03*
D56*
X37500Y55000D02*
D03*
D57*
X137500Y50000D02*
D03*
M02*
