G04*
G04 #@! TF.GenerationSoftware,Altium Limited,Altium Designer,20.2.8 (258)*
G04*
G04 Layer_Color=8421504*
%FSLAX25Y25*%
%MOIN*%
G70*
G04*
G04 #@! TF.SameCoordinates,B9B06CBA-7B7C-4559-A748-5793C5333A8F*
G04*
G04*
G04 #@! TF.FilePolarity,Positive*
G04*
G01*
G75*
%ADD15R,0.05105X0.05105*%
%ADD16R,0.04724X0.04724*%
%ADD17R,0.03150X0.01575*%
%ADD18R,0.01575X0.03150*%
%ADD19R,0.03150X0.03150*%
%ADD20R,0.02756X0.02362*%
G04:AMPARAMS|DCode=21|XSize=23.62mil|YSize=21.26mil|CornerRadius=5.63mil|HoleSize=0mil|Usage=FLASHONLY|Rotation=270.000|XOffset=0mil|YOffset=0mil|HoleType=Round|Shape=RoundedRectangle|*
%AMROUNDEDRECTD21*
21,1,0.02362,0.00999,0,0,270.0*
21,1,0.01235,0.02126,0,0,270.0*
1,1,0.01127,-0.00500,-0.00618*
1,1,0.01127,-0.00500,0.00618*
1,1,0.01127,0.00500,0.00618*
1,1,0.01127,0.00500,-0.00618*
%
%ADD21ROUNDEDRECTD21*%
%ADD22R,0.02126X0.02362*%
%ADD23R,0.02362X0.02126*%
%ADD24R,0.02362X0.01378*%
%ADD25R,0.04528X0.02362*%
%ADD26R,0.04528X0.01181*%
%ADD27R,0.01378X0.02362*%
G04:AMPARAMS|DCode=28|XSize=9.55mil|YSize=33.06mil|CornerRadius=4.77mil|HoleSize=0mil|Usage=FLASHONLY|Rotation=270.000|XOffset=0mil|YOffset=0mil|HoleType=Round|Shape=RoundedRectangle|*
%AMROUNDEDRECTD28*
21,1,0.00955,0.02351,0,0,270.0*
21,1,0.00000,0.03306,0,0,270.0*
1,1,0.00955,-0.01176,0.00000*
1,1,0.00955,-0.01176,0.00000*
1,1,0.00955,0.01176,0.00000*
1,1,0.00955,0.01176,0.00000*
%
%ADD28ROUNDEDRECTD28*%
G04:AMPARAMS|DCode=29|XSize=33.06mil|YSize=9.55mil|CornerRadius=4.77mil|HoleSize=0mil|Usage=FLASHONLY|Rotation=270.000|XOffset=0mil|YOffset=0mil|HoleType=Round|Shape=RoundedRectangle|*
%AMROUNDEDRECTD29*
21,1,0.03306,0.00000,0,0,270.0*
21,1,0.02351,0.00955,0,0,270.0*
1,1,0.00955,0.00000,-0.01176*
1,1,0.00955,0.00000,0.01176*
1,1,0.00955,0.00000,0.01176*
1,1,0.00955,0.00000,-0.01176*
%
%ADD29ROUNDEDRECTD29*%
%ADD30R,0.00955X0.03306*%
G04:AMPARAMS|DCode=31|XSize=23.62mil|YSize=21.26mil|CornerRadius=5.63mil|HoleSize=0mil|Usage=FLASHONLY|Rotation=180.000|XOffset=0mil|YOffset=0mil|HoleType=Round|Shape=RoundedRectangle|*
%AMROUNDEDRECTD31*
21,1,0.02362,0.00999,0,0,180.0*
21,1,0.01235,0.02126,0,0,180.0*
1,1,0.01127,-0.00618,0.00500*
1,1,0.01127,0.00618,0.00500*
1,1,0.01127,0.00618,-0.00500*
1,1,0.01127,-0.00618,-0.00500*
%
%ADD31ROUNDEDRECTD31*%
G04:AMPARAMS|DCode=32|XSize=125.98mil|YSize=68.9mil|CornerRadius=2.07mil|HoleSize=0mil|Usage=FLASHONLY|Rotation=90.000|XOffset=0mil|YOffset=0mil|HoleType=Round|Shape=RoundedRectangle|*
%AMROUNDEDRECTD32*
21,1,0.12598,0.06476,0,0,90.0*
21,1,0.12185,0.06890,0,0,90.0*
1,1,0.00413,0.03238,0.06093*
1,1,0.00413,0.03238,-0.06093*
1,1,0.00413,-0.03238,-0.06093*
1,1,0.00413,-0.03238,0.06093*
%
%ADD32ROUNDEDRECTD32*%
G04:AMPARAMS|DCode=33|XSize=35.43mil|YSize=68.9mil|CornerRadius=1.95mil|HoleSize=0mil|Usage=FLASHONLY|Rotation=90.000|XOffset=0mil|YOffset=0mil|HoleType=Round|Shape=RoundedRectangle|*
%AMROUNDEDRECTD33*
21,1,0.03543,0.06500,0,0,90.0*
21,1,0.03154,0.06890,0,0,90.0*
1,1,0.00390,0.03250,0.01577*
1,1,0.00390,0.03250,-0.01577*
1,1,0.00390,-0.03250,-0.01577*
1,1,0.00390,-0.03250,0.01577*
%
%ADD33ROUNDEDRECTD33*%
%ADD34R,0.05343X0.02253*%
G04:AMPARAMS|DCode=35|XSize=53.43mil|YSize=22.53mil|CornerRadius=11.26mil|HoleSize=0mil|Usage=FLASHONLY|Rotation=0.000|XOffset=0mil|YOffset=0mil|HoleType=Round|Shape=RoundedRectangle|*
%AMROUNDEDRECTD35*
21,1,0.05343,0.00000,0,0,0.0*
21,1,0.03091,0.02253,0,0,0.0*
1,1,0.02253,0.01545,0.00000*
1,1,0.02253,-0.01545,0.00000*
1,1,0.02253,-0.01545,0.00000*
1,1,0.02253,0.01545,0.00000*
%
%ADD35ROUNDEDRECTD35*%
%ADD36R,0.06102X0.05118*%
G36*
X243638Y54134D02*
Y58858D01*
X246000D01*
X248362Y56496D01*
Y54134D01*
X243638D01*
D02*
G37*
D15*
X71000Y77000D02*
D03*
D16*
X239504Y56496D02*
D03*
X233008D02*
D03*
Y50000D02*
D03*
Y43504D02*
D03*
X239504D02*
D03*
X246000D02*
D03*
Y50000D02*
D03*
X239504D02*
D03*
D17*
X267063Y73425D02*
D03*
Y70079D02*
D03*
Y66732D02*
D03*
Y63386D02*
D03*
Y60039D02*
D03*
Y56693D02*
D03*
Y53347D02*
D03*
Y50000D02*
D03*
Y46654D02*
D03*
Y43307D02*
D03*
Y39961D02*
D03*
Y36614D02*
D03*
Y33268D02*
D03*
Y29921D02*
D03*
Y26575D02*
D03*
X211945D02*
D03*
Y29921D02*
D03*
Y33268D02*
D03*
Y36614D02*
D03*
Y39961D02*
D03*
Y43307D02*
D03*
Y46654D02*
D03*
Y50000D02*
D03*
Y53347D02*
D03*
Y56693D02*
D03*
Y60039D02*
D03*
Y63386D02*
D03*
Y66732D02*
D03*
Y70079D02*
D03*
Y73425D02*
D03*
D18*
X262929Y22441D02*
D03*
X259583D02*
D03*
X256236D02*
D03*
X252890D02*
D03*
X249543D02*
D03*
X246197D02*
D03*
X242850D02*
D03*
X239504D02*
D03*
X236157D02*
D03*
X232811D02*
D03*
X229465D02*
D03*
X226118D02*
D03*
X222772D02*
D03*
X219425D02*
D03*
X216079D02*
D03*
Y77559D02*
D03*
X219425D02*
D03*
X222772D02*
D03*
X226118D02*
D03*
X229465D02*
D03*
X232811D02*
D03*
X236157D02*
D03*
X239504D02*
D03*
X242850D02*
D03*
X246197D02*
D03*
X249543D02*
D03*
X252890D02*
D03*
X256236D02*
D03*
X259583D02*
D03*
X262929D02*
D03*
D19*
X211945Y22441D02*
D03*
X267063D02*
D03*
X211945Y77559D02*
D03*
X267063D02*
D03*
D20*
X173000Y23740D02*
D03*
Y20000D02*
D03*
Y78130D02*
D03*
Y81870D02*
D03*
D21*
X261807Y85500D02*
D03*
X265193D02*
D03*
X89307Y80000D02*
D03*
X92693D02*
D03*
X55693Y67500D02*
D03*
X52307D02*
D03*
X72307Y61000D02*
D03*
X75693D02*
D03*
X72307Y56000D02*
D03*
X75693D02*
D03*
X45693Y63000D02*
D03*
X42307D02*
D03*
X262807Y14500D02*
D03*
X266193D02*
D03*
X52307Y85000D02*
D03*
X55693D02*
D03*
X45693Y37000D02*
D03*
X42307D02*
D03*
X256693Y85500D02*
D03*
X253307D02*
D03*
X244807D02*
D03*
X248193D02*
D03*
D22*
X191999Y51000D02*
D03*
X195401D02*
D03*
D03*
X198802D02*
D03*
X195402Y44500D02*
D03*
X198803D02*
D03*
X195402D02*
D03*
X192000D02*
D03*
X89299Y85000D02*
D03*
X92701D02*
D03*
X72299Y51000D02*
D03*
X75701D02*
D03*
X72299D02*
D03*
X68898D02*
D03*
X52499Y73200D02*
D03*
X55901D02*
D03*
X52499Y78300D02*
D03*
X55901D02*
D03*
X86299Y66000D02*
D03*
X89701D02*
D03*
X86299Y56000D02*
D03*
X89701D02*
D03*
Y61000D02*
D03*
X86299D02*
D03*
X204201Y14500D02*
D03*
X200799D02*
D03*
X215201D02*
D03*
X211799D02*
D03*
X193799Y85000D02*
D03*
X197201D02*
D03*
X193799Y80000D02*
D03*
X197201D02*
D03*
D23*
X179000Y78299D02*
D03*
Y81701D02*
D03*
X181200Y19499D02*
D03*
Y22901D02*
D03*
X60000Y57299D02*
D03*
Y60701D02*
D03*
X41000Y84902D02*
D03*
Y81500D02*
D03*
Y71499D02*
D03*
Y74901D02*
D03*
X41100Y26901D02*
D03*
Y23499D02*
D03*
X41000Y13499D02*
D03*
Y16901D02*
D03*
X165000Y27799D02*
D03*
Y31201D02*
D03*
X100500Y63299D02*
D03*
Y66701D02*
D03*
Y84701D02*
D03*
Y81299D02*
D03*
D24*
X33000Y17379D02*
D03*
Y14820D02*
D03*
Y83559D02*
D03*
Y81000D02*
D03*
Y72720D02*
D03*
Y75279D02*
D03*
Y23759D02*
D03*
Y21200D02*
D03*
D25*
X24484Y90598D02*
D03*
Y87449D02*
D03*
Y65402D02*
D03*
Y68551D02*
D03*
X24512Y34591D02*
D03*
Y31441D02*
D03*
Y9394D02*
D03*
Y12543D02*
D03*
D26*
X24484Y84890D02*
D03*
Y82921D02*
D03*
Y80953D02*
D03*
Y78984D02*
D03*
Y77016D02*
D03*
Y75047D02*
D03*
Y73079D02*
D03*
Y71110D02*
D03*
X24512Y15102D02*
D03*
Y17071D02*
D03*
Y19039D02*
D03*
Y21008D02*
D03*
Y22976D02*
D03*
Y24945D02*
D03*
Y26913D02*
D03*
Y28882D02*
D03*
D27*
X31721Y63000D02*
D03*
X34280D02*
D03*
X32520Y37100D02*
D03*
X35080D02*
D03*
D28*
X78541Y80937D02*
D03*
Y78969D02*
D03*
Y77000D02*
D03*
Y75032D02*
D03*
Y73063D02*
D03*
X63459D02*
D03*
Y75032D02*
D03*
Y77000D02*
D03*
Y78969D02*
D03*
Y80937D02*
D03*
D29*
X74937Y69459D02*
D03*
X72969D02*
D03*
X71000D02*
D03*
X69032D02*
D03*
X67063D02*
D03*
Y84541D02*
D03*
X69032D02*
D03*
X71000D02*
D03*
X72969D02*
D03*
D30*
X74937D02*
D03*
D31*
X65000Y57307D02*
D03*
Y60693D02*
D03*
X53500Y20307D02*
D03*
Y23693D02*
D03*
X58500Y20307D02*
D03*
Y23693D02*
D03*
Y34000D02*
D03*
Y37386D02*
D03*
X165000Y18807D02*
D03*
Y22193D02*
D03*
Y65807D02*
D03*
Y69193D02*
D03*
D32*
X90303Y29000D02*
D03*
D33*
X65697Y19945D02*
D03*
Y29000D02*
D03*
Y38055D02*
D03*
D34*
X108258Y70740D02*
D03*
Y84740D02*
D03*
D35*
Y63260D02*
D03*
X115742Y67000D02*
D03*
X108258Y77260D02*
D03*
X115742Y81000D02*
D03*
D36*
X123850Y34358D02*
D03*
X155150D02*
D03*
X123850Y16642D02*
D03*
X155150D02*
D03*
X124350Y83858D02*
D03*
X155650D02*
D03*
X124350Y66142D02*
D03*
X155650D02*
D03*
M02*
