G04*
G04 #@! TF.GenerationSoftware,Altium Limited,Altium Designer,20.2.8 (258)*
G04*
G04 Layer_Color=32896*
%FSLAX25Y25*%
%MOIN*%
G70*
G04*
G04 #@! TF.SameCoordinates,B9B06CBA-7B7C-4559-A748-5793C5333A8F*
G04*
G04*
G04 #@! TF.FilePolarity,Positive*
G04*
G01*
G75*
%ADD13C,0.00600*%
%ADD79C,0.01000*%
D13*
X267400Y33599D02*
X265401Y31600D01*
X263401Y33599D01*
X265401Y35599D02*
Y38265D01*
Y39597D02*
Y42263D01*
X267400Y43596D02*
X263401D01*
Y45595D01*
X264068Y46262D01*
X265401D01*
X266067Y45595D01*
Y43596D01*
X263401Y47595D02*
Y48928D01*
Y48261D01*
X267400D01*
Y47595D01*
Y48928D01*
Y50927D02*
X263401D01*
X267400Y53593D01*
X263401D01*
X267400Y54926D02*
Y56259D01*
Y55592D01*
X263401D01*
X264068Y54926D01*
X265401Y58258D02*
Y60924D01*
Y62257D02*
Y64923D01*
X267400Y66255D02*
X265401Y68255D01*
X263401Y66255D01*
X167448Y59932D02*
X168019Y59742D01*
X168210Y59361D01*
Y58980D01*
X168019Y58599D01*
X167638Y58409D01*
X166876Y58218D01*
X166305Y58028D01*
X165924Y57647D01*
X165734Y57266D01*
Y56695D01*
X165924Y56314D01*
X166115Y56124D01*
X166686Y55933D01*
X167448D01*
X168019Y56124D01*
X168210Y56314D01*
X168400Y56695D01*
Y57266D01*
X168210Y57647D01*
X167829Y58028D01*
X167257Y58218D01*
X166496Y58409D01*
X166115Y58599D01*
X165924Y58980D01*
Y59361D01*
X166115Y59742D01*
X166686Y59932D01*
X167448D01*
X164839Y55362D02*
X162173Y59932D01*
X161716Y58980D02*
Y59171D01*
X161525Y59551D01*
X161335Y59742D01*
X160954Y59932D01*
X160192D01*
X159811Y59742D01*
X159621Y59551D01*
X159431Y59171D01*
Y58790D01*
X159621Y58409D01*
X160002Y57837D01*
X161906Y55933D01*
X159240D01*
X155869Y58599D02*
X156060Y58028D01*
X156441Y57647D01*
X157012Y57456D01*
X157202D01*
X157774Y57647D01*
X158155Y58028D01*
X158345Y58599D01*
Y58790D01*
X158155Y59361D01*
X157774Y59742D01*
X157202Y59932D01*
X157012D01*
X156441Y59742D01*
X156060Y59361D01*
X155869Y58599D01*
Y57647D01*
X156060Y56695D01*
X156441Y56124D01*
X157012Y55933D01*
X157393D01*
X157964Y56124D01*
X158155Y56504D01*
X154784Y55362D02*
X152118Y59932D01*
X151661Y58980D02*
Y59171D01*
X151470Y59551D01*
X151280Y59742D01*
X150899Y59932D01*
X150137D01*
X149756Y59742D01*
X149566Y59551D01*
X149375Y59171D01*
Y58790D01*
X149566Y58409D01*
X149947Y57837D01*
X151851Y55933D01*
X149185D01*
X147147Y59932D02*
X147719Y59742D01*
X148100Y59171D01*
X148290Y58218D01*
Y57647D01*
X148100Y56695D01*
X147719Y56124D01*
X147147Y55933D01*
X146766D01*
X146195Y56124D01*
X145814Y56695D01*
X145624Y57647D01*
Y58218D01*
X145814Y59171D01*
X146195Y59742D01*
X146766Y59932D01*
X147147D01*
X144538Y58980D02*
Y59171D01*
X144348Y59551D01*
X144158Y59742D01*
X143777Y59932D01*
X143015D01*
X142634Y59742D01*
X142444Y59551D01*
X142253Y59171D01*
Y58790D01*
X142444Y58409D01*
X142824Y57837D01*
X144729Y55933D01*
X142063D01*
X138883Y59361D02*
X139073Y59742D01*
X139644Y59932D01*
X140025D01*
X140596Y59742D01*
X140977Y59171D01*
X141168Y58218D01*
Y57266D01*
X140977Y56504D01*
X140596Y56124D01*
X140025Y55933D01*
X139835D01*
X139263Y56124D01*
X138883Y56504D01*
X138692Y57076D01*
Y57266D01*
X138883Y57837D01*
X139263Y58218D01*
X139835Y58409D01*
X140025D01*
X140596Y58218D01*
X140977Y57837D01*
X141168Y57266D01*
X131532Y59932D02*
Y55933D01*
Y59932D02*
X129818D01*
X129246Y59742D01*
X129056Y59551D01*
X128866Y59171D01*
Y58790D01*
X129056Y58409D01*
X129246Y58218D01*
X129818Y58028D01*
X131532D02*
X129818D01*
X129246Y57837D01*
X129056Y57647D01*
X128866Y57266D01*
Y56695D01*
X129056Y56314D01*
X129246Y56124D01*
X129818Y55933D01*
X131532D01*
X125685Y58599D02*
Y55933D01*
Y58028D02*
X126066Y58409D01*
X126447Y58599D01*
X127018D01*
X127399Y58409D01*
X127780Y58028D01*
X127971Y57456D01*
Y57076D01*
X127780Y56504D01*
X127399Y56124D01*
X127018Y55933D01*
X126447D01*
X126066Y56124D01*
X125685Y56504D01*
X124619Y58599D02*
Y55933D01*
Y57456D02*
X124428Y58028D01*
X124048Y58409D01*
X123667Y58599D01*
X123095D01*
X120448Y59932D02*
Y55933D01*
Y58028D02*
X120829Y58409D01*
X121210Y58599D01*
X121781D01*
X122162Y58409D01*
X122543Y58028D01*
X122734Y57456D01*
Y57076D01*
X122543Y56504D01*
X122162Y56124D01*
X121781Y55933D01*
X121210D01*
X120829Y56124D01*
X120448Y56504D01*
X119001Y59932D02*
X118811Y59742D01*
X118620Y59932D01*
X118811Y60123D01*
X119001Y59932D01*
X118811Y58599D02*
Y55933D01*
X115630Y58599D02*
Y55933D01*
Y58028D02*
X116011Y58409D01*
X116392Y58599D01*
X116963D01*
X117344Y58409D01*
X117725Y58028D01*
X117916Y57456D01*
Y57076D01*
X117725Y56504D01*
X117344Y56124D01*
X116963Y55933D01*
X116392D01*
X116011Y56124D01*
X115630Y56504D01*
X111898Y59361D02*
X112279Y59742D01*
X112850Y59932D01*
X113612D01*
X114183Y59742D01*
X114564Y59361D01*
Y58980D01*
X114374Y58599D01*
X114183Y58409D01*
X113802Y58218D01*
X112660Y57837D01*
X112279Y57647D01*
X112088Y57456D01*
X111898Y57076D01*
Y56504D01*
X112279Y56124D01*
X112850Y55933D01*
X113612D01*
X114183Y56124D01*
X114564Y56504D01*
X110622Y59932D02*
X110432Y59742D01*
X110241Y59932D01*
X110432Y60123D01*
X110622Y59932D01*
X110432Y58599D02*
Y55933D01*
X107251Y58599D02*
Y55552D01*
X107442Y54981D01*
X107632Y54790D01*
X108013Y54600D01*
X108584D01*
X108965Y54790D01*
X107251Y58028D02*
X107632Y58409D01*
X108013Y58599D01*
X108584D01*
X108965Y58409D01*
X109346Y58028D01*
X109536Y57456D01*
Y57076D01*
X109346Y56504D01*
X108965Y56124D01*
X108584Y55933D01*
X108013D01*
X107632Y56124D01*
X107251Y56504D01*
X106185Y58599D02*
Y55933D01*
Y57837D02*
X105614Y58409D01*
X105233Y58599D01*
X104661D01*
X104280Y58409D01*
X104090Y57837D01*
Y55933D01*
X35932Y16266D02*
X36599Y15599D01*
Y14266D01*
X35932Y13600D01*
X33266D01*
X32600Y14266D01*
Y15599D01*
X33266Y16266D01*
X34599D01*
Y14933D01*
X32600Y17599D02*
X36599D01*
X32600Y20265D01*
X36599D01*
Y21597D02*
X32600D01*
Y23597D01*
X33266Y24263D01*
X35932D01*
X36599Y23597D01*
Y21597D01*
X45932Y16266D02*
X46599Y15599D01*
Y14266D01*
X45932Y13600D01*
X43266D01*
X42600Y14266D01*
Y15599D01*
X43266Y16266D01*
X44599D01*
Y14933D01*
X42600Y17599D02*
X46599D01*
Y19598D01*
X45932Y20265D01*
X44599D01*
X43933Y19598D01*
Y17599D01*
X46599Y21597D02*
Y22930D01*
Y22264D01*
X42600D01*
Y21597D01*
Y22930D01*
X46599Y26929D02*
Y25596D01*
X45932Y24930D01*
X43266D01*
X42600Y25596D01*
Y26929D01*
X43266Y27595D01*
X45932D01*
X46599Y26929D01*
X42600Y30928D02*
X46599D01*
X44599Y28928D01*
Y31594D01*
X46599Y32927D02*
Y35593D01*
X45932D01*
X43266Y32927D01*
X42600D01*
X55932Y16266D02*
X56599Y15599D01*
Y14266D01*
X55932Y13600D01*
X53266D01*
X52600Y14266D01*
Y15599D01*
X53266Y16266D01*
X54599D01*
Y14933D01*
X52600Y17599D02*
X56599D01*
Y19598D01*
X55932Y20265D01*
X54599D01*
X53933Y19598D01*
Y17599D01*
X56599Y21597D02*
Y22930D01*
Y22264D01*
X52600D01*
Y21597D01*
Y22930D01*
X56599Y26929D02*
Y25596D01*
X55932Y24930D01*
X53266D01*
X52600Y25596D01*
Y26929D01*
X53266Y27595D01*
X55932D01*
X56599Y26929D01*
X52600Y30928D02*
X56599D01*
X54599Y28928D01*
Y31594D01*
X55932Y32927D02*
X56599Y33593D01*
Y34926D01*
X55932Y35593D01*
X55266D01*
X54599Y34926D01*
X53933Y35593D01*
X53266D01*
X52600Y34926D01*
Y33593D01*
X53266Y32927D01*
X53933D01*
X54599Y33593D01*
X55266Y32927D01*
X55932D01*
X54599Y33593D02*
Y34926D01*
X67265Y13600D02*
X63933D01*
X63266Y14266D01*
Y15599D01*
X63933Y16266D01*
X67265D01*
X66599Y20265D02*
X67265Y19598D01*
Y18265D01*
X66599Y17599D01*
X65932D01*
X65266Y18265D01*
Y19598D01*
X64599Y20265D01*
X63933D01*
X63266Y19598D01*
Y18265D01*
X63933Y17599D01*
X67265Y21597D02*
X63266D01*
Y23597D01*
X63933Y24263D01*
X64599D01*
X65266Y23597D01*
Y21597D01*
Y23597D01*
X65932Y24263D01*
X66599D01*
X67265Y23597D01*
Y21597D01*
X62600Y25596D02*
Y28262D01*
X63266Y29595D02*
X67265D01*
X63266Y32261D01*
X67265D01*
X77265Y13600D02*
X73933D01*
X73266Y14266D01*
Y15599D01*
X73933Y16266D01*
X77265D01*
X76599Y20265D02*
X77265Y19598D01*
Y18265D01*
X76599Y17599D01*
X75932D01*
X75266Y18265D01*
Y19598D01*
X74599Y20265D01*
X73933D01*
X73266Y19598D01*
Y18265D01*
X73933Y17599D01*
X77265Y21597D02*
X73266D01*
Y23597D01*
X73933Y24263D01*
X74599D01*
X75266Y23597D01*
Y21597D01*
Y23597D01*
X75932Y24263D01*
X76599D01*
X77265Y23597D01*
Y21597D01*
X72600Y25596D02*
Y28262D01*
X73266Y29595D02*
X77265D01*
Y31594D01*
X76599Y32261D01*
X75266D01*
X74599Y31594D01*
Y29595D01*
X85932Y16266D02*
X86599Y15599D01*
Y14266D01*
X85932Y13600D01*
X83266D01*
X82600Y14266D01*
Y15599D01*
X83266Y16266D01*
X84599D01*
Y14933D01*
X82600Y17599D02*
X86599D01*
Y19598D01*
X85932Y20265D01*
X84599D01*
X83933Y19598D01*
Y17599D01*
X86599Y21597D02*
Y22930D01*
Y22264D01*
X82600D01*
Y21597D01*
Y22930D01*
X86599Y26929D02*
Y25596D01*
X85932Y24930D01*
X83266D01*
X82600Y25596D01*
Y26929D01*
X83266Y27595D01*
X85932D01*
X86599Y26929D01*
X82600Y31594D02*
Y28928D01*
X85266Y31594D01*
X85932D01*
X86599Y30928D01*
Y29595D01*
X85932Y28928D01*
X82600Y32927D02*
Y34260D01*
Y33593D01*
X86599D01*
X85932Y32927D01*
X145932Y16266D02*
X146599Y15599D01*
Y14266D01*
X145932Y13600D01*
X143266D01*
X142600Y14266D01*
Y15599D01*
X143266Y16266D01*
X144599D01*
Y14933D01*
X142600Y17599D02*
X146599D01*
Y19598D01*
X145932Y20265D01*
X144599D01*
X143933Y19598D01*
Y17599D01*
X146599Y21597D02*
Y22930D01*
Y22264D01*
X142600D01*
Y21597D01*
Y22930D01*
X146599Y26929D02*
Y25596D01*
X145932Y24930D01*
X143266D01*
X142600Y25596D01*
Y26929D01*
X143266Y27595D01*
X145932D01*
X146599Y26929D01*
X145932Y28928D02*
X146599Y29595D01*
Y30928D01*
X145932Y31594D01*
X145266D01*
X144599Y30928D01*
Y30261D01*
Y30928D01*
X143933Y31594D01*
X143266D01*
X142600Y30928D01*
Y29595D01*
X143266Y28928D01*
X146599Y32927D02*
Y35593D01*
X145932D01*
X143266Y32927D01*
X142600D01*
X135932Y16266D02*
X136599Y15599D01*
Y14266D01*
X135932Y13600D01*
X133266D01*
X132600Y14266D01*
Y15599D01*
X133266Y16266D01*
X134599D01*
Y14933D01*
X132600Y17599D02*
X136599D01*
Y19598D01*
X135932Y20265D01*
X134599D01*
X133933Y19598D01*
Y17599D01*
X136599Y21597D02*
Y22930D01*
Y22264D01*
X132600D01*
Y21597D01*
Y22930D01*
X136599Y26929D02*
Y25596D01*
X135932Y24930D01*
X133266D01*
X132600Y25596D01*
Y26929D01*
X133266Y27595D01*
X135932D01*
X136599Y26929D01*
X135932Y28928D02*
X136599Y29595D01*
Y30928D01*
X135932Y31594D01*
X135266D01*
X134599Y30928D01*
Y30261D01*
Y30928D01*
X133933Y31594D01*
X133266D01*
X132600Y30928D01*
Y29595D01*
X133266Y28928D01*
X136599Y35593D02*
X135932Y34260D01*
X134599Y32927D01*
X133266D01*
X132600Y33593D01*
Y34926D01*
X133266Y35593D01*
X133933D01*
X134599Y34926D01*
Y32927D01*
X125932Y16266D02*
X126599Y15599D01*
Y14266D01*
X125932Y13600D01*
X123266D01*
X122600Y14266D01*
Y15599D01*
X123266Y16266D01*
X124599D01*
Y14933D01*
X122600Y17599D02*
X126599D01*
Y19598D01*
X125932Y20265D01*
X124599D01*
X123933Y19598D01*
Y17599D01*
X126599Y21597D02*
Y22930D01*
Y22264D01*
X122600D01*
Y21597D01*
Y22930D01*
X126599Y26929D02*
Y25596D01*
X125932Y24930D01*
X123266D01*
X122600Y25596D01*
Y26929D01*
X123266Y27595D01*
X125932D01*
X126599Y26929D01*
X125932Y28928D02*
X126599Y29595D01*
Y30928D01*
X125932Y31594D01*
X125266D01*
X124599Y30928D01*
Y30261D01*
Y30928D01*
X123933Y31594D01*
X123266D01*
X122600Y30928D01*
Y29595D01*
X123266Y28928D01*
X126599Y35593D02*
Y32927D01*
X124599D01*
X125266Y34260D01*
Y34926D01*
X124599Y35593D01*
X123266D01*
X122600Y34926D01*
Y33593D01*
X123266Y32927D01*
X115932Y16266D02*
X116599Y15599D01*
Y14266D01*
X115932Y13600D01*
X113267D01*
X112600Y14266D01*
Y15599D01*
X113267Y16266D01*
X114599D01*
Y14933D01*
X112600Y17599D02*
X116599D01*
Y19598D01*
X115932Y20265D01*
X114599D01*
X113933Y19598D01*
Y17599D01*
X116599Y21597D02*
Y22930D01*
Y22264D01*
X112600D01*
Y21597D01*
Y22930D01*
X116599Y26929D02*
Y25596D01*
X115932Y24930D01*
X113267D01*
X112600Y25596D01*
Y26929D01*
X113267Y27595D01*
X115932D01*
X116599Y26929D01*
X115932Y28928D02*
X116599Y29595D01*
Y30928D01*
X115932Y31594D01*
X115266D01*
X114599Y30928D01*
Y30261D01*
Y30928D01*
X113933Y31594D01*
X113267D01*
X112600Y30928D01*
Y29595D01*
X113267Y28928D01*
X112600Y34926D02*
X116599D01*
X114599Y32927D01*
Y35593D01*
X105932Y16266D02*
X106599Y15599D01*
Y14266D01*
X105932Y13600D01*
X103267D01*
X102600Y14266D01*
Y15599D01*
X103267Y16266D01*
X104599D01*
Y14933D01*
X102600Y17599D02*
X106599D01*
Y19598D01*
X105932Y20265D01*
X104599D01*
X103933Y19598D01*
Y17599D01*
X106599Y21597D02*
Y22930D01*
Y22264D01*
X102600D01*
Y21597D01*
Y22930D01*
X106599Y26929D02*
Y25596D01*
X105932Y24930D01*
X103267D01*
X102600Y25596D01*
Y26929D01*
X103267Y27595D01*
X105932D01*
X106599Y26929D01*
X105932Y28928D02*
X106599Y29595D01*
Y30928D01*
X105932Y31594D01*
X105266D01*
X104599Y30928D01*
Y30261D01*
Y30928D01*
X103933Y31594D01*
X103267D01*
X102600Y30928D01*
Y29595D01*
X103267Y28928D01*
X105932Y32927D02*
X106599Y33593D01*
Y34926D01*
X105932Y35593D01*
X105266D01*
X104599Y34926D01*
Y34260D01*
Y34926D01*
X103933Y35593D01*
X103267D01*
X102600Y34926D01*
Y33593D01*
X103267Y32927D01*
X95932Y16266D02*
X96599Y15599D01*
Y14266D01*
X95932Y13600D01*
X93266D01*
X92600Y14266D01*
Y15599D01*
X93266Y16266D01*
X94599D01*
Y14933D01*
X92600Y17599D02*
X96599D01*
Y19598D01*
X95932Y20265D01*
X94599D01*
X93933Y19598D01*
Y17599D01*
X96599Y21597D02*
Y22930D01*
Y22264D01*
X92600D01*
Y21597D01*
Y22930D01*
X96599Y26929D02*
Y25596D01*
X95932Y24930D01*
X93266D01*
X92600Y25596D01*
Y26929D01*
X93266Y27595D01*
X95932D01*
X96599Y26929D01*
X92600Y31594D02*
Y28928D01*
X95266Y31594D01*
X95932D01*
X96599Y30928D01*
Y29595D01*
X95932Y28928D01*
X96599Y35593D02*
X95932Y34260D01*
X94599Y32927D01*
X93266D01*
X92600Y33593D01*
Y34926D01*
X93266Y35593D01*
X93933D01*
X94599Y34926D01*
Y32927D01*
X206599Y13600D02*
X203267D01*
X202600Y14266D01*
Y15599D01*
X203267Y16266D01*
X206599D01*
X205932Y17599D02*
X206599Y18265D01*
Y19598D01*
X205932Y20265D01*
X203267D01*
X202600Y19598D01*
Y18265D01*
X203267Y17599D01*
X205932D01*
X206599Y21597D02*
Y24263D01*
Y22930D01*
X202600D01*
X206599Y25596D02*
X202600Y28262D01*
X206599D02*
X202600Y25596D01*
X206599Y29595D02*
X202600D01*
Y31594D01*
X203267Y32261D01*
X205932D01*
X206599Y31594D01*
Y29595D01*
X195932Y16266D02*
X196599Y15599D01*
Y14266D01*
X195932Y13600D01*
X193266D01*
X192600Y14266D01*
Y15599D01*
X193266Y16266D01*
X194599D01*
Y14933D01*
X192600Y17599D02*
X196599D01*
Y19598D01*
X195932Y20265D01*
X194599D01*
X193933Y19598D01*
Y17599D01*
X196599Y21597D02*
Y22930D01*
Y22264D01*
X192600D01*
Y21597D01*
Y22930D01*
X196599Y26929D02*
Y25596D01*
X195932Y24930D01*
X193266D01*
X192600Y25596D01*
Y26929D01*
X193266Y27595D01*
X195932D01*
X196599Y26929D01*
X192600Y30928D02*
X196599D01*
X194599Y28928D01*
Y31594D01*
X192600Y35593D02*
Y32927D01*
X195266Y35593D01*
X195932D01*
X196599Y34926D01*
Y33593D01*
X195932Y32927D01*
X185932Y16266D02*
X186599Y15599D01*
Y14266D01*
X185932Y13600D01*
X183266D01*
X182600Y14266D01*
Y15599D01*
X183266Y16266D01*
X184599D01*
Y14933D01*
X182600Y17599D02*
X186599D01*
Y19598D01*
X185932Y20265D01*
X184599D01*
X183933Y19598D01*
Y17599D01*
X186599Y21597D02*
Y22930D01*
Y22264D01*
X182600D01*
Y21597D01*
Y22930D01*
X186599Y26929D02*
Y25596D01*
X185932Y24930D01*
X183266D01*
X182600Y25596D01*
Y26929D01*
X183266Y27595D01*
X185932D01*
X186599Y26929D01*
X182600Y30928D02*
X186599D01*
X184599Y28928D01*
Y31594D01*
X182600Y32927D02*
Y34260D01*
Y33593D01*
X186599D01*
X185932Y32927D01*
X175932Y16266D02*
X176599Y15599D01*
Y14266D01*
X175932Y13600D01*
X173266D01*
X172600Y14266D01*
Y15599D01*
X173266Y16266D01*
X174599D01*
Y14933D01*
X172600Y17599D02*
X176599D01*
Y19598D01*
X175932Y20265D01*
X174599D01*
X173933Y19598D01*
Y17599D01*
X176599Y21597D02*
Y22930D01*
Y22264D01*
X172600D01*
Y21597D01*
Y22930D01*
X176599Y26929D02*
Y25596D01*
X175932Y24930D01*
X173266D01*
X172600Y25596D01*
Y26929D01*
X173266Y27595D01*
X175932D01*
X176599Y26929D01*
X172600Y30928D02*
X176599D01*
X174599Y28928D01*
Y31594D01*
X175932Y32927D02*
X176599Y33593D01*
Y34926D01*
X175932Y35593D01*
X173266D01*
X172600Y34926D01*
Y33593D01*
X173266Y32927D01*
X175932D01*
X165932Y16266D02*
X166599Y15599D01*
Y14266D01*
X165932Y13600D01*
X163267D01*
X162600Y14266D01*
Y15599D01*
X163267Y16266D01*
X164599D01*
Y14933D01*
X162600Y17599D02*
X166599D01*
Y19598D01*
X165932Y20265D01*
X164599D01*
X163933Y19598D01*
Y17599D01*
X166599Y21597D02*
Y22930D01*
Y22264D01*
X162600D01*
Y21597D01*
Y22930D01*
X166599Y26929D02*
Y25596D01*
X165932Y24930D01*
X163267D01*
X162600Y25596D01*
Y26929D01*
X163267Y27595D01*
X165932D01*
X166599Y26929D01*
X165932Y28928D02*
X166599Y29595D01*
Y30928D01*
X165932Y31594D01*
X165266D01*
X164599Y30928D01*
Y30261D01*
Y30928D01*
X163933Y31594D01*
X163267D01*
X162600Y30928D01*
Y29595D01*
X163267Y28928D01*
Y32927D02*
X162600Y33593D01*
Y34926D01*
X163267Y35593D01*
X165932D01*
X166599Y34926D01*
Y33593D01*
X165932Y32927D01*
X165266D01*
X164599Y33593D01*
Y35593D01*
X155932Y16266D02*
X156599Y15599D01*
Y14266D01*
X155932Y13600D01*
X153267D01*
X152600Y14266D01*
Y15599D01*
X153267Y16266D01*
X154599D01*
Y14933D01*
X152600Y17599D02*
X156599D01*
Y19598D01*
X155932Y20265D01*
X154599D01*
X153933Y19598D01*
Y17599D01*
X156599Y21597D02*
Y22930D01*
Y22264D01*
X152600D01*
Y21597D01*
Y22930D01*
X156599Y26929D02*
Y25596D01*
X155932Y24930D01*
X153267D01*
X152600Y25596D01*
Y26929D01*
X153267Y27595D01*
X155932D01*
X156599Y26929D01*
X155932Y28928D02*
X156599Y29595D01*
Y30928D01*
X155932Y31594D01*
X155266D01*
X154599Y30928D01*
Y30261D01*
Y30928D01*
X153933Y31594D01*
X153267D01*
X152600Y30928D01*
Y29595D01*
X153267Y28928D01*
X155932Y32927D02*
X156599Y33593D01*
Y34926D01*
X155932Y35593D01*
X155266D01*
X154599Y34926D01*
X153933Y35593D01*
X153267D01*
X152600Y34926D01*
Y33593D01*
X153267Y32927D01*
X153933D01*
X154599Y33593D01*
X155266Y32927D01*
X155932D01*
X154599Y33593D02*
Y34926D01*
X265932Y13600D02*
X266599Y14266D01*
Y15599D01*
X265932Y16266D01*
X265266D01*
X264599Y15599D01*
Y14933D01*
Y15599D01*
X263933Y16266D01*
X263266D01*
X262600Y15599D01*
Y14266D01*
X263266Y13600D01*
X266599Y17599D02*
X263933D01*
X262600Y18932D01*
X263933Y20265D01*
X266599D01*
X265932Y21597D02*
X266599Y22264D01*
Y23597D01*
X265932Y24263D01*
X265266D01*
X264599Y23597D01*
Y22930D01*
Y23597D01*
X263933Y24263D01*
X263266D01*
X262600Y23597D01*
Y22264D01*
X263266Y21597D01*
X255932Y16266D02*
X256599Y15599D01*
Y14266D01*
X255932Y13600D01*
X253266D01*
X252600Y14266D01*
Y15599D01*
X253266Y16266D01*
X254599D01*
Y14933D01*
X252600Y17599D02*
X256599D01*
X252600Y20265D01*
X256599D01*
Y21597D02*
X252600D01*
Y23597D01*
X253266Y24263D01*
X255932D01*
X256599Y23597D01*
Y21597D01*
X246599Y16266D02*
X247265Y15599D01*
Y14266D01*
X246599Y13600D01*
X243933D01*
X243267Y14266D01*
Y15599D01*
X243933Y16266D01*
X247265Y17599D02*
X243267D01*
X245266D01*
Y20265D01*
X247265D01*
X243267D01*
X247265Y21597D02*
Y22930D01*
Y22264D01*
X243267D01*
Y21597D01*
Y22930D01*
Y24930D02*
X247265D01*
Y26929D01*
X246599Y27595D01*
X245266D01*
X244599Y26929D01*
Y24930D01*
X242600Y28928D02*
Y31594D01*
X243267Y32927D02*
X247265D01*
Y34926D01*
X246599Y35593D01*
X245266D01*
X244599Y34926D01*
Y32927D01*
X247265Y36926D02*
X243933D01*
X243267Y37592D01*
Y38925D01*
X243933Y39592D01*
X247265D01*
X235932Y16266D02*
X236599Y15599D01*
Y14266D01*
X235932Y13600D01*
X233266D01*
X232600Y14266D01*
Y15599D01*
X233266Y16266D01*
X234599D01*
Y14933D01*
X232600Y17599D02*
X236599D01*
Y19598D01*
X235932Y20265D01*
X234599D01*
X233933Y19598D01*
Y17599D01*
X236599Y21597D02*
Y22930D01*
Y22264D01*
X232600D01*
Y21597D01*
Y22930D01*
X236599Y26929D02*
Y25596D01*
X235932Y24930D01*
X233266D01*
X232600Y25596D01*
Y26929D01*
X233266Y27595D01*
X235932D01*
X236599Y26929D01*
X232600Y30928D02*
X236599D01*
X234599Y28928D01*
Y31594D01*
X236599Y35593D02*
X235932Y34260D01*
X234599Y32927D01*
X233266D01*
X232600Y33593D01*
Y34926D01*
X233266Y35593D01*
X233933D01*
X234599Y34926D01*
Y32927D01*
X225932Y16266D02*
X226599Y15599D01*
Y14266D01*
X225932Y13600D01*
X223266D01*
X222600Y14266D01*
Y15599D01*
X223266Y16266D01*
X224599D01*
Y14933D01*
X222600Y17599D02*
X226599D01*
Y19598D01*
X225932Y20265D01*
X224599D01*
X223933Y19598D01*
Y17599D01*
X226599Y21597D02*
Y22930D01*
Y22264D01*
X222600D01*
Y21597D01*
Y22930D01*
X226599Y26929D02*
Y25596D01*
X225932Y24930D01*
X223266D01*
X222600Y25596D01*
Y26929D01*
X223266Y27595D01*
X225932D01*
X226599Y26929D01*
X222600Y30928D02*
X226599D01*
X224599Y28928D01*
Y31594D01*
X226599Y35593D02*
Y32927D01*
X224599D01*
X225266Y34260D01*
Y34926D01*
X224599Y35593D01*
X223266D01*
X222600Y34926D01*
Y33593D01*
X223266Y32927D01*
X216599Y13600D02*
X213266D01*
X212600Y14266D01*
Y15599D01*
X213266Y16266D01*
X216599D01*
X215932Y17599D02*
X216599Y18265D01*
Y19598D01*
X215932Y20265D01*
X213266D01*
X212600Y19598D01*
Y18265D01*
X213266Y17599D01*
X215932D01*
X212600Y21597D02*
X216599D01*
Y23597D01*
X215932Y24263D01*
X214599D01*
X213933Y23597D01*
Y21597D01*
Y22930D02*
X212600Y24263D01*
X216599Y25596D02*
X212600Y28262D01*
X216599D02*
X212600Y25596D01*
X216599Y29595D02*
X212600D01*
Y31594D01*
X213266Y32261D01*
X215932D01*
X216599Y31594D01*
Y29595D01*
X84068Y83734D02*
X83401Y84401D01*
Y85734D01*
X84068Y86400D01*
X86734D01*
X87400Y85734D01*
Y84401D01*
X86734Y83734D01*
X85401D01*
Y85067D01*
X87400Y82401D02*
X83401D01*
Y80402D01*
X84068Y79735D01*
X85401D01*
X86067Y80402D01*
Y82401D01*
X83401Y78403D02*
Y77070D01*
Y77736D01*
X87400D01*
Y78403D01*
Y77070D01*
X83401Y73071D02*
Y74404D01*
X84068Y75070D01*
X86734D01*
X87400Y74404D01*
Y73071D01*
X86734Y72404D01*
X84068D01*
X83401Y73071D01*
X87400Y71072D02*
Y69739D01*
Y70405D01*
X83401D01*
X84068Y71072D01*
X83401Y65074D02*
X84068Y66406D01*
X85401Y67739D01*
X86734D01*
X87400Y67073D01*
Y65740D01*
X86734Y65074D01*
X86067D01*
X85401Y65740D01*
Y67739D01*
X74068Y83734D02*
X73401Y84401D01*
Y85734D01*
X74068Y86400D01*
X76734D01*
X77400Y85734D01*
Y84401D01*
X76734Y83734D01*
X75401D01*
Y85067D01*
X77400Y82401D02*
X73401D01*
Y80402D01*
X74068Y79735D01*
X75401D01*
X76067Y80402D01*
Y82401D01*
X73401Y78403D02*
Y77070D01*
Y77736D01*
X77400D01*
Y78403D01*
Y77070D01*
X73401Y73071D02*
Y74404D01*
X74068Y75070D01*
X76734D01*
X77400Y74404D01*
Y73071D01*
X76734Y72404D01*
X74068D01*
X73401Y73071D01*
X77400Y71072D02*
Y69739D01*
Y70405D01*
X73401D01*
X74068Y71072D01*
X73401Y67739D02*
Y65074D01*
X74068D01*
X76734Y67739D01*
X77400D01*
X64068Y83734D02*
X63401Y84401D01*
Y85734D01*
X64068Y86400D01*
X66734D01*
X67400Y85734D01*
Y84401D01*
X66734Y83734D01*
X65401D01*
Y85067D01*
X67400Y82401D02*
X63401D01*
Y80402D01*
X64068Y79735D01*
X65401D01*
X66067Y80402D01*
Y82401D01*
X63401Y78403D02*
Y77070D01*
Y77736D01*
X67400D01*
Y78403D01*
Y77070D01*
X63401Y73071D02*
Y74404D01*
X64068Y75070D01*
X66734D01*
X67400Y74404D01*
Y73071D01*
X66734Y72404D01*
X64068D01*
X63401Y73071D01*
X67400Y71072D02*
Y69739D01*
Y70405D01*
X63401D01*
X64068Y71072D01*
Y67739D02*
X63401Y67073D01*
Y65740D01*
X64068Y65074D01*
X64734D01*
X65401Y65740D01*
X66067Y65074D01*
X66734D01*
X67400Y65740D01*
Y67073D01*
X66734Y67739D01*
X66067D01*
X65401Y67073D01*
X64734Y67739D01*
X64068D01*
X65401Y67073D02*
Y65740D01*
X55401Y86400D02*
Y83734D01*
X54068Y85067D02*
X56734D01*
X53401Y79735D02*
Y82401D01*
X55401D01*
X54734Y81068D01*
Y80402D01*
X55401Y79735D01*
X56734D01*
X57400Y80402D01*
Y81735D01*
X56734Y82401D01*
X53401Y78403D02*
X56067D01*
X57400Y77070D01*
X56067Y75737D01*
X53401D01*
X44068Y83734D02*
X43401Y84401D01*
Y85734D01*
X44068Y86400D01*
X46734D01*
X47400Y85734D01*
Y84401D01*
X46734Y83734D01*
X45401D01*
Y85067D01*
X47400Y82401D02*
X43401D01*
X47400Y79735D01*
X43401D01*
Y78403D02*
X47400D01*
Y76403D01*
X46734Y75737D01*
X44068D01*
X43401Y76403D01*
Y78403D01*
X37400Y86400D02*
X33401D01*
X37400Y83734D01*
X33401D01*
X34068Y79735D02*
X33401Y80402D01*
Y81735D01*
X34068Y82401D01*
X36734D01*
X37400Y81735D01*
Y80402D01*
X36734Y79735D01*
X144068Y83734D02*
X143401Y84401D01*
Y85734D01*
X144068Y86400D01*
X146733D01*
X147400Y85734D01*
Y84401D01*
X146733Y83734D01*
X145401D01*
Y85067D01*
X147400Y82401D02*
X143401D01*
Y80402D01*
X144068Y79735D01*
X145401D01*
X146067Y80402D01*
Y82401D01*
X143401Y78403D02*
Y77070D01*
Y77736D01*
X147400D01*
Y78403D01*
Y77070D01*
X143401Y73071D02*
Y74404D01*
X144068Y75070D01*
X146733D01*
X147400Y74404D01*
Y73071D01*
X146733Y72404D01*
X144068D01*
X143401Y73071D01*
X147400Y71072D02*
Y69739D01*
Y70405D01*
X143401D01*
X144068Y71072D01*
Y67739D02*
X143401Y67073D01*
Y65740D01*
X144068Y65074D01*
X146733D01*
X147400Y65740D01*
Y67073D01*
X146733Y67739D01*
X144068D01*
X134068Y83734D02*
X133401Y84401D01*
Y85734D01*
X134068Y86400D01*
X136733D01*
X137400Y85734D01*
Y84401D01*
X136733Y83734D01*
X135401D01*
Y85067D01*
X137400Y82401D02*
X133401D01*
Y80402D01*
X134068Y79735D01*
X135401D01*
X136067Y80402D01*
Y82401D01*
X133401Y78403D02*
Y77070D01*
Y77736D01*
X137400D01*
Y78403D01*
Y77070D01*
X133401Y73071D02*
Y74404D01*
X134068Y75070D01*
X136733D01*
X137400Y74404D01*
Y73071D01*
X136733Y72404D01*
X134068D01*
X133401Y73071D01*
X137400Y71072D02*
Y69739D01*
Y70405D01*
X133401D01*
X134068Y71072D01*
X137400Y67739D02*
Y66406D01*
Y67073D01*
X133401D01*
X134068Y67739D01*
X124068Y83734D02*
X123401Y84401D01*
Y85734D01*
X124068Y86400D01*
X126734D01*
X127400Y85734D01*
Y84401D01*
X126734Y83734D01*
X125401D01*
Y85067D01*
X127400Y82401D02*
X123401D01*
Y80402D01*
X124068Y79735D01*
X125401D01*
X126067Y80402D01*
Y82401D01*
X123401Y78403D02*
Y77070D01*
Y77736D01*
X127400D01*
Y78403D01*
Y77070D01*
X123401Y73071D02*
Y74404D01*
X124068Y75070D01*
X126734D01*
X127400Y74404D01*
Y73071D01*
X126734Y72404D01*
X124068D01*
X123401Y73071D01*
X127400Y71072D02*
Y69739D01*
Y70405D01*
X123401D01*
X124068Y71072D01*
X127400Y65074D02*
Y67739D01*
X124734Y65074D01*
X124068D01*
X123401Y65740D01*
Y67073D01*
X124068Y67739D01*
X114068Y83734D02*
X113401Y84401D01*
Y85734D01*
X114068Y86400D01*
X116734D01*
X117400Y85734D01*
Y84401D01*
X116734Y83734D01*
X115401D01*
Y85067D01*
X117400Y82401D02*
X113401D01*
Y80402D01*
X114068Y79735D01*
X115401D01*
X116067Y80402D01*
Y82401D01*
X113401Y78403D02*
Y77070D01*
Y77736D01*
X117400D01*
Y78403D01*
Y77070D01*
X113401Y73071D02*
Y74404D01*
X114068Y75070D01*
X116734D01*
X117400Y74404D01*
Y73071D01*
X116734Y72404D01*
X114068D01*
X113401Y73071D01*
X117400Y71072D02*
Y69739D01*
Y70405D01*
X113401D01*
X114068Y71072D01*
Y67739D02*
X113401Y67073D01*
Y65740D01*
X114068Y65074D01*
X114734D01*
X115401Y65740D01*
Y66406D01*
Y65740D01*
X116067Y65074D01*
X116734D01*
X117400Y65740D01*
Y67073D01*
X116734Y67739D01*
X104068Y83734D02*
X103401Y84401D01*
Y85734D01*
X104068Y86400D01*
X106734D01*
X107400Y85734D01*
Y84401D01*
X106734Y83734D01*
X105401D01*
Y85067D01*
X107400Y82401D02*
X103401D01*
Y80402D01*
X104068Y79735D01*
X105401D01*
X106067Y80402D01*
Y82401D01*
X103401Y78403D02*
Y77070D01*
Y77736D01*
X107400D01*
Y78403D01*
Y77070D01*
X103401Y73071D02*
Y74404D01*
X104068Y75070D01*
X106734D01*
X107400Y74404D01*
Y73071D01*
X106734Y72404D01*
X104068D01*
X103401Y73071D01*
X107400Y71072D02*
Y69739D01*
Y70405D01*
X103401D01*
X104068Y71072D01*
X107400Y65740D02*
X103401D01*
X105401Y67739D01*
Y65074D01*
X94068Y83734D02*
X93401Y84401D01*
Y85734D01*
X94068Y86400D01*
X96734D01*
X97400Y85734D01*
Y84401D01*
X96734Y83734D01*
X95401D01*
Y85067D01*
X97400Y82401D02*
X93401D01*
Y80402D01*
X94068Y79735D01*
X95401D01*
X96067Y80402D01*
Y82401D01*
X93401Y78403D02*
Y77070D01*
Y77736D01*
X97400D01*
Y78403D01*
Y77070D01*
X93401Y73071D02*
Y74404D01*
X94068Y75070D01*
X96734D01*
X97400Y74404D01*
Y73071D01*
X96734Y72404D01*
X94068D01*
X93401Y73071D01*
X97400Y71072D02*
Y69739D01*
Y70405D01*
X93401D01*
X94068Y71072D01*
X93401Y65074D02*
Y67739D01*
X95401D01*
X94734Y66406D01*
Y65740D01*
X95401Y65074D01*
X96734D01*
X97400Y65740D01*
Y67073D01*
X96734Y67739D01*
X204068Y83734D02*
X203401Y84401D01*
Y85734D01*
X204068Y86400D01*
X206734D01*
X207400Y85734D01*
Y84401D01*
X206734Y83734D01*
X205401D01*
Y85067D01*
X207400Y82401D02*
X203401D01*
Y80402D01*
X204068Y79735D01*
X205401D01*
X206067Y80402D01*
Y82401D01*
X203401Y78403D02*
Y77070D01*
Y77736D01*
X207400D01*
Y78403D01*
Y77070D01*
X203401Y73071D02*
Y74404D01*
X204068Y75070D01*
X206734D01*
X207400Y74404D01*
Y73071D01*
X206734Y72404D01*
X204068D01*
X203401Y73071D01*
X207400Y69072D02*
X203401D01*
X205401Y71072D01*
Y68406D01*
X194068Y83734D02*
X193401Y84401D01*
Y85734D01*
X194068Y86400D01*
X196733D01*
X197400Y85734D01*
Y84401D01*
X196733Y83734D01*
X195401D01*
Y85067D01*
X197400Y82401D02*
X193401D01*
Y80402D01*
X194068Y79735D01*
X195401D01*
X196067Y80402D01*
Y82401D01*
X193401Y78403D02*
Y77070D01*
Y77736D01*
X197400D01*
Y78403D01*
Y77070D01*
X193401Y73071D02*
Y74404D01*
X194068Y75070D01*
X196733D01*
X197400Y74404D01*
Y73071D01*
X196733Y72404D01*
X194068D01*
X193401Y73071D01*
Y68406D02*
Y71072D01*
X195401D01*
X194734Y69739D01*
Y69072D01*
X195401Y68406D01*
X196733D01*
X197400Y69072D01*
Y70405D01*
X196733Y71072D01*
X184068Y83734D02*
X183401Y84401D01*
Y85734D01*
X184068Y86400D01*
X186733D01*
X187400Y85734D01*
Y84401D01*
X186733Y83734D01*
X185401D01*
Y85067D01*
X187400Y82401D02*
X183401D01*
Y80402D01*
X184068Y79735D01*
X185401D01*
X186067Y80402D01*
Y82401D01*
X183401Y78403D02*
Y77070D01*
Y77736D01*
X187400D01*
Y78403D01*
Y77070D01*
X183401Y73071D02*
Y74404D01*
X184068Y75070D01*
X186733D01*
X187400Y74404D01*
Y73071D01*
X186733Y72404D01*
X184068D01*
X183401Y73071D01*
Y68406D02*
X184068Y69739D01*
X185401Y71072D01*
X186733D01*
X187400Y70405D01*
Y69072D01*
X186733Y68406D01*
X186067D01*
X185401Y69072D01*
Y71072D01*
X174068Y83734D02*
X173401Y84401D01*
Y85734D01*
X174068Y86400D01*
X176734D01*
X177400Y85734D01*
Y84401D01*
X176734Y83734D01*
X175401D01*
Y85067D01*
X177400Y82401D02*
X173401D01*
Y80402D01*
X174068Y79735D01*
X175401D01*
X176067Y80402D01*
Y82401D01*
X173401Y78403D02*
Y77070D01*
Y77736D01*
X177400D01*
Y78403D01*
Y77070D01*
X173401Y73071D02*
Y74404D01*
X174068Y75070D01*
X176734D01*
X177400Y74404D01*
Y73071D01*
X176734Y72404D01*
X174068D01*
X173401Y73071D01*
Y71072D02*
Y68406D01*
X174068D01*
X176734Y71072D01*
X177400D01*
X164068Y83734D02*
X163401Y84401D01*
Y85734D01*
X164068Y86400D01*
X166734D01*
X167400Y85734D01*
Y84401D01*
X166734Y83734D01*
X165401D01*
Y85067D01*
X167400Y82401D02*
X163401D01*
Y80402D01*
X164068Y79735D01*
X165401D01*
X166067Y80402D01*
Y82401D01*
X163401Y78403D02*
Y77070D01*
Y77736D01*
X167400D01*
Y78403D01*
Y77070D01*
X163401Y73071D02*
Y74404D01*
X164068Y75070D01*
X166734D01*
X167400Y74404D01*
Y73071D01*
X166734Y72404D01*
X164068D01*
X163401Y73071D01*
X164068Y71072D02*
X163401Y70405D01*
Y69072D01*
X164068Y68406D01*
X164734D01*
X165401Y69072D01*
X166067Y68406D01*
X166734D01*
X167400Y69072D01*
Y70405D01*
X166734Y71072D01*
X166067D01*
X165401Y70405D01*
X164734Y71072D01*
X164068D01*
X165401Y70405D02*
Y69072D01*
X154068Y83734D02*
X153401Y84401D01*
Y85734D01*
X154068Y86400D01*
X156734D01*
X157400Y85734D01*
Y84401D01*
X156734Y83734D01*
X155401D01*
Y85067D01*
X157400Y82401D02*
X153401D01*
Y80402D01*
X154068Y79735D01*
X155401D01*
X156067Y80402D01*
Y82401D01*
X153401Y78403D02*
Y77070D01*
Y77736D01*
X157400D01*
Y78403D01*
Y77070D01*
X153401Y73071D02*
Y74404D01*
X154068Y75070D01*
X156734D01*
X157400Y74404D01*
Y73071D01*
X156734Y72404D01*
X154068D01*
X153401Y73071D01*
X156734Y71072D02*
X157400Y70405D01*
Y69072D01*
X156734Y68406D01*
X154068D01*
X153401Y69072D01*
Y70405D01*
X154068Y71072D01*
X154734D01*
X155401Y70405D01*
Y68406D01*
X214068Y83734D02*
X213401Y84401D01*
Y85734D01*
X214068Y86400D01*
X216734D01*
X217400Y85734D01*
Y84401D01*
X216734Y83734D01*
X215401D01*
Y85067D01*
X217400Y82401D02*
X213401D01*
Y80402D01*
X214068Y79735D01*
X215401D01*
X216067Y80402D01*
Y82401D01*
X213401Y78403D02*
Y77070D01*
Y77736D01*
X217400D01*
Y78403D01*
Y77070D01*
X213401Y73071D02*
Y74404D01*
X214068Y75070D01*
X216734D01*
X217400Y74404D01*
Y73071D01*
X216734Y72404D01*
X214068D01*
X213401Y73071D01*
X214068Y71072D02*
X213401Y70405D01*
Y69072D01*
X214068Y68406D01*
X214734D01*
X215401Y69072D01*
Y69739D01*
Y69072D01*
X216067Y68406D01*
X216734D01*
X217400Y69072D01*
Y70405D01*
X216734Y71072D01*
X224068Y83734D02*
X223401Y84401D01*
Y85734D01*
X224068Y86400D01*
X226734D01*
X227400Y85734D01*
Y84401D01*
X226734Y83734D01*
X225401D01*
Y85067D01*
X227400Y82401D02*
X223401D01*
Y80402D01*
X224068Y79735D01*
X225401D01*
X226067Y80402D01*
Y82401D01*
X223401Y78403D02*
Y77070D01*
Y77736D01*
X227400D01*
Y78403D01*
Y77070D01*
X223401Y73071D02*
Y74404D01*
X224068Y75070D01*
X226734D01*
X227400Y74404D01*
Y73071D01*
X226734Y72404D01*
X224068D01*
X223401Y73071D01*
X227400Y68406D02*
Y71072D01*
X224734Y68406D01*
X224068D01*
X223401Y69072D01*
Y70405D01*
X224068Y71072D01*
X234068Y83734D02*
X233401Y84401D01*
Y85734D01*
X234068Y86400D01*
X236734D01*
X237400Y85734D01*
Y84401D01*
X236734Y83734D01*
X235401D01*
Y85067D01*
X237400Y82401D02*
X233401D01*
Y80402D01*
X234068Y79735D01*
X235401D01*
X236067Y80402D01*
Y82401D01*
X233401Y78403D02*
Y77070D01*
Y77736D01*
X237400D01*
Y78403D01*
Y77070D01*
X233401Y73071D02*
Y74404D01*
X234068Y75070D01*
X236734D01*
X237400Y74404D01*
Y73071D01*
X236734Y72404D01*
X234068D01*
X233401Y73071D01*
X237400Y71072D02*
Y69739D01*
Y70405D01*
X233401D01*
X234068Y71072D01*
X244068Y83734D02*
X243401Y84401D01*
Y85734D01*
X244068Y86400D01*
X246734D01*
X247400Y85734D01*
Y84401D01*
X246734Y83734D01*
X245401D01*
Y85067D01*
X247400Y82401D02*
X243401D01*
Y80402D01*
X244068Y79735D01*
X245401D01*
X246067Y80402D01*
Y82401D01*
X243401Y78403D02*
Y77070D01*
Y77736D01*
X247400D01*
Y78403D01*
Y77070D01*
X243401Y73071D02*
Y74404D01*
X244068Y75070D01*
X246734D01*
X247400Y74404D01*
Y73071D01*
X246734Y72404D01*
X244068D01*
X243401Y73071D01*
X244068Y71072D02*
X243401Y70405D01*
Y69072D01*
X244068Y68406D01*
X246734D01*
X247400Y69072D01*
Y70405D01*
X246734Y71072D01*
X244068D01*
X254068Y86400D02*
X253401Y85734D01*
Y84401D01*
X254068Y83734D01*
X254734D01*
X255401Y84401D01*
Y85067D01*
Y84401D01*
X256067Y83734D01*
X256734D01*
X257400Y84401D01*
Y85734D01*
X256734Y86400D01*
X253401Y82401D02*
X256067D01*
X257400Y81068D01*
X256067Y79735D01*
X253401D01*
X254068Y78403D02*
X253401Y77736D01*
Y76403D01*
X254068Y75737D01*
X254734D01*
X255401Y76403D01*
Y77070D01*
Y76403D01*
X256067Y75737D01*
X256734D01*
X257400Y76403D01*
Y77736D01*
X256734Y78403D01*
X264068Y83734D02*
X263401Y84401D01*
Y85734D01*
X264068Y86400D01*
X266734D01*
X267400Y85734D01*
Y84401D01*
X266734Y83734D01*
X265401D01*
Y85067D01*
X267400Y82401D02*
X263401D01*
X267400Y79735D01*
X263401D01*
Y78403D02*
X267400D01*
Y76403D01*
X266734Y75737D01*
X264068D01*
X263401Y76403D01*
Y78403D01*
X263600Y101600D02*
Y102933D01*
Y102266D01*
X267599D01*
X266932Y101600D01*
X262500Y-3400D02*
Y-2067D01*
Y-2733D01*
X266499D01*
X265832Y-3400D01*
D79*
X270000Y90000D02*
Y100000D01*
X30000D02*
X270000D01*
X30000Y90000D02*
Y100000D01*
Y90000D02*
X270000D01*
X30000Y0D02*
X270000D01*
X30000D02*
Y10000D01*
X270000D01*
Y0D02*
Y10000D01*
M02*
